%TF.GenerationSoftware,KiCad,Pcbnew,8.0.0*%
%TF.CreationDate,2024-02-29T15:31:37+01:00*%
%TF.ProjectId,internet_clock_hardware,696e7465-726e-4657-945f-636c6f636b5f,REV 1.0*%
%TF.SameCoordinates,Original*%
%TF.FileFunction,Copper,L1,Top*%
%TF.FilePolarity,Positive*%
%FSLAX46Y46*%
G04 Gerber Fmt 4.6, Leading zero omitted, Abs format (unit mm)*
G04 Created by KiCad (PCBNEW 8.0.0) date 2024-02-29 15:31:37*
%MOMM*%
%LPD*%
G01*
G04 APERTURE LIST*
%ADD10C,0.100000*%
%ADD11C,0.150000*%
%ADD12C,0.300000*%
%ADD13C,0.400000*%
%TA.AperFunction,ComponentPad*%
%ADD14C,1.400000*%
%TD*%
%TA.AperFunction,ComponentPad*%
%ADD15C,1.600000*%
%TD*%
%TA.AperFunction,ComponentPad*%
%ADD16O,1.600000X1.600000*%
%TD*%
%TA.AperFunction,ComponentPad*%
%ADD17C,1.800000*%
%TD*%
%TA.AperFunction,ComponentPad*%
%ADD18C,4.680000*%
%TD*%
%TA.AperFunction,ComponentPad*%
%ADD19R,1.800000X1.800000*%
%TD*%
%TA.AperFunction,ComponentPad*%
%ADD20R,1.000000X1.000000*%
%TD*%
%TA.AperFunction,ComponentPad*%
%ADD21C,1.000000*%
%TD*%
%TA.AperFunction,ComponentPad*%
%ADD22C,1.440000*%
%TD*%
%TA.AperFunction,ComponentPad*%
%ADD23R,1.057000X1.057000*%
%TD*%
%TA.AperFunction,ComponentPad*%
%ADD24C,1.057000*%
%TD*%
%TA.AperFunction,ComponentPad*%
%ADD25R,1.600000X1.600000*%
%TD*%
%TA.AperFunction,Conductor*%
%ADD26C,0.250000*%
%TD*%
%TA.AperFunction,Conductor*%
%ADD27C,0.500000*%
%TD*%
G04 APERTURE END LIST*
D10*
D11*
X177002200Y-166007200D02*
X285002200Y-166007200D01*
X285002200Y-198007200D01*
X177002200Y-198007200D01*
X177002200Y-166007200D01*
D10*
D11*
X10000000Y-10000000D02*
X287002200Y-10000000D01*
X287002200Y-200007200D01*
X10000000Y-200007200D01*
X10000000Y-10000000D01*
D10*
D11*
X12000000Y-12000000D02*
X285002200Y-12000000D01*
X285002200Y-198007200D01*
X12000000Y-198007200D01*
X12000000Y-12000000D01*
D10*
D11*
X60000000Y-12000000D02*
X60000000Y-10000000D01*
D10*
D11*
X110000000Y-12000000D02*
X110000000Y-10000000D01*
D10*
D11*
X160000000Y-12000000D02*
X160000000Y-10000000D01*
D10*
D11*
X210000000Y-12000000D02*
X210000000Y-10000000D01*
D10*
D11*
X260000000Y-12000000D02*
X260000000Y-10000000D01*
D10*
D11*
X36089160Y-11593604D02*
X35346303Y-11593604D01*
X35717731Y-11593604D02*
X35717731Y-10293604D01*
X35717731Y-10293604D02*
X35593922Y-10479319D01*
X35593922Y-10479319D02*
X35470112Y-10603128D01*
X35470112Y-10603128D02*
X35346303Y-10665033D01*
D10*
D11*
X85346303Y-10417414D02*
X85408207Y-10355509D01*
X85408207Y-10355509D02*
X85532017Y-10293604D01*
X85532017Y-10293604D02*
X85841541Y-10293604D01*
X85841541Y-10293604D02*
X85965350Y-10355509D01*
X85965350Y-10355509D02*
X86027255Y-10417414D01*
X86027255Y-10417414D02*
X86089160Y-10541223D01*
X86089160Y-10541223D02*
X86089160Y-10665033D01*
X86089160Y-10665033D02*
X86027255Y-10850747D01*
X86027255Y-10850747D02*
X85284398Y-11593604D01*
X85284398Y-11593604D02*
X86089160Y-11593604D01*
D10*
D11*
X135284398Y-10293604D02*
X136089160Y-10293604D01*
X136089160Y-10293604D02*
X135655826Y-10788842D01*
X135655826Y-10788842D02*
X135841541Y-10788842D01*
X135841541Y-10788842D02*
X135965350Y-10850747D01*
X135965350Y-10850747D02*
X136027255Y-10912652D01*
X136027255Y-10912652D02*
X136089160Y-11036461D01*
X136089160Y-11036461D02*
X136089160Y-11345985D01*
X136089160Y-11345985D02*
X136027255Y-11469795D01*
X136027255Y-11469795D02*
X135965350Y-11531700D01*
X135965350Y-11531700D02*
X135841541Y-11593604D01*
X135841541Y-11593604D02*
X135470112Y-11593604D01*
X135470112Y-11593604D02*
X135346303Y-11531700D01*
X135346303Y-11531700D02*
X135284398Y-11469795D01*
D10*
D11*
X185965350Y-10726938D02*
X185965350Y-11593604D01*
X185655826Y-10231700D02*
X185346303Y-11160271D01*
X185346303Y-11160271D02*
X186151064Y-11160271D01*
D10*
D11*
X236027255Y-10293604D02*
X235408207Y-10293604D01*
X235408207Y-10293604D02*
X235346303Y-10912652D01*
X235346303Y-10912652D02*
X235408207Y-10850747D01*
X235408207Y-10850747D02*
X235532017Y-10788842D01*
X235532017Y-10788842D02*
X235841541Y-10788842D01*
X235841541Y-10788842D02*
X235965350Y-10850747D01*
X235965350Y-10850747D02*
X236027255Y-10912652D01*
X236027255Y-10912652D02*
X236089160Y-11036461D01*
X236089160Y-11036461D02*
X236089160Y-11345985D01*
X236089160Y-11345985D02*
X236027255Y-11469795D01*
X236027255Y-11469795D02*
X235965350Y-11531700D01*
X235965350Y-11531700D02*
X235841541Y-11593604D01*
X235841541Y-11593604D02*
X235532017Y-11593604D01*
X235532017Y-11593604D02*
X235408207Y-11531700D01*
X235408207Y-11531700D02*
X235346303Y-11469795D01*
D10*
D11*
X285965350Y-10293604D02*
X285717731Y-10293604D01*
X285717731Y-10293604D02*
X285593922Y-10355509D01*
X285593922Y-10355509D02*
X285532017Y-10417414D01*
X285532017Y-10417414D02*
X285408207Y-10603128D01*
X285408207Y-10603128D02*
X285346303Y-10850747D01*
X285346303Y-10850747D02*
X285346303Y-11345985D01*
X285346303Y-11345985D02*
X285408207Y-11469795D01*
X285408207Y-11469795D02*
X285470112Y-11531700D01*
X285470112Y-11531700D02*
X285593922Y-11593604D01*
X285593922Y-11593604D02*
X285841541Y-11593604D01*
X285841541Y-11593604D02*
X285965350Y-11531700D01*
X285965350Y-11531700D02*
X286027255Y-11469795D01*
X286027255Y-11469795D02*
X286089160Y-11345985D01*
X286089160Y-11345985D02*
X286089160Y-11036461D01*
X286089160Y-11036461D02*
X286027255Y-10912652D01*
X286027255Y-10912652D02*
X285965350Y-10850747D01*
X285965350Y-10850747D02*
X285841541Y-10788842D01*
X285841541Y-10788842D02*
X285593922Y-10788842D01*
X285593922Y-10788842D02*
X285470112Y-10850747D01*
X285470112Y-10850747D02*
X285408207Y-10912652D01*
X285408207Y-10912652D02*
X285346303Y-11036461D01*
D10*
D11*
X60000000Y-198007200D02*
X60000000Y-200007200D01*
D10*
D11*
X110000000Y-198007200D02*
X110000000Y-200007200D01*
D10*
D11*
X160000000Y-198007200D02*
X160000000Y-200007200D01*
D10*
D11*
X210000000Y-198007200D02*
X210000000Y-200007200D01*
D10*
D11*
X260000000Y-198007200D02*
X260000000Y-200007200D01*
D10*
D11*
X36089160Y-199600804D02*
X35346303Y-199600804D01*
X35717731Y-199600804D02*
X35717731Y-198300804D01*
X35717731Y-198300804D02*
X35593922Y-198486519D01*
X35593922Y-198486519D02*
X35470112Y-198610328D01*
X35470112Y-198610328D02*
X35346303Y-198672233D01*
D10*
D11*
X85346303Y-198424614D02*
X85408207Y-198362709D01*
X85408207Y-198362709D02*
X85532017Y-198300804D01*
X85532017Y-198300804D02*
X85841541Y-198300804D01*
X85841541Y-198300804D02*
X85965350Y-198362709D01*
X85965350Y-198362709D02*
X86027255Y-198424614D01*
X86027255Y-198424614D02*
X86089160Y-198548423D01*
X86089160Y-198548423D02*
X86089160Y-198672233D01*
X86089160Y-198672233D02*
X86027255Y-198857947D01*
X86027255Y-198857947D02*
X85284398Y-199600804D01*
X85284398Y-199600804D02*
X86089160Y-199600804D01*
D10*
D11*
X135284398Y-198300804D02*
X136089160Y-198300804D01*
X136089160Y-198300804D02*
X135655826Y-198796042D01*
X135655826Y-198796042D02*
X135841541Y-198796042D01*
X135841541Y-198796042D02*
X135965350Y-198857947D01*
X135965350Y-198857947D02*
X136027255Y-198919852D01*
X136027255Y-198919852D02*
X136089160Y-199043661D01*
X136089160Y-199043661D02*
X136089160Y-199353185D01*
X136089160Y-199353185D02*
X136027255Y-199476995D01*
X136027255Y-199476995D02*
X135965350Y-199538900D01*
X135965350Y-199538900D02*
X135841541Y-199600804D01*
X135841541Y-199600804D02*
X135470112Y-199600804D01*
X135470112Y-199600804D02*
X135346303Y-199538900D01*
X135346303Y-199538900D02*
X135284398Y-199476995D01*
D10*
D11*
X185965350Y-198734138D02*
X185965350Y-199600804D01*
X185655826Y-198238900D02*
X185346303Y-199167471D01*
X185346303Y-199167471D02*
X186151064Y-199167471D01*
D10*
D11*
X236027255Y-198300804D02*
X235408207Y-198300804D01*
X235408207Y-198300804D02*
X235346303Y-198919852D01*
X235346303Y-198919852D02*
X235408207Y-198857947D01*
X235408207Y-198857947D02*
X235532017Y-198796042D01*
X235532017Y-198796042D02*
X235841541Y-198796042D01*
X235841541Y-198796042D02*
X235965350Y-198857947D01*
X235965350Y-198857947D02*
X236027255Y-198919852D01*
X236027255Y-198919852D02*
X236089160Y-199043661D01*
X236089160Y-199043661D02*
X236089160Y-199353185D01*
X236089160Y-199353185D02*
X236027255Y-199476995D01*
X236027255Y-199476995D02*
X235965350Y-199538900D01*
X235965350Y-199538900D02*
X235841541Y-199600804D01*
X235841541Y-199600804D02*
X235532017Y-199600804D01*
X235532017Y-199600804D02*
X235408207Y-199538900D01*
X235408207Y-199538900D02*
X235346303Y-199476995D01*
D10*
D11*
X285965350Y-198300804D02*
X285717731Y-198300804D01*
X285717731Y-198300804D02*
X285593922Y-198362709D01*
X285593922Y-198362709D02*
X285532017Y-198424614D01*
X285532017Y-198424614D02*
X285408207Y-198610328D01*
X285408207Y-198610328D02*
X285346303Y-198857947D01*
X285346303Y-198857947D02*
X285346303Y-199353185D01*
X285346303Y-199353185D02*
X285408207Y-199476995D01*
X285408207Y-199476995D02*
X285470112Y-199538900D01*
X285470112Y-199538900D02*
X285593922Y-199600804D01*
X285593922Y-199600804D02*
X285841541Y-199600804D01*
X285841541Y-199600804D02*
X285965350Y-199538900D01*
X285965350Y-199538900D02*
X286027255Y-199476995D01*
X286027255Y-199476995D02*
X286089160Y-199353185D01*
X286089160Y-199353185D02*
X286089160Y-199043661D01*
X286089160Y-199043661D02*
X286027255Y-198919852D01*
X286027255Y-198919852D02*
X285965350Y-198857947D01*
X285965350Y-198857947D02*
X285841541Y-198796042D01*
X285841541Y-198796042D02*
X285593922Y-198796042D01*
X285593922Y-198796042D02*
X285470112Y-198857947D01*
X285470112Y-198857947D02*
X285408207Y-198919852D01*
X285408207Y-198919852D02*
X285346303Y-199043661D01*
D10*
D11*
X10000000Y-60000000D02*
X12000000Y-60000000D01*
D10*
D11*
X10000000Y-110000000D02*
X12000000Y-110000000D01*
D10*
D11*
X10000000Y-160000000D02*
X12000000Y-160000000D01*
D10*
D11*
X10690476Y-35222176D02*
X11309523Y-35222176D01*
X10566666Y-35593604D02*
X10999999Y-34293604D01*
X10999999Y-34293604D02*
X11433333Y-35593604D01*
D10*
D11*
X11092857Y-84912652D02*
X11278571Y-84974557D01*
X11278571Y-84974557D02*
X11340476Y-85036461D01*
X11340476Y-85036461D02*
X11402380Y-85160271D01*
X11402380Y-85160271D02*
X11402380Y-85345985D01*
X11402380Y-85345985D02*
X11340476Y-85469795D01*
X11340476Y-85469795D02*
X11278571Y-85531700D01*
X11278571Y-85531700D02*
X11154761Y-85593604D01*
X11154761Y-85593604D02*
X10659523Y-85593604D01*
X10659523Y-85593604D02*
X10659523Y-84293604D01*
X10659523Y-84293604D02*
X11092857Y-84293604D01*
X11092857Y-84293604D02*
X11216666Y-84355509D01*
X11216666Y-84355509D02*
X11278571Y-84417414D01*
X11278571Y-84417414D02*
X11340476Y-84541223D01*
X11340476Y-84541223D02*
X11340476Y-84665033D01*
X11340476Y-84665033D02*
X11278571Y-84788842D01*
X11278571Y-84788842D02*
X11216666Y-84850747D01*
X11216666Y-84850747D02*
X11092857Y-84912652D01*
X11092857Y-84912652D02*
X10659523Y-84912652D01*
D10*
D11*
X11402380Y-135469795D02*
X11340476Y-135531700D01*
X11340476Y-135531700D02*
X11154761Y-135593604D01*
X11154761Y-135593604D02*
X11030952Y-135593604D01*
X11030952Y-135593604D02*
X10845238Y-135531700D01*
X10845238Y-135531700D02*
X10721428Y-135407890D01*
X10721428Y-135407890D02*
X10659523Y-135284080D01*
X10659523Y-135284080D02*
X10597619Y-135036461D01*
X10597619Y-135036461D02*
X10597619Y-134850747D01*
X10597619Y-134850747D02*
X10659523Y-134603128D01*
X10659523Y-134603128D02*
X10721428Y-134479319D01*
X10721428Y-134479319D02*
X10845238Y-134355509D01*
X10845238Y-134355509D02*
X11030952Y-134293604D01*
X11030952Y-134293604D02*
X11154761Y-134293604D01*
X11154761Y-134293604D02*
X11340476Y-134355509D01*
X11340476Y-134355509D02*
X11402380Y-134417414D01*
D10*
D11*
X10659523Y-185593604D02*
X10659523Y-184293604D01*
X10659523Y-184293604D02*
X10969047Y-184293604D01*
X10969047Y-184293604D02*
X11154761Y-184355509D01*
X11154761Y-184355509D02*
X11278571Y-184479319D01*
X11278571Y-184479319D02*
X11340476Y-184603128D01*
X11340476Y-184603128D02*
X11402380Y-184850747D01*
X11402380Y-184850747D02*
X11402380Y-185036461D01*
X11402380Y-185036461D02*
X11340476Y-185284080D01*
X11340476Y-185284080D02*
X11278571Y-185407890D01*
X11278571Y-185407890D02*
X11154761Y-185531700D01*
X11154761Y-185531700D02*
X10969047Y-185593604D01*
X10969047Y-185593604D02*
X10659523Y-185593604D01*
D10*
D11*
X287002200Y-60000000D02*
X285002200Y-60000000D01*
D10*
D11*
X287002200Y-110000000D02*
X285002200Y-110000000D01*
D10*
D11*
X287002200Y-160000000D02*
X285002200Y-160000000D01*
D10*
D11*
X285692676Y-35222176D02*
X286311723Y-35222176D01*
X285568866Y-35593604D02*
X286002199Y-34293604D01*
X286002199Y-34293604D02*
X286435533Y-35593604D01*
D10*
D11*
X286095057Y-84912652D02*
X286280771Y-84974557D01*
X286280771Y-84974557D02*
X286342676Y-85036461D01*
X286342676Y-85036461D02*
X286404580Y-85160271D01*
X286404580Y-85160271D02*
X286404580Y-85345985D01*
X286404580Y-85345985D02*
X286342676Y-85469795D01*
X286342676Y-85469795D02*
X286280771Y-85531700D01*
X286280771Y-85531700D02*
X286156961Y-85593604D01*
X286156961Y-85593604D02*
X285661723Y-85593604D01*
X285661723Y-85593604D02*
X285661723Y-84293604D01*
X285661723Y-84293604D02*
X286095057Y-84293604D01*
X286095057Y-84293604D02*
X286218866Y-84355509D01*
X286218866Y-84355509D02*
X286280771Y-84417414D01*
X286280771Y-84417414D02*
X286342676Y-84541223D01*
X286342676Y-84541223D02*
X286342676Y-84665033D01*
X286342676Y-84665033D02*
X286280771Y-84788842D01*
X286280771Y-84788842D02*
X286218866Y-84850747D01*
X286218866Y-84850747D02*
X286095057Y-84912652D01*
X286095057Y-84912652D02*
X285661723Y-84912652D01*
D10*
D11*
X286404580Y-135469795D02*
X286342676Y-135531700D01*
X286342676Y-135531700D02*
X286156961Y-135593604D01*
X286156961Y-135593604D02*
X286033152Y-135593604D01*
X286033152Y-135593604D02*
X285847438Y-135531700D01*
X285847438Y-135531700D02*
X285723628Y-135407890D01*
X285723628Y-135407890D02*
X285661723Y-135284080D01*
X285661723Y-135284080D02*
X285599819Y-135036461D01*
X285599819Y-135036461D02*
X285599819Y-134850747D01*
X285599819Y-134850747D02*
X285661723Y-134603128D01*
X285661723Y-134603128D02*
X285723628Y-134479319D01*
X285723628Y-134479319D02*
X285847438Y-134355509D01*
X285847438Y-134355509D02*
X286033152Y-134293604D01*
X286033152Y-134293604D02*
X286156961Y-134293604D01*
X286156961Y-134293604D02*
X286342676Y-134355509D01*
X286342676Y-134355509D02*
X286404580Y-134417414D01*
D10*
D11*
X285661723Y-185593604D02*
X285661723Y-184293604D01*
X285661723Y-184293604D02*
X285971247Y-184293604D01*
X285971247Y-184293604D02*
X286156961Y-184355509D01*
X286156961Y-184355509D02*
X286280771Y-184479319D01*
X286280771Y-184479319D02*
X286342676Y-184603128D01*
X286342676Y-184603128D02*
X286404580Y-184850747D01*
X286404580Y-184850747D02*
X286404580Y-185036461D01*
X286404580Y-185036461D02*
X286342676Y-185284080D01*
X286342676Y-185284080D02*
X286280771Y-185407890D01*
X286280771Y-185407890D02*
X286156961Y-185531700D01*
X286156961Y-185531700D02*
X285971247Y-185593604D01*
X285971247Y-185593604D02*
X285661723Y-185593604D01*
D10*
D11*
X200458026Y-193793328D02*
X200458026Y-192293328D01*
X200458026Y-192293328D02*
X200815169Y-192293328D01*
X200815169Y-192293328D02*
X201029455Y-192364757D01*
X201029455Y-192364757D02*
X201172312Y-192507614D01*
X201172312Y-192507614D02*
X201243741Y-192650471D01*
X201243741Y-192650471D02*
X201315169Y-192936185D01*
X201315169Y-192936185D02*
X201315169Y-193150471D01*
X201315169Y-193150471D02*
X201243741Y-193436185D01*
X201243741Y-193436185D02*
X201172312Y-193579042D01*
X201172312Y-193579042D02*
X201029455Y-193721900D01*
X201029455Y-193721900D02*
X200815169Y-193793328D01*
X200815169Y-193793328D02*
X200458026Y-193793328D01*
X202600884Y-193793328D02*
X202600884Y-193007614D01*
X202600884Y-193007614D02*
X202529455Y-192864757D01*
X202529455Y-192864757D02*
X202386598Y-192793328D01*
X202386598Y-192793328D02*
X202100884Y-192793328D01*
X202100884Y-192793328D02*
X201958026Y-192864757D01*
X202600884Y-193721900D02*
X202458026Y-193793328D01*
X202458026Y-193793328D02*
X202100884Y-193793328D01*
X202100884Y-193793328D02*
X201958026Y-193721900D01*
X201958026Y-193721900D02*
X201886598Y-193579042D01*
X201886598Y-193579042D02*
X201886598Y-193436185D01*
X201886598Y-193436185D02*
X201958026Y-193293328D01*
X201958026Y-193293328D02*
X202100884Y-193221900D01*
X202100884Y-193221900D02*
X202458026Y-193221900D01*
X202458026Y-193221900D02*
X202600884Y-193150471D01*
X203100884Y-192793328D02*
X203672312Y-192793328D01*
X203315169Y-192293328D02*
X203315169Y-193579042D01*
X203315169Y-193579042D02*
X203386598Y-193721900D01*
X203386598Y-193721900D02*
X203529455Y-193793328D01*
X203529455Y-193793328D02*
X203672312Y-193793328D01*
X204743741Y-193721900D02*
X204600884Y-193793328D01*
X204600884Y-193793328D02*
X204315170Y-193793328D01*
X204315170Y-193793328D02*
X204172312Y-193721900D01*
X204172312Y-193721900D02*
X204100884Y-193579042D01*
X204100884Y-193579042D02*
X204100884Y-193007614D01*
X204100884Y-193007614D02*
X204172312Y-192864757D01*
X204172312Y-192864757D02*
X204315170Y-192793328D01*
X204315170Y-192793328D02*
X204600884Y-192793328D01*
X204600884Y-192793328D02*
X204743741Y-192864757D01*
X204743741Y-192864757D02*
X204815170Y-193007614D01*
X204815170Y-193007614D02*
X204815170Y-193150471D01*
X204815170Y-193150471D02*
X204100884Y-193293328D01*
X205458026Y-193650471D02*
X205529455Y-193721900D01*
X205529455Y-193721900D02*
X205458026Y-193793328D01*
X205458026Y-193793328D02*
X205386598Y-193721900D01*
X205386598Y-193721900D02*
X205458026Y-193650471D01*
X205458026Y-193650471D02*
X205458026Y-193793328D01*
X205458026Y-192864757D02*
X205529455Y-192936185D01*
X205529455Y-192936185D02*
X205458026Y-193007614D01*
X205458026Y-193007614D02*
X205386598Y-192936185D01*
X205386598Y-192936185D02*
X205458026Y-192864757D01*
X205458026Y-192864757D02*
X205458026Y-193007614D01*
X207243741Y-192436185D02*
X207315169Y-192364757D01*
X207315169Y-192364757D02*
X207458027Y-192293328D01*
X207458027Y-192293328D02*
X207815169Y-192293328D01*
X207815169Y-192293328D02*
X207958027Y-192364757D01*
X207958027Y-192364757D02*
X208029455Y-192436185D01*
X208029455Y-192436185D02*
X208100884Y-192579042D01*
X208100884Y-192579042D02*
X208100884Y-192721900D01*
X208100884Y-192721900D02*
X208029455Y-192936185D01*
X208029455Y-192936185D02*
X207172312Y-193793328D01*
X207172312Y-193793328D02*
X208100884Y-193793328D01*
X209029455Y-192293328D02*
X209172312Y-192293328D01*
X209172312Y-192293328D02*
X209315169Y-192364757D01*
X209315169Y-192364757D02*
X209386598Y-192436185D01*
X209386598Y-192436185D02*
X209458026Y-192579042D01*
X209458026Y-192579042D02*
X209529455Y-192864757D01*
X209529455Y-192864757D02*
X209529455Y-193221900D01*
X209529455Y-193221900D02*
X209458026Y-193507614D01*
X209458026Y-193507614D02*
X209386598Y-193650471D01*
X209386598Y-193650471D02*
X209315169Y-193721900D01*
X209315169Y-193721900D02*
X209172312Y-193793328D01*
X209172312Y-193793328D02*
X209029455Y-193793328D01*
X209029455Y-193793328D02*
X208886598Y-193721900D01*
X208886598Y-193721900D02*
X208815169Y-193650471D01*
X208815169Y-193650471D02*
X208743740Y-193507614D01*
X208743740Y-193507614D02*
X208672312Y-193221900D01*
X208672312Y-193221900D02*
X208672312Y-192864757D01*
X208672312Y-192864757D02*
X208743740Y-192579042D01*
X208743740Y-192579042D02*
X208815169Y-192436185D01*
X208815169Y-192436185D02*
X208886598Y-192364757D01*
X208886598Y-192364757D02*
X209029455Y-192293328D01*
X210100883Y-192436185D02*
X210172311Y-192364757D01*
X210172311Y-192364757D02*
X210315169Y-192293328D01*
X210315169Y-192293328D02*
X210672311Y-192293328D01*
X210672311Y-192293328D02*
X210815169Y-192364757D01*
X210815169Y-192364757D02*
X210886597Y-192436185D01*
X210886597Y-192436185D02*
X210958026Y-192579042D01*
X210958026Y-192579042D02*
X210958026Y-192721900D01*
X210958026Y-192721900D02*
X210886597Y-192936185D01*
X210886597Y-192936185D02*
X210029454Y-193793328D01*
X210029454Y-193793328D02*
X210958026Y-193793328D01*
X212243740Y-192793328D02*
X212243740Y-193793328D01*
X211886597Y-192221900D02*
X211529454Y-193293328D01*
X211529454Y-193293328D02*
X212458025Y-193293328D01*
X213029453Y-193221900D02*
X214172311Y-193221900D01*
X215172311Y-192293328D02*
X215315168Y-192293328D01*
X215315168Y-192293328D02*
X215458025Y-192364757D01*
X215458025Y-192364757D02*
X215529454Y-192436185D01*
X215529454Y-192436185D02*
X215600882Y-192579042D01*
X215600882Y-192579042D02*
X215672311Y-192864757D01*
X215672311Y-192864757D02*
X215672311Y-193221900D01*
X215672311Y-193221900D02*
X215600882Y-193507614D01*
X215600882Y-193507614D02*
X215529454Y-193650471D01*
X215529454Y-193650471D02*
X215458025Y-193721900D01*
X215458025Y-193721900D02*
X215315168Y-193793328D01*
X215315168Y-193793328D02*
X215172311Y-193793328D01*
X215172311Y-193793328D02*
X215029454Y-193721900D01*
X215029454Y-193721900D02*
X214958025Y-193650471D01*
X214958025Y-193650471D02*
X214886596Y-193507614D01*
X214886596Y-193507614D02*
X214815168Y-193221900D01*
X214815168Y-193221900D02*
X214815168Y-192864757D01*
X214815168Y-192864757D02*
X214886596Y-192579042D01*
X214886596Y-192579042D02*
X214958025Y-192436185D01*
X214958025Y-192436185D02*
X215029454Y-192364757D01*
X215029454Y-192364757D02*
X215172311Y-192293328D01*
X216243739Y-192436185D02*
X216315167Y-192364757D01*
X216315167Y-192364757D02*
X216458025Y-192293328D01*
X216458025Y-192293328D02*
X216815167Y-192293328D01*
X216815167Y-192293328D02*
X216958025Y-192364757D01*
X216958025Y-192364757D02*
X217029453Y-192436185D01*
X217029453Y-192436185D02*
X217100882Y-192579042D01*
X217100882Y-192579042D02*
X217100882Y-192721900D01*
X217100882Y-192721900D02*
X217029453Y-192936185D01*
X217029453Y-192936185D02*
X216172310Y-193793328D01*
X216172310Y-193793328D02*
X217100882Y-193793328D01*
X217743738Y-193221900D02*
X218886596Y-193221900D01*
X219886596Y-192293328D02*
X220029453Y-192293328D01*
X220029453Y-192293328D02*
X220172310Y-192364757D01*
X220172310Y-192364757D02*
X220243739Y-192436185D01*
X220243739Y-192436185D02*
X220315167Y-192579042D01*
X220315167Y-192579042D02*
X220386596Y-192864757D01*
X220386596Y-192864757D02*
X220386596Y-193221900D01*
X220386596Y-193221900D02*
X220315167Y-193507614D01*
X220315167Y-193507614D02*
X220243739Y-193650471D01*
X220243739Y-193650471D02*
X220172310Y-193721900D01*
X220172310Y-193721900D02*
X220029453Y-193793328D01*
X220029453Y-193793328D02*
X219886596Y-193793328D01*
X219886596Y-193793328D02*
X219743739Y-193721900D01*
X219743739Y-193721900D02*
X219672310Y-193650471D01*
X219672310Y-193650471D02*
X219600881Y-193507614D01*
X219600881Y-193507614D02*
X219529453Y-193221900D01*
X219529453Y-193221900D02*
X219529453Y-192864757D01*
X219529453Y-192864757D02*
X219600881Y-192579042D01*
X219600881Y-192579042D02*
X219672310Y-192436185D01*
X219672310Y-192436185D02*
X219743739Y-192364757D01*
X219743739Y-192364757D02*
X219886596Y-192293328D01*
X221815167Y-193793328D02*
X220958024Y-193793328D01*
X221386595Y-193793328D02*
X221386595Y-192293328D01*
X221386595Y-192293328D02*
X221243738Y-192507614D01*
X221243738Y-192507614D02*
X221100881Y-192650471D01*
X221100881Y-192650471D02*
X220958024Y-192721900D01*
D10*
D11*
X177002200Y-194507200D02*
X285002200Y-194507200D01*
D10*
D11*
X178458026Y-196593328D02*
X178458026Y-195093328D01*
X179315169Y-196593328D02*
X178672312Y-195736185D01*
X179315169Y-195093328D02*
X178458026Y-195950471D01*
X179958026Y-196593328D02*
X179958026Y-195593328D01*
X179958026Y-195093328D02*
X179886598Y-195164757D01*
X179886598Y-195164757D02*
X179958026Y-195236185D01*
X179958026Y-195236185D02*
X180029455Y-195164757D01*
X180029455Y-195164757D02*
X179958026Y-195093328D01*
X179958026Y-195093328D02*
X179958026Y-195236185D01*
X181529455Y-196450471D02*
X181458027Y-196521900D01*
X181458027Y-196521900D02*
X181243741Y-196593328D01*
X181243741Y-196593328D02*
X181100884Y-196593328D01*
X181100884Y-196593328D02*
X180886598Y-196521900D01*
X180886598Y-196521900D02*
X180743741Y-196379042D01*
X180743741Y-196379042D02*
X180672312Y-196236185D01*
X180672312Y-196236185D02*
X180600884Y-195950471D01*
X180600884Y-195950471D02*
X180600884Y-195736185D01*
X180600884Y-195736185D02*
X180672312Y-195450471D01*
X180672312Y-195450471D02*
X180743741Y-195307614D01*
X180743741Y-195307614D02*
X180886598Y-195164757D01*
X180886598Y-195164757D02*
X181100884Y-195093328D01*
X181100884Y-195093328D02*
X181243741Y-195093328D01*
X181243741Y-195093328D02*
X181458027Y-195164757D01*
X181458027Y-195164757D02*
X181529455Y-195236185D01*
X182815170Y-196593328D02*
X182815170Y-195807614D01*
X182815170Y-195807614D02*
X182743741Y-195664757D01*
X182743741Y-195664757D02*
X182600884Y-195593328D01*
X182600884Y-195593328D02*
X182315170Y-195593328D01*
X182315170Y-195593328D02*
X182172312Y-195664757D01*
X182815170Y-196521900D02*
X182672312Y-196593328D01*
X182672312Y-196593328D02*
X182315170Y-196593328D01*
X182315170Y-196593328D02*
X182172312Y-196521900D01*
X182172312Y-196521900D02*
X182100884Y-196379042D01*
X182100884Y-196379042D02*
X182100884Y-196236185D01*
X182100884Y-196236185D02*
X182172312Y-196093328D01*
X182172312Y-196093328D02*
X182315170Y-196021900D01*
X182315170Y-196021900D02*
X182672312Y-196021900D01*
X182672312Y-196021900D02*
X182815170Y-195950471D01*
X184172313Y-196593328D02*
X184172313Y-195093328D01*
X184172313Y-196521900D02*
X184029455Y-196593328D01*
X184029455Y-196593328D02*
X183743741Y-196593328D01*
X183743741Y-196593328D02*
X183600884Y-196521900D01*
X183600884Y-196521900D02*
X183529455Y-196450471D01*
X183529455Y-196450471D02*
X183458027Y-196307614D01*
X183458027Y-196307614D02*
X183458027Y-195879042D01*
X183458027Y-195879042D02*
X183529455Y-195736185D01*
X183529455Y-195736185D02*
X183600884Y-195664757D01*
X183600884Y-195664757D02*
X183743741Y-195593328D01*
X183743741Y-195593328D02*
X184029455Y-195593328D01*
X184029455Y-195593328D02*
X184172313Y-195664757D01*
X186029455Y-195807614D02*
X186529455Y-195807614D01*
X186743741Y-196593328D02*
X186029455Y-196593328D01*
X186029455Y-196593328D02*
X186029455Y-195093328D01*
X186029455Y-195093328D02*
X186743741Y-195093328D01*
X187386598Y-196450471D02*
X187458027Y-196521900D01*
X187458027Y-196521900D02*
X187386598Y-196593328D01*
X187386598Y-196593328D02*
X187315170Y-196521900D01*
X187315170Y-196521900D02*
X187386598Y-196450471D01*
X187386598Y-196450471D02*
X187386598Y-196593328D01*
X188100884Y-196593328D02*
X188100884Y-195093328D01*
X188100884Y-195093328D02*
X188458027Y-195093328D01*
X188458027Y-195093328D02*
X188672313Y-195164757D01*
X188672313Y-195164757D02*
X188815170Y-195307614D01*
X188815170Y-195307614D02*
X188886599Y-195450471D01*
X188886599Y-195450471D02*
X188958027Y-195736185D01*
X188958027Y-195736185D02*
X188958027Y-195950471D01*
X188958027Y-195950471D02*
X188886599Y-196236185D01*
X188886599Y-196236185D02*
X188815170Y-196379042D01*
X188815170Y-196379042D02*
X188672313Y-196521900D01*
X188672313Y-196521900D02*
X188458027Y-196593328D01*
X188458027Y-196593328D02*
X188100884Y-196593328D01*
X189600884Y-196450471D02*
X189672313Y-196521900D01*
X189672313Y-196521900D02*
X189600884Y-196593328D01*
X189600884Y-196593328D02*
X189529456Y-196521900D01*
X189529456Y-196521900D02*
X189600884Y-196450471D01*
X189600884Y-196450471D02*
X189600884Y-196593328D01*
X190243742Y-196164757D02*
X190958028Y-196164757D01*
X190100885Y-196593328D02*
X190600885Y-195093328D01*
X190600885Y-195093328D02*
X191100885Y-196593328D01*
X191600884Y-196450471D02*
X191672313Y-196521900D01*
X191672313Y-196521900D02*
X191600884Y-196593328D01*
X191600884Y-196593328D02*
X191529456Y-196521900D01*
X191529456Y-196521900D02*
X191600884Y-196450471D01*
X191600884Y-196450471D02*
X191600884Y-196593328D01*
X193672313Y-195736185D02*
X193529456Y-195664757D01*
X193529456Y-195664757D02*
X193458027Y-195593328D01*
X193458027Y-195593328D02*
X193386599Y-195450471D01*
X193386599Y-195450471D02*
X193386599Y-195379042D01*
X193386599Y-195379042D02*
X193458027Y-195236185D01*
X193458027Y-195236185D02*
X193529456Y-195164757D01*
X193529456Y-195164757D02*
X193672313Y-195093328D01*
X193672313Y-195093328D02*
X193958027Y-195093328D01*
X193958027Y-195093328D02*
X194100885Y-195164757D01*
X194100885Y-195164757D02*
X194172313Y-195236185D01*
X194172313Y-195236185D02*
X194243742Y-195379042D01*
X194243742Y-195379042D02*
X194243742Y-195450471D01*
X194243742Y-195450471D02*
X194172313Y-195593328D01*
X194172313Y-195593328D02*
X194100885Y-195664757D01*
X194100885Y-195664757D02*
X193958027Y-195736185D01*
X193958027Y-195736185D02*
X193672313Y-195736185D01*
X193672313Y-195736185D02*
X193529456Y-195807614D01*
X193529456Y-195807614D02*
X193458027Y-195879042D01*
X193458027Y-195879042D02*
X193386599Y-196021900D01*
X193386599Y-196021900D02*
X193386599Y-196307614D01*
X193386599Y-196307614D02*
X193458027Y-196450471D01*
X193458027Y-196450471D02*
X193529456Y-196521900D01*
X193529456Y-196521900D02*
X193672313Y-196593328D01*
X193672313Y-196593328D02*
X193958027Y-196593328D01*
X193958027Y-196593328D02*
X194100885Y-196521900D01*
X194100885Y-196521900D02*
X194172313Y-196450471D01*
X194172313Y-196450471D02*
X194243742Y-196307614D01*
X194243742Y-196307614D02*
X194243742Y-196021900D01*
X194243742Y-196021900D02*
X194172313Y-195879042D01*
X194172313Y-195879042D02*
X194100885Y-195807614D01*
X194100885Y-195807614D02*
X193958027Y-195736185D01*
X194886598Y-196450471D02*
X194958027Y-196521900D01*
X194958027Y-196521900D02*
X194886598Y-196593328D01*
X194886598Y-196593328D02*
X194815170Y-196521900D01*
X194815170Y-196521900D02*
X194886598Y-196450471D01*
X194886598Y-196450471D02*
X194886598Y-196593328D01*
X195886599Y-195093328D02*
X196029456Y-195093328D01*
X196029456Y-195093328D02*
X196172313Y-195164757D01*
X196172313Y-195164757D02*
X196243742Y-195236185D01*
X196243742Y-195236185D02*
X196315170Y-195379042D01*
X196315170Y-195379042D02*
X196386599Y-195664757D01*
X196386599Y-195664757D02*
X196386599Y-196021900D01*
X196386599Y-196021900D02*
X196315170Y-196307614D01*
X196315170Y-196307614D02*
X196243742Y-196450471D01*
X196243742Y-196450471D02*
X196172313Y-196521900D01*
X196172313Y-196521900D02*
X196029456Y-196593328D01*
X196029456Y-196593328D02*
X195886599Y-196593328D01*
X195886599Y-196593328D02*
X195743742Y-196521900D01*
X195743742Y-196521900D02*
X195672313Y-196450471D01*
X195672313Y-196450471D02*
X195600884Y-196307614D01*
X195600884Y-196307614D02*
X195529456Y-196021900D01*
X195529456Y-196021900D02*
X195529456Y-195664757D01*
X195529456Y-195664757D02*
X195600884Y-195379042D01*
X195600884Y-195379042D02*
X195672313Y-195236185D01*
X195672313Y-195236185D02*
X195743742Y-195164757D01*
X195743742Y-195164757D02*
X195886599Y-195093328D01*
X197029455Y-196450471D02*
X197100884Y-196521900D01*
X197100884Y-196521900D02*
X197029455Y-196593328D01*
X197029455Y-196593328D02*
X196958027Y-196521900D01*
X196958027Y-196521900D02*
X197029455Y-196450471D01*
X197029455Y-196450471D02*
X197029455Y-196593328D01*
X198029456Y-195093328D02*
X198172313Y-195093328D01*
X198172313Y-195093328D02*
X198315170Y-195164757D01*
X198315170Y-195164757D02*
X198386599Y-195236185D01*
X198386599Y-195236185D02*
X198458027Y-195379042D01*
X198458027Y-195379042D02*
X198529456Y-195664757D01*
X198529456Y-195664757D02*
X198529456Y-196021900D01*
X198529456Y-196021900D02*
X198458027Y-196307614D01*
X198458027Y-196307614D02*
X198386599Y-196450471D01*
X198386599Y-196450471D02*
X198315170Y-196521900D01*
X198315170Y-196521900D02*
X198172313Y-196593328D01*
X198172313Y-196593328D02*
X198029456Y-196593328D01*
X198029456Y-196593328D02*
X197886599Y-196521900D01*
X197886599Y-196521900D02*
X197815170Y-196450471D01*
X197815170Y-196450471D02*
X197743741Y-196307614D01*
X197743741Y-196307614D02*
X197672313Y-196021900D01*
X197672313Y-196021900D02*
X197672313Y-195664757D01*
X197672313Y-195664757D02*
X197743741Y-195379042D01*
X197743741Y-195379042D02*
X197815170Y-195236185D01*
X197815170Y-195236185D02*
X197886599Y-195164757D01*
X197886599Y-195164757D02*
X198029456Y-195093328D01*
D10*
D11*
X177002200Y-191507200D02*
X285002200Y-191507200D01*
D10*
D12*
X264413853Y-193785528D02*
X263913853Y-193071242D01*
X263556710Y-193785528D02*
X263556710Y-192285528D01*
X263556710Y-192285528D02*
X264128139Y-192285528D01*
X264128139Y-192285528D02*
X264270996Y-192356957D01*
X264270996Y-192356957D02*
X264342425Y-192428385D01*
X264342425Y-192428385D02*
X264413853Y-192571242D01*
X264413853Y-192571242D02*
X264413853Y-192785528D01*
X264413853Y-192785528D02*
X264342425Y-192928385D01*
X264342425Y-192928385D02*
X264270996Y-192999814D01*
X264270996Y-192999814D02*
X264128139Y-193071242D01*
X264128139Y-193071242D02*
X263556710Y-193071242D01*
X265628139Y-193714100D02*
X265485282Y-193785528D01*
X265485282Y-193785528D02*
X265199568Y-193785528D01*
X265199568Y-193785528D02*
X265056710Y-193714100D01*
X265056710Y-193714100D02*
X264985282Y-193571242D01*
X264985282Y-193571242D02*
X264985282Y-192999814D01*
X264985282Y-192999814D02*
X265056710Y-192856957D01*
X265056710Y-192856957D02*
X265199568Y-192785528D01*
X265199568Y-192785528D02*
X265485282Y-192785528D01*
X265485282Y-192785528D02*
X265628139Y-192856957D01*
X265628139Y-192856957D02*
X265699568Y-192999814D01*
X265699568Y-192999814D02*
X265699568Y-193142671D01*
X265699568Y-193142671D02*
X264985282Y-193285528D01*
X266199567Y-192785528D02*
X266556710Y-193785528D01*
X266556710Y-193785528D02*
X266913853Y-192785528D01*
X267485281Y-193642671D02*
X267556710Y-193714100D01*
X267556710Y-193714100D02*
X267485281Y-193785528D01*
X267485281Y-193785528D02*
X267413853Y-193714100D01*
X267413853Y-193714100D02*
X267485281Y-193642671D01*
X267485281Y-193642671D02*
X267485281Y-193785528D01*
X267485281Y-192856957D02*
X267556710Y-192928385D01*
X267556710Y-192928385D02*
X267485281Y-192999814D01*
X267485281Y-192999814D02*
X267413853Y-192928385D01*
X267413853Y-192928385D02*
X267485281Y-192856957D01*
X267485281Y-192856957D02*
X267485281Y-192999814D01*
X270199567Y-193785528D02*
X269699567Y-193071242D01*
X269342424Y-193785528D02*
X269342424Y-192285528D01*
X269342424Y-192285528D02*
X269913853Y-192285528D01*
X269913853Y-192285528D02*
X270056710Y-192356957D01*
X270056710Y-192356957D02*
X270128139Y-192428385D01*
X270128139Y-192428385D02*
X270199567Y-192571242D01*
X270199567Y-192571242D02*
X270199567Y-192785528D01*
X270199567Y-192785528D02*
X270128139Y-192928385D01*
X270128139Y-192928385D02*
X270056710Y-192999814D01*
X270056710Y-192999814D02*
X269913853Y-193071242D01*
X269913853Y-193071242D02*
X269342424Y-193071242D01*
X270842424Y-192999814D02*
X271342424Y-192999814D01*
X271556710Y-193785528D02*
X270842424Y-193785528D01*
X270842424Y-193785528D02*
X270842424Y-192285528D01*
X270842424Y-192285528D02*
X271556710Y-192285528D01*
X271985282Y-192285528D02*
X272485282Y-193785528D01*
X272485282Y-193785528D02*
X272985282Y-192285528D01*
X275413853Y-193785528D02*
X274556710Y-193785528D01*
X274985281Y-193785528D02*
X274985281Y-192285528D01*
X274985281Y-192285528D02*
X274842424Y-192499814D01*
X274842424Y-192499814D02*
X274699567Y-192642671D01*
X274699567Y-192642671D02*
X274556710Y-192714100D01*
X276056709Y-193642671D02*
X276128138Y-193714100D01*
X276128138Y-193714100D02*
X276056709Y-193785528D01*
X276056709Y-193785528D02*
X275985281Y-193714100D01*
X275985281Y-193714100D02*
X276056709Y-193642671D01*
X276056709Y-193642671D02*
X276056709Y-193785528D01*
X277056710Y-192285528D02*
X277199567Y-192285528D01*
X277199567Y-192285528D02*
X277342424Y-192356957D01*
X277342424Y-192356957D02*
X277413853Y-192428385D01*
X277413853Y-192428385D02*
X277485281Y-192571242D01*
X277485281Y-192571242D02*
X277556710Y-192856957D01*
X277556710Y-192856957D02*
X277556710Y-193214100D01*
X277556710Y-193214100D02*
X277485281Y-193499814D01*
X277485281Y-193499814D02*
X277413853Y-193642671D01*
X277413853Y-193642671D02*
X277342424Y-193714100D01*
X277342424Y-193714100D02*
X277199567Y-193785528D01*
X277199567Y-193785528D02*
X277056710Y-193785528D01*
X277056710Y-193785528D02*
X276913853Y-193714100D01*
X276913853Y-193714100D02*
X276842424Y-193642671D01*
X276842424Y-193642671D02*
X276770995Y-193499814D01*
X276770995Y-193499814D02*
X276699567Y-193214100D01*
X276699567Y-193214100D02*
X276699567Y-192856957D01*
X276699567Y-192856957D02*
X276770995Y-192571242D01*
X276770995Y-192571242D02*
X276842424Y-192428385D01*
X276842424Y-192428385D02*
X276913853Y-192356957D01*
X276913853Y-192356957D02*
X277056710Y-192285528D01*
D10*
D11*
X178386598Y-193721900D02*
X178600884Y-193793328D01*
X178600884Y-193793328D02*
X178958026Y-193793328D01*
X178958026Y-193793328D02*
X179100884Y-193721900D01*
X179100884Y-193721900D02*
X179172312Y-193650471D01*
X179172312Y-193650471D02*
X179243741Y-193507614D01*
X179243741Y-193507614D02*
X179243741Y-193364757D01*
X179243741Y-193364757D02*
X179172312Y-193221900D01*
X179172312Y-193221900D02*
X179100884Y-193150471D01*
X179100884Y-193150471D02*
X178958026Y-193079042D01*
X178958026Y-193079042D02*
X178672312Y-193007614D01*
X178672312Y-193007614D02*
X178529455Y-192936185D01*
X178529455Y-192936185D02*
X178458026Y-192864757D01*
X178458026Y-192864757D02*
X178386598Y-192721900D01*
X178386598Y-192721900D02*
X178386598Y-192579042D01*
X178386598Y-192579042D02*
X178458026Y-192436185D01*
X178458026Y-192436185D02*
X178529455Y-192364757D01*
X178529455Y-192364757D02*
X178672312Y-192293328D01*
X178672312Y-192293328D02*
X179029455Y-192293328D01*
X179029455Y-192293328D02*
X179243741Y-192364757D01*
X179886597Y-193793328D02*
X179886597Y-192793328D01*
X179886597Y-192293328D02*
X179815169Y-192364757D01*
X179815169Y-192364757D02*
X179886597Y-192436185D01*
X179886597Y-192436185D02*
X179958026Y-192364757D01*
X179958026Y-192364757D02*
X179886597Y-192293328D01*
X179886597Y-192293328D02*
X179886597Y-192436185D01*
X180458026Y-192793328D02*
X181243741Y-192793328D01*
X181243741Y-192793328D02*
X180458026Y-193793328D01*
X180458026Y-193793328D02*
X181243741Y-193793328D01*
X182386598Y-193721900D02*
X182243741Y-193793328D01*
X182243741Y-193793328D02*
X181958027Y-193793328D01*
X181958027Y-193793328D02*
X181815169Y-193721900D01*
X181815169Y-193721900D02*
X181743741Y-193579042D01*
X181743741Y-193579042D02*
X181743741Y-193007614D01*
X181743741Y-193007614D02*
X181815169Y-192864757D01*
X181815169Y-192864757D02*
X181958027Y-192793328D01*
X181958027Y-192793328D02*
X182243741Y-192793328D01*
X182243741Y-192793328D02*
X182386598Y-192864757D01*
X182386598Y-192864757D02*
X182458027Y-193007614D01*
X182458027Y-193007614D02*
X182458027Y-193150471D01*
X182458027Y-193150471D02*
X181743741Y-193293328D01*
X183100883Y-193650471D02*
X183172312Y-193721900D01*
X183172312Y-193721900D02*
X183100883Y-193793328D01*
X183100883Y-193793328D02*
X183029455Y-193721900D01*
X183029455Y-193721900D02*
X183100883Y-193650471D01*
X183100883Y-193650471D02*
X183100883Y-193793328D01*
X183100883Y-192864757D02*
X183172312Y-192936185D01*
X183172312Y-192936185D02*
X183100883Y-193007614D01*
X183100883Y-193007614D02*
X183029455Y-192936185D01*
X183029455Y-192936185D02*
X183100883Y-192864757D01*
X183100883Y-192864757D02*
X183100883Y-193007614D01*
X184886598Y-193364757D02*
X185600884Y-193364757D01*
X184743741Y-193793328D02*
X185243741Y-192293328D01*
X185243741Y-192293328D02*
X185743741Y-193793328D01*
X186886598Y-192793328D02*
X186886598Y-193793328D01*
X186529455Y-192221900D02*
X186172312Y-193293328D01*
X186172312Y-193293328D02*
X187100883Y-193293328D01*
D10*
D11*
X263458026Y-196593328D02*
X263458026Y-195093328D01*
X264815170Y-196593328D02*
X264815170Y-195093328D01*
X264815170Y-196521900D02*
X264672312Y-196593328D01*
X264672312Y-196593328D02*
X264386598Y-196593328D01*
X264386598Y-196593328D02*
X264243741Y-196521900D01*
X264243741Y-196521900D02*
X264172312Y-196450471D01*
X264172312Y-196450471D02*
X264100884Y-196307614D01*
X264100884Y-196307614D02*
X264100884Y-195879042D01*
X264100884Y-195879042D02*
X264172312Y-195736185D01*
X264172312Y-195736185D02*
X264243741Y-195664757D01*
X264243741Y-195664757D02*
X264386598Y-195593328D01*
X264386598Y-195593328D02*
X264672312Y-195593328D01*
X264672312Y-195593328D02*
X264815170Y-195664757D01*
X265529455Y-196450471D02*
X265600884Y-196521900D01*
X265600884Y-196521900D02*
X265529455Y-196593328D01*
X265529455Y-196593328D02*
X265458027Y-196521900D01*
X265458027Y-196521900D02*
X265529455Y-196450471D01*
X265529455Y-196450471D02*
X265529455Y-196593328D01*
X265529455Y-195664757D02*
X265600884Y-195736185D01*
X265600884Y-195736185D02*
X265529455Y-195807614D01*
X265529455Y-195807614D02*
X265458027Y-195736185D01*
X265458027Y-195736185D02*
X265529455Y-195664757D01*
X265529455Y-195664757D02*
X265529455Y-195807614D01*
X268172313Y-196593328D02*
X267315170Y-196593328D01*
X267743741Y-196593328D02*
X267743741Y-195093328D01*
X267743741Y-195093328D02*
X267600884Y-195307614D01*
X267600884Y-195307614D02*
X267458027Y-195450471D01*
X267458027Y-195450471D02*
X267315170Y-195521900D01*
X269886598Y-195021900D02*
X268600884Y-196950471D01*
X271172313Y-196593328D02*
X270315170Y-196593328D01*
X270743741Y-196593328D02*
X270743741Y-195093328D01*
X270743741Y-195093328D02*
X270600884Y-195307614D01*
X270600884Y-195307614D02*
X270458027Y-195450471D01*
X270458027Y-195450471D02*
X270315170Y-195521900D01*
D10*
D11*
X177002200Y-187507200D02*
X285002200Y-187507200D01*
D10*
D13*
X178693928Y-188211638D02*
X179836785Y-188211638D01*
X179015357Y-190211638D02*
X179265357Y-188211638D01*
X180253452Y-190211638D02*
X180420119Y-188878304D01*
X180503452Y-188211638D02*
X180396309Y-188306876D01*
X180396309Y-188306876D02*
X180479643Y-188402114D01*
X180479643Y-188402114D02*
X180586786Y-188306876D01*
X180586786Y-188306876D02*
X180503452Y-188211638D01*
X180503452Y-188211638D02*
X180479643Y-188402114D01*
X181086786Y-188878304D02*
X181848690Y-188878304D01*
X181455833Y-188211638D02*
X181241548Y-189925923D01*
X181241548Y-189925923D02*
X181312976Y-190116400D01*
X181312976Y-190116400D02*
X181491548Y-190211638D01*
X181491548Y-190211638D02*
X181682024Y-190211638D01*
X182634405Y-190211638D02*
X182455833Y-190116400D01*
X182455833Y-190116400D02*
X182384405Y-189925923D01*
X182384405Y-189925923D02*
X182598690Y-188211638D01*
X184170119Y-190116400D02*
X183967738Y-190211638D01*
X183967738Y-190211638D02*
X183586785Y-190211638D01*
X183586785Y-190211638D02*
X183408214Y-190116400D01*
X183408214Y-190116400D02*
X183336785Y-189925923D01*
X183336785Y-189925923D02*
X183432024Y-189164019D01*
X183432024Y-189164019D02*
X183551071Y-188973542D01*
X183551071Y-188973542D02*
X183753452Y-188878304D01*
X183753452Y-188878304D02*
X184134404Y-188878304D01*
X184134404Y-188878304D02*
X184312976Y-188973542D01*
X184312976Y-188973542D02*
X184384404Y-189164019D01*
X184384404Y-189164019D02*
X184360595Y-189354495D01*
X184360595Y-189354495D02*
X183384404Y-189544971D01*
X185134405Y-190021161D02*
X185217738Y-190116400D01*
X185217738Y-190116400D02*
X185110595Y-190211638D01*
X185110595Y-190211638D02*
X185027262Y-190116400D01*
X185027262Y-190116400D02*
X185134405Y-190021161D01*
X185134405Y-190021161D02*
X185110595Y-190211638D01*
X185265357Y-188973542D02*
X185348690Y-189068780D01*
X185348690Y-189068780D02*
X185241548Y-189164019D01*
X185241548Y-189164019D02*
X185158214Y-189068780D01*
X185158214Y-189068780D02*
X185265357Y-188973542D01*
X185265357Y-188973542D02*
X185241548Y-189164019D01*
X187586786Y-190211638D02*
X187836786Y-188211638D01*
X188705834Y-188878304D02*
X188539167Y-190211638D01*
X188682024Y-189068780D02*
X188789167Y-188973542D01*
X188789167Y-188973542D02*
X188991548Y-188878304D01*
X188991548Y-188878304D02*
X189277262Y-188878304D01*
X189277262Y-188878304D02*
X189455834Y-188973542D01*
X189455834Y-188973542D02*
X189527262Y-189164019D01*
X189527262Y-189164019D02*
X189396310Y-190211638D01*
X190229644Y-188878304D02*
X190991548Y-188878304D01*
X190598691Y-188211638D02*
X190384406Y-189925923D01*
X190384406Y-189925923D02*
X190455834Y-190116400D01*
X190455834Y-190116400D02*
X190634406Y-190211638D01*
X190634406Y-190211638D02*
X190824882Y-190211638D01*
X192265358Y-190116400D02*
X192062977Y-190211638D01*
X192062977Y-190211638D02*
X191682024Y-190211638D01*
X191682024Y-190211638D02*
X191503453Y-190116400D01*
X191503453Y-190116400D02*
X191432024Y-189925923D01*
X191432024Y-189925923D02*
X191527263Y-189164019D01*
X191527263Y-189164019D02*
X191646310Y-188973542D01*
X191646310Y-188973542D02*
X191848691Y-188878304D01*
X191848691Y-188878304D02*
X192229643Y-188878304D01*
X192229643Y-188878304D02*
X192408215Y-188973542D01*
X192408215Y-188973542D02*
X192479643Y-189164019D01*
X192479643Y-189164019D02*
X192455834Y-189354495D01*
X192455834Y-189354495D02*
X191479643Y-189544971D01*
X193205834Y-190211638D02*
X193372501Y-188878304D01*
X193324882Y-189259257D02*
X193443929Y-189068780D01*
X193443929Y-189068780D02*
X193551072Y-188973542D01*
X193551072Y-188973542D02*
X193753453Y-188878304D01*
X193753453Y-188878304D02*
X193943929Y-188878304D01*
X194610596Y-188878304D02*
X194443929Y-190211638D01*
X194586786Y-189068780D02*
X194693929Y-188973542D01*
X194693929Y-188973542D02*
X194896310Y-188878304D01*
X194896310Y-188878304D02*
X195182024Y-188878304D01*
X195182024Y-188878304D02*
X195360596Y-188973542D01*
X195360596Y-188973542D02*
X195432024Y-189164019D01*
X195432024Y-189164019D02*
X195301072Y-190211638D01*
X197027263Y-190116400D02*
X196824882Y-190211638D01*
X196824882Y-190211638D02*
X196443929Y-190211638D01*
X196443929Y-190211638D02*
X196265358Y-190116400D01*
X196265358Y-190116400D02*
X196193929Y-189925923D01*
X196193929Y-189925923D02*
X196289168Y-189164019D01*
X196289168Y-189164019D02*
X196408215Y-188973542D01*
X196408215Y-188973542D02*
X196610596Y-188878304D01*
X196610596Y-188878304D02*
X196991548Y-188878304D01*
X196991548Y-188878304D02*
X197170120Y-188973542D01*
X197170120Y-188973542D02*
X197241548Y-189164019D01*
X197241548Y-189164019D02*
X197217739Y-189354495D01*
X197217739Y-189354495D02*
X196241548Y-189544971D01*
X197848692Y-188878304D02*
X198610596Y-188878304D01*
X198217739Y-188211638D02*
X198003454Y-189925923D01*
X198003454Y-189925923D02*
X198074882Y-190116400D01*
X198074882Y-190116400D02*
X198253454Y-190211638D01*
X198253454Y-190211638D02*
X198443930Y-190211638D01*
X201801073Y-190021161D02*
X201693930Y-190116400D01*
X201693930Y-190116400D02*
X201396311Y-190211638D01*
X201396311Y-190211638D02*
X201205835Y-190211638D01*
X201205835Y-190211638D02*
X200932025Y-190116400D01*
X200932025Y-190116400D02*
X200765359Y-189925923D01*
X200765359Y-189925923D02*
X200693930Y-189735447D01*
X200693930Y-189735447D02*
X200646311Y-189354495D01*
X200646311Y-189354495D02*
X200682025Y-189068780D01*
X200682025Y-189068780D02*
X200824882Y-188687828D01*
X200824882Y-188687828D02*
X200943930Y-188497352D01*
X200943930Y-188497352D02*
X201158216Y-188306876D01*
X201158216Y-188306876D02*
X201455835Y-188211638D01*
X201455835Y-188211638D02*
X201646311Y-188211638D01*
X201646311Y-188211638D02*
X201920121Y-188306876D01*
X201920121Y-188306876D02*
X202003454Y-188402114D01*
X202920121Y-190211638D02*
X202741549Y-190116400D01*
X202741549Y-190116400D02*
X202670121Y-189925923D01*
X202670121Y-189925923D02*
X202884406Y-188211638D01*
X203967740Y-190211638D02*
X203789168Y-190116400D01*
X203789168Y-190116400D02*
X203705835Y-190021161D01*
X203705835Y-190021161D02*
X203634406Y-189830685D01*
X203634406Y-189830685D02*
X203705835Y-189259257D01*
X203705835Y-189259257D02*
X203824882Y-189068780D01*
X203824882Y-189068780D02*
X203932025Y-188973542D01*
X203932025Y-188973542D02*
X204134406Y-188878304D01*
X204134406Y-188878304D02*
X204420120Y-188878304D01*
X204420120Y-188878304D02*
X204598692Y-188973542D01*
X204598692Y-188973542D02*
X204682025Y-189068780D01*
X204682025Y-189068780D02*
X204753454Y-189259257D01*
X204753454Y-189259257D02*
X204682025Y-189830685D01*
X204682025Y-189830685D02*
X204562978Y-190021161D01*
X204562978Y-190021161D02*
X204455835Y-190116400D01*
X204455835Y-190116400D02*
X204253454Y-190211638D01*
X204253454Y-190211638D02*
X203967740Y-190211638D01*
X206360597Y-190116400D02*
X206158216Y-190211638D01*
X206158216Y-190211638D02*
X205777264Y-190211638D01*
X205777264Y-190211638D02*
X205598692Y-190116400D01*
X205598692Y-190116400D02*
X205515359Y-190021161D01*
X205515359Y-190021161D02*
X205443930Y-189830685D01*
X205443930Y-189830685D02*
X205515359Y-189259257D01*
X205515359Y-189259257D02*
X205634406Y-189068780D01*
X205634406Y-189068780D02*
X205741549Y-188973542D01*
X205741549Y-188973542D02*
X205943930Y-188878304D01*
X205943930Y-188878304D02*
X206324883Y-188878304D01*
X206324883Y-188878304D02*
X206503454Y-188973542D01*
X207205835Y-190211638D02*
X207455835Y-188211638D01*
X207491550Y-189449733D02*
X207967740Y-190211638D01*
X208134407Y-188878304D02*
X207277264Y-189640209D01*
D10*
D11*
X178958026Y-185607614D02*
X178458026Y-185607614D01*
X178458026Y-186393328D02*
X178458026Y-184893328D01*
X178458026Y-184893328D02*
X179172312Y-184893328D01*
X179743740Y-186393328D02*
X179743740Y-185393328D01*
X179743740Y-184893328D02*
X179672312Y-184964757D01*
X179672312Y-184964757D02*
X179743740Y-185036185D01*
X179743740Y-185036185D02*
X179815169Y-184964757D01*
X179815169Y-184964757D02*
X179743740Y-184893328D01*
X179743740Y-184893328D02*
X179743740Y-185036185D01*
X180672312Y-186393328D02*
X180529455Y-186321900D01*
X180529455Y-186321900D02*
X180458026Y-186179042D01*
X180458026Y-186179042D02*
X180458026Y-184893328D01*
X181815169Y-186321900D02*
X181672312Y-186393328D01*
X181672312Y-186393328D02*
X181386598Y-186393328D01*
X181386598Y-186393328D02*
X181243740Y-186321900D01*
X181243740Y-186321900D02*
X181172312Y-186179042D01*
X181172312Y-186179042D02*
X181172312Y-185607614D01*
X181172312Y-185607614D02*
X181243740Y-185464757D01*
X181243740Y-185464757D02*
X181386598Y-185393328D01*
X181386598Y-185393328D02*
X181672312Y-185393328D01*
X181672312Y-185393328D02*
X181815169Y-185464757D01*
X181815169Y-185464757D02*
X181886598Y-185607614D01*
X181886598Y-185607614D02*
X181886598Y-185750471D01*
X181886598Y-185750471D02*
X181172312Y-185893328D01*
X182529454Y-186250471D02*
X182600883Y-186321900D01*
X182600883Y-186321900D02*
X182529454Y-186393328D01*
X182529454Y-186393328D02*
X182458026Y-186321900D01*
X182458026Y-186321900D02*
X182529454Y-186250471D01*
X182529454Y-186250471D02*
X182529454Y-186393328D01*
X182529454Y-185464757D02*
X182600883Y-185536185D01*
X182600883Y-185536185D02*
X182529454Y-185607614D01*
X182529454Y-185607614D02*
X182458026Y-185536185D01*
X182458026Y-185536185D02*
X182529454Y-185464757D01*
X182529454Y-185464757D02*
X182529454Y-185607614D01*
X184386597Y-186393328D02*
X184386597Y-185393328D01*
X184386597Y-184893328D02*
X184315169Y-184964757D01*
X184315169Y-184964757D02*
X184386597Y-185036185D01*
X184386597Y-185036185D02*
X184458026Y-184964757D01*
X184458026Y-184964757D02*
X184386597Y-184893328D01*
X184386597Y-184893328D02*
X184386597Y-185036185D01*
X185100883Y-185393328D02*
X185100883Y-186393328D01*
X185100883Y-185536185D02*
X185172312Y-185464757D01*
X185172312Y-185464757D02*
X185315169Y-185393328D01*
X185315169Y-185393328D02*
X185529455Y-185393328D01*
X185529455Y-185393328D02*
X185672312Y-185464757D01*
X185672312Y-185464757D02*
X185743741Y-185607614D01*
X185743741Y-185607614D02*
X185743741Y-186393328D01*
X186243741Y-185393328D02*
X186815169Y-185393328D01*
X186458026Y-184893328D02*
X186458026Y-186179042D01*
X186458026Y-186179042D02*
X186529455Y-186321900D01*
X186529455Y-186321900D02*
X186672312Y-186393328D01*
X186672312Y-186393328D02*
X186815169Y-186393328D01*
X187886598Y-186321900D02*
X187743741Y-186393328D01*
X187743741Y-186393328D02*
X187458027Y-186393328D01*
X187458027Y-186393328D02*
X187315169Y-186321900D01*
X187315169Y-186321900D02*
X187243741Y-186179042D01*
X187243741Y-186179042D02*
X187243741Y-185607614D01*
X187243741Y-185607614D02*
X187315169Y-185464757D01*
X187315169Y-185464757D02*
X187458027Y-185393328D01*
X187458027Y-185393328D02*
X187743741Y-185393328D01*
X187743741Y-185393328D02*
X187886598Y-185464757D01*
X187886598Y-185464757D02*
X187958027Y-185607614D01*
X187958027Y-185607614D02*
X187958027Y-185750471D01*
X187958027Y-185750471D02*
X187243741Y-185893328D01*
X188600883Y-186393328D02*
X188600883Y-185393328D01*
X188600883Y-185679042D02*
X188672312Y-185536185D01*
X188672312Y-185536185D02*
X188743741Y-185464757D01*
X188743741Y-185464757D02*
X188886598Y-185393328D01*
X188886598Y-185393328D02*
X189029455Y-185393328D01*
X189529454Y-185393328D02*
X189529454Y-186393328D01*
X189529454Y-185536185D02*
X189600883Y-185464757D01*
X189600883Y-185464757D02*
X189743740Y-185393328D01*
X189743740Y-185393328D02*
X189958026Y-185393328D01*
X189958026Y-185393328D02*
X190100883Y-185464757D01*
X190100883Y-185464757D02*
X190172312Y-185607614D01*
X190172312Y-185607614D02*
X190172312Y-186393328D01*
X191458026Y-186321900D02*
X191315169Y-186393328D01*
X191315169Y-186393328D02*
X191029455Y-186393328D01*
X191029455Y-186393328D02*
X190886597Y-186321900D01*
X190886597Y-186321900D02*
X190815169Y-186179042D01*
X190815169Y-186179042D02*
X190815169Y-185607614D01*
X190815169Y-185607614D02*
X190886597Y-185464757D01*
X190886597Y-185464757D02*
X191029455Y-185393328D01*
X191029455Y-185393328D02*
X191315169Y-185393328D01*
X191315169Y-185393328D02*
X191458026Y-185464757D01*
X191458026Y-185464757D02*
X191529455Y-185607614D01*
X191529455Y-185607614D02*
X191529455Y-185750471D01*
X191529455Y-185750471D02*
X190815169Y-185893328D01*
X191958026Y-185393328D02*
X192529454Y-185393328D01*
X192172311Y-184893328D02*
X192172311Y-186179042D01*
X192172311Y-186179042D02*
X192243740Y-186321900D01*
X192243740Y-186321900D02*
X192386597Y-186393328D01*
X192386597Y-186393328D02*
X192529454Y-186393328D01*
X192672312Y-186536185D02*
X193815169Y-186536185D01*
X194815169Y-186321900D02*
X194672311Y-186393328D01*
X194672311Y-186393328D02*
X194386597Y-186393328D01*
X194386597Y-186393328D02*
X194243740Y-186321900D01*
X194243740Y-186321900D02*
X194172311Y-186250471D01*
X194172311Y-186250471D02*
X194100883Y-186107614D01*
X194100883Y-186107614D02*
X194100883Y-185679042D01*
X194100883Y-185679042D02*
X194172311Y-185536185D01*
X194172311Y-185536185D02*
X194243740Y-185464757D01*
X194243740Y-185464757D02*
X194386597Y-185393328D01*
X194386597Y-185393328D02*
X194672311Y-185393328D01*
X194672311Y-185393328D02*
X194815169Y-185464757D01*
X195672311Y-186393328D02*
X195529454Y-186321900D01*
X195529454Y-186321900D02*
X195458025Y-186179042D01*
X195458025Y-186179042D02*
X195458025Y-184893328D01*
X196458025Y-186393328D02*
X196315168Y-186321900D01*
X196315168Y-186321900D02*
X196243739Y-186250471D01*
X196243739Y-186250471D02*
X196172311Y-186107614D01*
X196172311Y-186107614D02*
X196172311Y-185679042D01*
X196172311Y-185679042D02*
X196243739Y-185536185D01*
X196243739Y-185536185D02*
X196315168Y-185464757D01*
X196315168Y-185464757D02*
X196458025Y-185393328D01*
X196458025Y-185393328D02*
X196672311Y-185393328D01*
X196672311Y-185393328D02*
X196815168Y-185464757D01*
X196815168Y-185464757D02*
X196886597Y-185536185D01*
X196886597Y-185536185D02*
X196958025Y-185679042D01*
X196958025Y-185679042D02*
X196958025Y-186107614D01*
X196958025Y-186107614D02*
X196886597Y-186250471D01*
X196886597Y-186250471D02*
X196815168Y-186321900D01*
X196815168Y-186321900D02*
X196672311Y-186393328D01*
X196672311Y-186393328D02*
X196458025Y-186393328D01*
X198243740Y-186321900D02*
X198100882Y-186393328D01*
X198100882Y-186393328D02*
X197815168Y-186393328D01*
X197815168Y-186393328D02*
X197672311Y-186321900D01*
X197672311Y-186321900D02*
X197600882Y-186250471D01*
X197600882Y-186250471D02*
X197529454Y-186107614D01*
X197529454Y-186107614D02*
X197529454Y-185679042D01*
X197529454Y-185679042D02*
X197600882Y-185536185D01*
X197600882Y-185536185D02*
X197672311Y-185464757D01*
X197672311Y-185464757D02*
X197815168Y-185393328D01*
X197815168Y-185393328D02*
X198100882Y-185393328D01*
X198100882Y-185393328D02*
X198243740Y-185464757D01*
X198886596Y-186393328D02*
X198886596Y-184893328D01*
X199029454Y-185821900D02*
X199458025Y-186393328D01*
X199458025Y-185393328D02*
X198886596Y-185964757D01*
X199743740Y-186536185D02*
X200886597Y-186536185D01*
X201243739Y-186393328D02*
X201243739Y-184893328D01*
X201886597Y-186393328D02*
X201886597Y-185607614D01*
X201886597Y-185607614D02*
X201815168Y-185464757D01*
X201815168Y-185464757D02*
X201672311Y-185393328D01*
X201672311Y-185393328D02*
X201458025Y-185393328D01*
X201458025Y-185393328D02*
X201315168Y-185464757D01*
X201315168Y-185464757D02*
X201243739Y-185536185D01*
X203243740Y-186393328D02*
X203243740Y-185607614D01*
X203243740Y-185607614D02*
X203172311Y-185464757D01*
X203172311Y-185464757D02*
X203029454Y-185393328D01*
X203029454Y-185393328D02*
X202743740Y-185393328D01*
X202743740Y-185393328D02*
X202600882Y-185464757D01*
X203243740Y-186321900D02*
X203100882Y-186393328D01*
X203100882Y-186393328D02*
X202743740Y-186393328D01*
X202743740Y-186393328D02*
X202600882Y-186321900D01*
X202600882Y-186321900D02*
X202529454Y-186179042D01*
X202529454Y-186179042D02*
X202529454Y-186036185D01*
X202529454Y-186036185D02*
X202600882Y-185893328D01*
X202600882Y-185893328D02*
X202743740Y-185821900D01*
X202743740Y-185821900D02*
X203100882Y-185821900D01*
X203100882Y-185821900D02*
X203243740Y-185750471D01*
X203958025Y-186393328D02*
X203958025Y-185393328D01*
X203958025Y-185679042D02*
X204029454Y-185536185D01*
X204029454Y-185536185D02*
X204100883Y-185464757D01*
X204100883Y-185464757D02*
X204243740Y-185393328D01*
X204243740Y-185393328D02*
X204386597Y-185393328D01*
X205529454Y-186393328D02*
X205529454Y-184893328D01*
X205529454Y-186321900D02*
X205386596Y-186393328D01*
X205386596Y-186393328D02*
X205100882Y-186393328D01*
X205100882Y-186393328D02*
X204958025Y-186321900D01*
X204958025Y-186321900D02*
X204886596Y-186250471D01*
X204886596Y-186250471D02*
X204815168Y-186107614D01*
X204815168Y-186107614D02*
X204815168Y-185679042D01*
X204815168Y-185679042D02*
X204886596Y-185536185D01*
X204886596Y-185536185D02*
X204958025Y-185464757D01*
X204958025Y-185464757D02*
X205100882Y-185393328D01*
X205100882Y-185393328D02*
X205386596Y-185393328D01*
X205386596Y-185393328D02*
X205529454Y-185464757D01*
X206100882Y-185393328D02*
X206386597Y-186393328D01*
X206386597Y-186393328D02*
X206672311Y-185679042D01*
X206672311Y-185679042D02*
X206958025Y-186393328D01*
X206958025Y-186393328D02*
X207243739Y-185393328D01*
X208458026Y-186393328D02*
X208458026Y-185607614D01*
X208458026Y-185607614D02*
X208386597Y-185464757D01*
X208386597Y-185464757D02*
X208243740Y-185393328D01*
X208243740Y-185393328D02*
X207958026Y-185393328D01*
X207958026Y-185393328D02*
X207815168Y-185464757D01*
X208458026Y-186321900D02*
X208315168Y-186393328D01*
X208315168Y-186393328D02*
X207958026Y-186393328D01*
X207958026Y-186393328D02*
X207815168Y-186321900D01*
X207815168Y-186321900D02*
X207743740Y-186179042D01*
X207743740Y-186179042D02*
X207743740Y-186036185D01*
X207743740Y-186036185D02*
X207815168Y-185893328D01*
X207815168Y-185893328D02*
X207958026Y-185821900D01*
X207958026Y-185821900D02*
X208315168Y-185821900D01*
X208315168Y-185821900D02*
X208458026Y-185750471D01*
X209172311Y-186393328D02*
X209172311Y-185393328D01*
X209172311Y-185679042D02*
X209243740Y-185536185D01*
X209243740Y-185536185D02*
X209315169Y-185464757D01*
X209315169Y-185464757D02*
X209458026Y-185393328D01*
X209458026Y-185393328D02*
X209600883Y-185393328D01*
X210672311Y-186321900D02*
X210529454Y-186393328D01*
X210529454Y-186393328D02*
X210243740Y-186393328D01*
X210243740Y-186393328D02*
X210100882Y-186321900D01*
X210100882Y-186321900D02*
X210029454Y-186179042D01*
X210029454Y-186179042D02*
X210029454Y-185607614D01*
X210029454Y-185607614D02*
X210100882Y-185464757D01*
X210100882Y-185464757D02*
X210243740Y-185393328D01*
X210243740Y-185393328D02*
X210529454Y-185393328D01*
X210529454Y-185393328D02*
X210672311Y-185464757D01*
X210672311Y-185464757D02*
X210743740Y-185607614D01*
X210743740Y-185607614D02*
X210743740Y-185750471D01*
X210743740Y-185750471D02*
X210029454Y-185893328D01*
X211386596Y-186250471D02*
X211458025Y-186321900D01*
X211458025Y-186321900D02*
X211386596Y-186393328D01*
X211386596Y-186393328D02*
X211315168Y-186321900D01*
X211315168Y-186321900D02*
X211386596Y-186250471D01*
X211386596Y-186250471D02*
X211386596Y-186393328D01*
X212100882Y-186393328D02*
X212100882Y-184893328D01*
X212243740Y-185821900D02*
X212672311Y-186393328D01*
X212672311Y-185393328D02*
X212100882Y-185964757D01*
X213315168Y-186393328D02*
X213315168Y-185393328D01*
X213315168Y-184893328D02*
X213243740Y-184964757D01*
X213243740Y-184964757D02*
X213315168Y-185036185D01*
X213315168Y-185036185D02*
X213386597Y-184964757D01*
X213386597Y-184964757D02*
X213315168Y-184893328D01*
X213315168Y-184893328D02*
X213315168Y-185036185D01*
X214672312Y-186321900D02*
X214529454Y-186393328D01*
X214529454Y-186393328D02*
X214243740Y-186393328D01*
X214243740Y-186393328D02*
X214100883Y-186321900D01*
X214100883Y-186321900D02*
X214029454Y-186250471D01*
X214029454Y-186250471D02*
X213958026Y-186107614D01*
X213958026Y-186107614D02*
X213958026Y-185679042D01*
X213958026Y-185679042D02*
X214029454Y-185536185D01*
X214029454Y-185536185D02*
X214100883Y-185464757D01*
X214100883Y-185464757D02*
X214243740Y-185393328D01*
X214243740Y-185393328D02*
X214529454Y-185393328D01*
X214529454Y-185393328D02*
X214672312Y-185464757D01*
X215958026Y-186393328D02*
X215958026Y-185607614D01*
X215958026Y-185607614D02*
X215886597Y-185464757D01*
X215886597Y-185464757D02*
X215743740Y-185393328D01*
X215743740Y-185393328D02*
X215458026Y-185393328D01*
X215458026Y-185393328D02*
X215315168Y-185464757D01*
X215958026Y-186321900D02*
X215815168Y-186393328D01*
X215815168Y-186393328D02*
X215458026Y-186393328D01*
X215458026Y-186393328D02*
X215315168Y-186321900D01*
X215315168Y-186321900D02*
X215243740Y-186179042D01*
X215243740Y-186179042D02*
X215243740Y-186036185D01*
X215243740Y-186036185D02*
X215315168Y-185893328D01*
X215315168Y-185893328D02*
X215458026Y-185821900D01*
X215458026Y-185821900D02*
X215815168Y-185821900D01*
X215815168Y-185821900D02*
X215958026Y-185750471D01*
X217315169Y-186393328D02*
X217315169Y-184893328D01*
X217315169Y-186321900D02*
X217172311Y-186393328D01*
X217172311Y-186393328D02*
X216886597Y-186393328D01*
X216886597Y-186393328D02*
X216743740Y-186321900D01*
X216743740Y-186321900D02*
X216672311Y-186250471D01*
X216672311Y-186250471D02*
X216600883Y-186107614D01*
X216600883Y-186107614D02*
X216600883Y-185679042D01*
X216600883Y-185679042D02*
X216672311Y-185536185D01*
X216672311Y-185536185D02*
X216743740Y-185464757D01*
X216743740Y-185464757D02*
X216886597Y-185393328D01*
X216886597Y-185393328D02*
X217172311Y-185393328D01*
X217172311Y-185393328D02*
X217315169Y-185464757D01*
X217672312Y-186536185D02*
X218815169Y-186536185D01*
X219172311Y-185393328D02*
X219172311Y-186893328D01*
X219172311Y-185464757D02*
X219315169Y-185393328D01*
X219315169Y-185393328D02*
X219600883Y-185393328D01*
X219600883Y-185393328D02*
X219743740Y-185464757D01*
X219743740Y-185464757D02*
X219815169Y-185536185D01*
X219815169Y-185536185D02*
X219886597Y-185679042D01*
X219886597Y-185679042D02*
X219886597Y-186107614D01*
X219886597Y-186107614D02*
X219815169Y-186250471D01*
X219815169Y-186250471D02*
X219743740Y-186321900D01*
X219743740Y-186321900D02*
X219600883Y-186393328D01*
X219600883Y-186393328D02*
X219315169Y-186393328D01*
X219315169Y-186393328D02*
X219172311Y-186321900D01*
X221172312Y-186321900D02*
X221029454Y-186393328D01*
X221029454Y-186393328D02*
X220743740Y-186393328D01*
X220743740Y-186393328D02*
X220600883Y-186321900D01*
X220600883Y-186321900D02*
X220529454Y-186250471D01*
X220529454Y-186250471D02*
X220458026Y-186107614D01*
X220458026Y-186107614D02*
X220458026Y-185679042D01*
X220458026Y-185679042D02*
X220529454Y-185536185D01*
X220529454Y-185536185D02*
X220600883Y-185464757D01*
X220600883Y-185464757D02*
X220743740Y-185393328D01*
X220743740Y-185393328D02*
X221029454Y-185393328D01*
X221029454Y-185393328D02*
X221172312Y-185464757D01*
X221815168Y-186393328D02*
X221815168Y-184893328D01*
X221815168Y-185464757D02*
X221958026Y-185393328D01*
X221958026Y-185393328D02*
X222243740Y-185393328D01*
X222243740Y-185393328D02*
X222386597Y-185464757D01*
X222386597Y-185464757D02*
X222458026Y-185536185D01*
X222458026Y-185536185D02*
X222529454Y-185679042D01*
X222529454Y-185679042D02*
X222529454Y-186107614D01*
X222529454Y-186107614D02*
X222458026Y-186250471D01*
X222458026Y-186250471D02*
X222386597Y-186321900D01*
X222386597Y-186321900D02*
X222243740Y-186393328D01*
X222243740Y-186393328D02*
X221958026Y-186393328D01*
X221958026Y-186393328D02*
X221815168Y-186321900D01*
D10*
D11*
X177002200Y-181507200D02*
X285002200Y-181507200D01*
D10*
D11*
X178386598Y-183621900D02*
X178600884Y-183693328D01*
X178600884Y-183693328D02*
X178958026Y-183693328D01*
X178958026Y-183693328D02*
X179100884Y-183621900D01*
X179100884Y-183621900D02*
X179172312Y-183550471D01*
X179172312Y-183550471D02*
X179243741Y-183407614D01*
X179243741Y-183407614D02*
X179243741Y-183264757D01*
X179243741Y-183264757D02*
X179172312Y-183121900D01*
X179172312Y-183121900D02*
X179100884Y-183050471D01*
X179100884Y-183050471D02*
X178958026Y-182979042D01*
X178958026Y-182979042D02*
X178672312Y-182907614D01*
X178672312Y-182907614D02*
X178529455Y-182836185D01*
X178529455Y-182836185D02*
X178458026Y-182764757D01*
X178458026Y-182764757D02*
X178386598Y-182621900D01*
X178386598Y-182621900D02*
X178386598Y-182479042D01*
X178386598Y-182479042D02*
X178458026Y-182336185D01*
X178458026Y-182336185D02*
X178529455Y-182264757D01*
X178529455Y-182264757D02*
X178672312Y-182193328D01*
X178672312Y-182193328D02*
X179029455Y-182193328D01*
X179029455Y-182193328D02*
X179243741Y-182264757D01*
X179886597Y-183693328D02*
X179886597Y-182193328D01*
X180529455Y-183693328D02*
X180529455Y-182907614D01*
X180529455Y-182907614D02*
X180458026Y-182764757D01*
X180458026Y-182764757D02*
X180315169Y-182693328D01*
X180315169Y-182693328D02*
X180100883Y-182693328D01*
X180100883Y-182693328D02*
X179958026Y-182764757D01*
X179958026Y-182764757D02*
X179886597Y-182836185D01*
X181815169Y-183621900D02*
X181672312Y-183693328D01*
X181672312Y-183693328D02*
X181386598Y-183693328D01*
X181386598Y-183693328D02*
X181243740Y-183621900D01*
X181243740Y-183621900D02*
X181172312Y-183479042D01*
X181172312Y-183479042D02*
X181172312Y-182907614D01*
X181172312Y-182907614D02*
X181243740Y-182764757D01*
X181243740Y-182764757D02*
X181386598Y-182693328D01*
X181386598Y-182693328D02*
X181672312Y-182693328D01*
X181672312Y-182693328D02*
X181815169Y-182764757D01*
X181815169Y-182764757D02*
X181886598Y-182907614D01*
X181886598Y-182907614D02*
X181886598Y-183050471D01*
X181886598Y-183050471D02*
X181172312Y-183193328D01*
X183100883Y-183621900D02*
X182958026Y-183693328D01*
X182958026Y-183693328D02*
X182672312Y-183693328D01*
X182672312Y-183693328D02*
X182529454Y-183621900D01*
X182529454Y-183621900D02*
X182458026Y-183479042D01*
X182458026Y-183479042D02*
X182458026Y-182907614D01*
X182458026Y-182907614D02*
X182529454Y-182764757D01*
X182529454Y-182764757D02*
X182672312Y-182693328D01*
X182672312Y-182693328D02*
X182958026Y-182693328D01*
X182958026Y-182693328D02*
X183100883Y-182764757D01*
X183100883Y-182764757D02*
X183172312Y-182907614D01*
X183172312Y-182907614D02*
X183172312Y-183050471D01*
X183172312Y-183050471D02*
X182458026Y-183193328D01*
X183600883Y-182693328D02*
X184172311Y-182693328D01*
X183815168Y-182193328D02*
X183815168Y-183479042D01*
X183815168Y-183479042D02*
X183886597Y-183621900D01*
X183886597Y-183621900D02*
X184029454Y-183693328D01*
X184029454Y-183693328D02*
X184172311Y-183693328D01*
X184672311Y-183550471D02*
X184743740Y-183621900D01*
X184743740Y-183621900D02*
X184672311Y-183693328D01*
X184672311Y-183693328D02*
X184600883Y-183621900D01*
X184600883Y-183621900D02*
X184672311Y-183550471D01*
X184672311Y-183550471D02*
X184672311Y-183693328D01*
X184672311Y-182764757D02*
X184743740Y-182836185D01*
X184743740Y-182836185D02*
X184672311Y-182907614D01*
X184672311Y-182907614D02*
X184600883Y-182836185D01*
X184600883Y-182836185D02*
X184672311Y-182764757D01*
X184672311Y-182764757D02*
X184672311Y-182907614D01*
D10*
D12*
X179056710Y-179899814D02*
X178556710Y-179899814D01*
X178556710Y-180685528D02*
X178556710Y-179185528D01*
X178556710Y-179185528D02*
X179270996Y-179185528D01*
X180056710Y-180685528D02*
X179913853Y-180614100D01*
X179913853Y-180614100D02*
X179842424Y-180471242D01*
X179842424Y-180471242D02*
X179842424Y-179185528D01*
X181270996Y-180685528D02*
X181270996Y-179899814D01*
X181270996Y-179899814D02*
X181199567Y-179756957D01*
X181199567Y-179756957D02*
X181056710Y-179685528D01*
X181056710Y-179685528D02*
X180770996Y-179685528D01*
X180770996Y-179685528D02*
X180628138Y-179756957D01*
X181270996Y-180614100D02*
X181128138Y-180685528D01*
X181128138Y-180685528D02*
X180770996Y-180685528D01*
X180770996Y-180685528D02*
X180628138Y-180614100D01*
X180628138Y-180614100D02*
X180556710Y-180471242D01*
X180556710Y-180471242D02*
X180556710Y-180328385D01*
X180556710Y-180328385D02*
X180628138Y-180185528D01*
X180628138Y-180185528D02*
X180770996Y-180114100D01*
X180770996Y-180114100D02*
X181128138Y-180114100D01*
X181128138Y-180114100D02*
X181270996Y-180042671D01*
X181842424Y-179685528D02*
X182199567Y-180685528D01*
X182199567Y-180685528D02*
X182556710Y-179685528D01*
X183128138Y-180685528D02*
X183128138Y-179685528D01*
X183128138Y-179185528D02*
X183056710Y-179256957D01*
X183056710Y-179256957D02*
X183128138Y-179328385D01*
X183128138Y-179328385D02*
X183199567Y-179256957D01*
X183199567Y-179256957D02*
X183128138Y-179185528D01*
X183128138Y-179185528D02*
X183128138Y-179328385D01*
X184485282Y-180685528D02*
X184485282Y-179899814D01*
X184485282Y-179899814D02*
X184413853Y-179756957D01*
X184413853Y-179756957D02*
X184270996Y-179685528D01*
X184270996Y-179685528D02*
X183985282Y-179685528D01*
X183985282Y-179685528D02*
X183842424Y-179756957D01*
X184485282Y-180614100D02*
X184342424Y-180685528D01*
X184342424Y-180685528D02*
X183985282Y-180685528D01*
X183985282Y-180685528D02*
X183842424Y-180614100D01*
X183842424Y-180614100D02*
X183770996Y-180471242D01*
X183770996Y-180471242D02*
X183770996Y-180328385D01*
X183770996Y-180328385D02*
X183842424Y-180185528D01*
X183842424Y-180185528D02*
X183985282Y-180114100D01*
X183985282Y-180114100D02*
X184342424Y-180114100D01*
X184342424Y-180114100D02*
X184485282Y-180042671D01*
X185199567Y-179685528D02*
X185199567Y-180685528D01*
X185199567Y-179828385D02*
X185270996Y-179756957D01*
X185270996Y-179756957D02*
X185413853Y-179685528D01*
X185413853Y-179685528D02*
X185628139Y-179685528D01*
X185628139Y-179685528D02*
X185770996Y-179756957D01*
X185770996Y-179756957D02*
X185842425Y-179899814D01*
X185842425Y-179899814D02*
X185842425Y-180685528D01*
X187699567Y-180685528D02*
X187699567Y-179185528D01*
X188556710Y-180685528D02*
X187913853Y-179828385D01*
X188556710Y-179185528D02*
X187699567Y-180042671D01*
X189842425Y-180685528D02*
X189842425Y-179899814D01*
X189842425Y-179899814D02*
X189770996Y-179756957D01*
X189770996Y-179756957D02*
X189628139Y-179685528D01*
X189628139Y-179685528D02*
X189342425Y-179685528D01*
X189342425Y-179685528D02*
X189199567Y-179756957D01*
X189842425Y-180614100D02*
X189699567Y-180685528D01*
X189699567Y-180685528D02*
X189342425Y-180685528D01*
X189342425Y-180685528D02*
X189199567Y-180614100D01*
X189199567Y-180614100D02*
X189128139Y-180471242D01*
X189128139Y-180471242D02*
X189128139Y-180328385D01*
X189128139Y-180328385D02*
X189199567Y-180185528D01*
X189199567Y-180185528D02*
X189342425Y-180114100D01*
X189342425Y-180114100D02*
X189699567Y-180114100D01*
X189699567Y-180114100D02*
X189842425Y-180042671D01*
X191199568Y-179685528D02*
X191199568Y-180685528D01*
X190556710Y-179685528D02*
X190556710Y-180471242D01*
X190556710Y-180471242D02*
X190628139Y-180614100D01*
X190628139Y-180614100D02*
X190770996Y-180685528D01*
X190770996Y-180685528D02*
X190985282Y-180685528D01*
X190985282Y-180685528D02*
X191128139Y-180614100D01*
X191128139Y-180614100D02*
X191199568Y-180542671D01*
X191699568Y-179685528D02*
X192270996Y-179685528D01*
X191913853Y-180685528D02*
X191913853Y-179399814D01*
X191913853Y-179399814D02*
X191985282Y-179256957D01*
X191985282Y-179256957D02*
X192128139Y-179185528D01*
X192128139Y-179185528D02*
X192270996Y-179185528D01*
X192770996Y-180685528D02*
X192770996Y-179685528D01*
X192770996Y-179828385D02*
X192842425Y-179756957D01*
X192842425Y-179756957D02*
X192985282Y-179685528D01*
X192985282Y-179685528D02*
X193199568Y-179685528D01*
X193199568Y-179685528D02*
X193342425Y-179756957D01*
X193342425Y-179756957D02*
X193413854Y-179899814D01*
X193413854Y-179899814D02*
X193413854Y-180685528D01*
X193413854Y-179899814D02*
X193485282Y-179756957D01*
X193485282Y-179756957D02*
X193628139Y-179685528D01*
X193628139Y-179685528D02*
X193842425Y-179685528D01*
X193842425Y-179685528D02*
X193985282Y-179756957D01*
X193985282Y-179756957D02*
X194056711Y-179899814D01*
X194056711Y-179899814D02*
X194056711Y-180685528D01*
X195413854Y-180685528D02*
X195413854Y-179899814D01*
X195413854Y-179899814D02*
X195342425Y-179756957D01*
X195342425Y-179756957D02*
X195199568Y-179685528D01*
X195199568Y-179685528D02*
X194913854Y-179685528D01*
X194913854Y-179685528D02*
X194770996Y-179756957D01*
X195413854Y-180614100D02*
X195270996Y-180685528D01*
X195270996Y-180685528D02*
X194913854Y-180685528D01*
X194913854Y-180685528D02*
X194770996Y-180614100D01*
X194770996Y-180614100D02*
X194699568Y-180471242D01*
X194699568Y-180471242D02*
X194699568Y-180328385D01*
X194699568Y-180328385D02*
X194770996Y-180185528D01*
X194770996Y-180185528D02*
X194913854Y-180114100D01*
X194913854Y-180114100D02*
X195270996Y-180114100D01*
X195270996Y-180114100D02*
X195413854Y-180042671D01*
X196128139Y-179685528D02*
X196128139Y-180685528D01*
X196128139Y-179828385D02*
X196199568Y-179756957D01*
X196199568Y-179756957D02*
X196342425Y-179685528D01*
X196342425Y-179685528D02*
X196556711Y-179685528D01*
X196556711Y-179685528D02*
X196699568Y-179756957D01*
X196699568Y-179756957D02*
X196770997Y-179899814D01*
X196770997Y-179899814D02*
X196770997Y-180685528D01*
X197485282Y-179685528D02*
X197485282Y-180685528D01*
X197485282Y-179828385D02*
X197556711Y-179756957D01*
X197556711Y-179756957D02*
X197699568Y-179685528D01*
X197699568Y-179685528D02*
X197913854Y-179685528D01*
X197913854Y-179685528D02*
X198056711Y-179756957D01*
X198056711Y-179756957D02*
X198128140Y-179899814D01*
X198128140Y-179899814D02*
X198128140Y-180685528D01*
D10*
D11*
D10*
D11*
D10*
D11*
D10*
D11*
D10*
D11*
X197002200Y-191507200D02*
X197002200Y-194507200D01*
D10*
D11*
X261002200Y-191507200D02*
X261002200Y-198007200D01*
D14*
%TO.P,C2,1*%
%TO.N,+5V*%
X217170000Y-76200000D03*
%TO.P,C2,2*%
%TO.N,GND*%
X219670000Y-76200000D03*
%TD*%
D15*
%TO.P,R1,1*%
%TO.N,Net-(R1-Pad1)*%
X147320000Y-106680000D03*
D16*
%TO.P,R1,2*%
%TO.N,Net-(U1-BRIGHTNESS_CONTROL)*%
X157480000Y-106680000D03*
%TD*%
D17*
%TO.P,RV1,1,1*%
%TO.N,+5V*%
X142280000Y-102870000D03*
%TO.P,RV1,2,2*%
X144780000Y-102870000D03*
%TO.P,RV1,3,3*%
%TO.N,Net-(R1-Pad1)*%
X147280000Y-102870000D03*
D18*
%TO.P,RV1,MP,MountPin*%
%TO.N,GND*%
X140380000Y-95870000D03*
X149180000Y-95870000D03*
%TD*%
D14*
%TO.P,C4,1*%
%TO.N,+5V*%
X210820000Y-109220000D03*
%TO.P,C4,2*%
%TO.N,GND*%
X213320000Y-109220000D03*
%TD*%
D19*
%TO.P,D5,1,K*%
%TO.N,/DP1*%
X175260000Y-74612000D03*
D17*
%TO.P,D5,2,A*%
%TO.N,+5V*%
X175260000Y-72072000D03*
%TD*%
D20*
%TO.P,D3,1,K_E*%
%TO.N,/D3_E*%
X182880000Y-84772000D03*
D21*
%TO.P,D3,2,K_D*%
%TO.N,/D3_D*%
X185420000Y-84772000D03*
%TO.P,D3,3,COM_A_1*%
%TO.N,+5V*%
X187960000Y-84772000D03*
%TO.P,D3,4,K_C*%
%TO.N,/D3_C*%
X190500000Y-84772000D03*
%TO.P,D3,5,K_DP*%
%TO.N,/D3_DP*%
X193040000Y-84772000D03*
%TO.P,D3,6,K_B*%
%TO.N,/D3_B*%
X193040000Y-69772000D03*
%TO.P,D3,7,K_A*%
%TO.N,/D3_A*%
X190500000Y-69772000D03*
%TO.P,D3,8,COM_A_2*%
%TO.N,+5V*%
X187960000Y-69772000D03*
%TO.P,D3,9,K_F*%
%TO.N,/D3_F*%
X185420000Y-69772000D03*
%TO.P,D3,10,K_G*%
%TO.N,/D3_G*%
X182880000Y-69772000D03*
%TD*%
D22*
%TO.P,RV2,1,1*%
%TO.N,+5V*%
X147290000Y-100330000D03*
%TO.P,RV2,2,2*%
X144750000Y-97790000D03*
%TO.P,RV2,3,3*%
%TO.N,Net-(R1-Pad1)*%
X142210000Y-100330000D03*
%TD*%
D23*
%TO.P,U1,1,VSS*%
%TO.N,GND*%
X162560000Y-106680000D03*
D24*
%TO.P,U1,2,OUTPUT_BIT_17*%
%TO.N,/D1_G*%
X165100000Y-106680000D03*
%TO.P,U1,3,OUTPUT_BIT_16*%
%TO.N,/D1_F*%
X167640000Y-106680000D03*
%TO.P,U1,4,OUTPUT_BIT_15*%
%TO.N,/D1_A*%
X170180000Y-106680000D03*
%TO.P,U1,5,OUTPUT_BIT_14*%
%TO.N,/D1_B*%
X172720000Y-106680000D03*
%TO.P,U1,6,OUTPUT_BIT_13*%
%TO.N,/D1_E*%
X175260000Y-106680000D03*
%TO.P,U1,7,OUTPUT_BIT_12*%
%TO.N,/D1_D*%
X177800000Y-106680000D03*
%TO.P,U1,8,OUTPUT_BIT_11*%
%TO.N,/D1_C*%
X180340000Y-106680000D03*
%TO.P,U1,9,OUTPUT_BIT_10*%
%TO.N,/D1_DP*%
X182880000Y-106680000D03*
%TO.P,U1,10,OUTPUT_BIT_9*%
%TO.N,/D2_G*%
X185420000Y-106680000D03*
%TO.P,U1,11,OUTPUT_BIT_8*%
%TO.N,/D2_F*%
X187960000Y-106680000D03*
%TO.P,U1,12,OUTPUT_BIT_7*%
%TO.N,/D2_A*%
X190500000Y-106680000D03*
%TO.P,U1,13,OUTPUT_BIT_6*%
%TO.N,/D2_B*%
X193040000Y-106680000D03*
%TO.P,U1,14,OUTPUT_BIT_5*%
%TO.N,/D2_E*%
X195580000Y-106680000D03*
%TO.P,U1,15,OUTPUT_BIT_4*%
%TO.N,/D2_D*%
X198120000Y-106680000D03*
%TO.P,U1,16,OUTPUT_BIT_3*%
%TO.N,/D2_C*%
X200660000Y-106680000D03*
%TO.P,U1,17,OUTPUT_BIT_2*%
%TO.N,/D2_DP*%
X203200000Y-106680000D03*
%TO.P,U1,18,OUTPUT_BIT_1*%
%TO.N,unconnected-(U1-OUTPUT_BIT_1-Pad18)*%
X205740000Y-106680000D03*
%TO.P,U1,19,BRIGHTNESS_CONTROL*%
%TO.N,Net-(U1-BRIGHTNESS_CONTROL)*%
X208280000Y-106680000D03*
%TO.P,U1,20,VDD*%
%TO.N,+5V*%
X210820000Y-106680000D03*
%TO.P,U1,21,CLOCK_IN*%
%TO.N,/CLK*%
X210820000Y-91122000D03*
%TO.P,U1,22,DATA_IN*%
%TO.N,/DATA*%
X208280000Y-91122000D03*
%TO.P,U1,23,OUTPUT_BIT_35*%
%TO.N,/D4_B*%
X205740000Y-91122000D03*
%TO.P,U1,24,OUTPUT_BIT_34*%
%TO.N,/D4_A*%
X203200000Y-91122000D03*
%TO.P,U1,25,OUTPUT_BIT_33*%
%TO.N,/D4_F*%
X200660000Y-91122000D03*
%TO.P,U1,26,OUTPUT_BIT_32*%
%TO.N,/D4_G*%
X198120000Y-91122000D03*
%TO.P,U1,27,OUTPUT_BIT_31*%
%TO.N,/D4_DP*%
X195580000Y-91122000D03*
%TO.P,U1,28,OUTPUT_BIT_30*%
%TO.N,/D4_C*%
X193040000Y-91122000D03*
%TO.P,U1,29,OUTPUT_BIT_29*%
%TO.N,/D4_D*%
X190500000Y-91122000D03*
%TO.P,U1,30,OUTPUT_BIT_28*%
%TO.N,/D4_E*%
X187960000Y-91122000D03*
%TO.P,U1,31,OUTPUT_BIT_27*%
%TO.N,/D3_B*%
X185420000Y-91122000D03*
%TO.P,U1,32,OUTPUT_BIT_26*%
%TO.N,/D3_A*%
X182880000Y-91122000D03*
%TO.P,U1,33,OUTPUT_BIT_25*%
%TO.N,/D3_F*%
X180340000Y-91122000D03*
%TO.P,U1,34,OUTPUT_BIT_24*%
%TO.N,/D3_G*%
X177800000Y-91122000D03*
%TO.P,U1,35,OUTPUT_BIT_23*%
%TO.N,/D3_DP*%
X175260000Y-91122000D03*
%TO.P,U1,36,OUTPUT_BIT_22*%
%TO.N,/D3_C*%
X172720000Y-91122000D03*
%TO.P,U1,37,OUTPUT_BIT_21*%
%TO.N,/D3_D*%
X170180000Y-91122000D03*
%TO.P,U1,38,OUTPUT_BIT_20*%
%TO.N,/D3_E*%
X167640000Y-91122000D03*
%TO.P,U1,39,OUTPUT_BIT_19*%
%TO.N,/DP2*%
X165100000Y-91122000D03*
%TO.P,U1,40,OUTPUT_BIT_18*%
%TO.N,/DP1*%
X162560000Y-91122000D03*
%TD*%
D19*
%TO.P,D6,1,K*%
%TO.N,/DP2*%
X175260000Y-82232000D03*
D17*
%TO.P,D6,2,A*%
%TO.N,+5V*%
X175260000Y-79692000D03*
%TD*%
D25*
%TO.P,C5,1*%
%TO.N,+5V*%
X218440000Y-106680000D03*
D15*
%TO.P,C5,2*%
%TO.N,GND*%
X218440000Y-108680000D03*
%TD*%
D25*
%TO.P,C3,1*%
%TO.N,+5V*%
X218440000Y-69850000D03*
D15*
%TO.P,C3,2*%
%TO.N,GND*%
X218440000Y-71850000D03*
%TD*%
D20*
%TO.P,D4,1,K_E*%
%TO.N,/D4_E*%
X200660000Y-84772000D03*
D21*
%TO.P,D4,2,K_D*%
%TO.N,/D4_D*%
X203200000Y-84772000D03*
%TO.P,D4,3,COM_A_1*%
%TO.N,+5V*%
X205740000Y-84772000D03*
%TO.P,D4,4,K_C*%
%TO.N,/D4_C*%
X208280000Y-84772000D03*
%TO.P,D4,5,K_DP*%
%TO.N,/D4_DP*%
X210820000Y-84772000D03*
%TO.P,D4,6,K_B*%
%TO.N,/D4_B*%
X210820000Y-69772000D03*
%TO.P,D4,7,K_A*%
%TO.N,/D4_A*%
X208280000Y-69772000D03*
%TO.P,D4,8,COM_A_2*%
%TO.N,+5V*%
X205740000Y-69772000D03*
%TO.P,D4,9,K_F*%
%TO.N,/D4_F*%
X203200000Y-69772000D03*
%TO.P,D4,10,K_G*%
%TO.N,/D4_G*%
X200660000Y-69772000D03*
%TD*%
D14*
%TO.P,C1,1*%
%TO.N,Net-(U1-BRIGHTNESS_CONTROL)*%
X157480000Y-102870000D03*
%TO.P,C1,2*%
%TO.N,GND*%
X157480000Y-100370000D03*
%TD*%
D20*
%TO.P,D1,1,K_E*%
%TO.N,/D1_E*%
X139700000Y-84772000D03*
D21*
%TO.P,D1,2,K_D*%
%TO.N,/D1_D*%
X142240000Y-84772000D03*
%TO.P,D1,3,COM_A_1*%
%TO.N,+5V*%
X144780000Y-84772000D03*
%TO.P,D1,4,K_C*%
%TO.N,/D1_C*%
X147320000Y-84772000D03*
%TO.P,D1,5,K_DP*%
%TO.N,/D1_DP*%
X149860000Y-84772000D03*
%TO.P,D1,6,K_B*%
%TO.N,/D1_B*%
X149860000Y-69772000D03*
%TO.P,D1,7,K_A*%
%TO.N,/D1_A*%
X147320000Y-69772000D03*
%TO.P,D1,8,COM_A_2*%
%TO.N,+5V*%
X144780000Y-69772000D03*
%TO.P,D1,9,K_F*%
%TO.N,/D1_F*%
X142240000Y-69772000D03*
%TO.P,D1,10,K_G*%
%TO.N,/D1_G*%
X139700000Y-69772000D03*
%TD*%
D20*
%TO.P,D2,1,K_E*%
%TO.N,/D2_E*%
X157480000Y-84772000D03*
D21*
%TO.P,D2,2,K_D*%
%TO.N,/D2_D*%
X160020000Y-84772000D03*
%TO.P,D2,3,COM_A_1*%
%TO.N,+5V*%
X162560000Y-84772000D03*
%TO.P,D2,4,K_C*%
%TO.N,/D2_C*%
X165100000Y-84772000D03*
%TO.P,D2,5,K_DP*%
%TO.N,/D2_DP*%
X167640000Y-84772000D03*
%TO.P,D2,6,K_B*%
%TO.N,/D2_B*%
X167640000Y-69772000D03*
%TO.P,D2,7,K_A*%
%TO.N,/D2_A*%
X165100000Y-69772000D03*
%TO.P,D2,8,COM_A_2*%
%TO.N,+5V*%
X162560000Y-69772000D03*
%TO.P,D2,9,K_F*%
%TO.N,/D2_F*%
X160020000Y-69772000D03*
%TO.P,D2,10,K_G*%
%TO.N,/D2_G*%
X157480000Y-69772000D03*
%TD*%
D25*
%TO.P,A1,1,~{RESET}*%
%TO.N,unconnected-(A1-~{RESET}-Pad1)*%
X220980000Y-101600000D03*
D15*
%TO.P,A1,2,3V3*%
%TO.N,unconnected-(A1-3V3-Pad2)*%
X218440000Y-101600000D03*
%TO.P,A1,3,NC*%
%TO.N,unconnected-(A1-NC-Pad3)*%
X215900000Y-101600000D03*
%TO.P,A1,4,GND*%
%TO.N,GND*%
X213360000Y-101600000D03*
%TO.P,A1,5,A0*%
%TO.N,/CLK*%
X210820000Y-101600000D03*
%TO.P,A1,6,A1*%
%TO.N,/DATA*%
X208280000Y-101600000D03*
%TO.P,A1,7,A2*%
%TO.N,unconnected-(A1-A2-Pad7)*%
X205740000Y-101600000D03*
%TO.P,A1,8,A3*%
%TO.N,unconnected-(A1-A3-Pad8)*%
X203200000Y-101600000D03*
%TO.P,A1,9,A4*%
%TO.N,unconnected-(A1-A4-Pad9)*%
X200660000Y-101600000D03*
%TO.P,A1,10,A5*%
%TO.N,unconnected-(A1-A5-Pad10)*%
X198120000Y-101600000D03*
%TO.P,A1,11,SCK*%
%TO.N,unconnected-(A1-SCK-Pad11)*%
X195580000Y-101600000D03*
%TO.P,A1,12,MOSI*%
%TO.N,unconnected-(A1-MOSI-Pad12)*%
X193040000Y-101600000D03*
%TO.P,A1,13,MISO*%
%TO.N,unconnected-(A1-MISO-Pad13)*%
X190500000Y-101600000D03*
%TO.P,A1,14,RX*%
%TO.N,unconnected-(A1-RX-Pad14)*%
X187960000Y-101600000D03*
%TO.P,A1,15,TX*%
%TO.N,unconnected-(A1-TX-Pad15)*%
X185420000Y-101600000D03*
%TO.P,A1,16,D37*%
%TO.N,unconnected-(A1-D37-Pad16)*%
X182880000Y-101600000D03*
%TO.P,A1,17,SDA*%
%TO.N,unconnected-(A1-SDA-Pad17)*%
X182880000Y-81280000D03*
%TO.P,A1,18,SCL*%
%TO.N,unconnected-(A1-SCL-Pad18)*%
X185420000Y-81280000D03*
%TO.P,A1,19,D14*%
%TO.N,unconnected-(A1-D14-Pad19)*%
X187960000Y-81280000D03*
%TO.P,A1,20,D32*%
%TO.N,unconnected-(A1-D32-Pad20)*%
X190500000Y-81280000D03*
%TO.P,A1,21,D15*%
%TO.N,unconnected-(A1-D15-Pad21)*%
X193040000Y-81280000D03*
%TO.P,A1,22,D33*%
%TO.N,unconnected-(A1-D33-Pad22)*%
X195580000Y-81280000D03*
%TO.P,A1,23,D27*%
%TO.N,unconnected-(A1-D27-Pad23)*%
X198120000Y-81280000D03*
%TO.P,A1,24,D12*%
%TO.N,unconnected-(A1-D12-Pad24)*%
X200660000Y-81280000D03*
%TO.P,A1,25,LED*%
%TO.N,unconnected-(A1-LED-Pad25)*%
X203200000Y-81280000D03*
%TO.P,A1,26,USB*%
%TO.N,+5V*%
X205740000Y-81280000D03*
%TO.P,A1,27,EN*%
%TO.N,unconnected-(A1-EN-Pad27)*%
X208280000Y-81280000D03*
%TO.P,A1,28,VBAT*%
%TO.N,unconnected-(A1-VBAT-Pad28)*%
X210820000Y-81280000D03*
%TD*%
D26*
%TO.N,/CLK*%
X210820000Y-101600000D02*
X210820000Y-91122000D01*
%TO.N,/DATA*%
X208280000Y-101600000D02*
X208280000Y-91122000D01*
D27*
%TO.N,+5V*%
X181908000Y-83522000D02*
X180340000Y-81954000D01*
X219710000Y-106680000D02*
X223520000Y-102870000D01*
X140740000Y-101370000D02*
X140740000Y-99721106D01*
X204490000Y-68522000D02*
X205740000Y-69772000D01*
X146030000Y-68522000D02*
X144780000Y-69772000D01*
X215900000Y-69792000D02*
X214630000Y-68522000D01*
X195522000Y-68522000D02*
X189210000Y-68522000D01*
X218440000Y-106680000D02*
X219710000Y-106680000D01*
X210820000Y-106680000D02*
X218440000Y-106680000D01*
X196850000Y-72390000D02*
X196850000Y-69850000D01*
X189210000Y-68522000D02*
X182880000Y-68522000D01*
X217170000Y-68522000D02*
X214630000Y-68522000D01*
X210820000Y-109220000D02*
X210820000Y-106680000D01*
X222192000Y-68522000D02*
X217170000Y-68522000D01*
X196850000Y-69850000D02*
X198178000Y-68522000D01*
X140740000Y-99721106D02*
X141601106Y-98860000D01*
X144750000Y-97790000D02*
X147290000Y-100330000D01*
X223520000Y-102870000D02*
X223520000Y-69850000D01*
X163810000Y-68522000D02*
X152400000Y-68522000D01*
X182362233Y-68522000D02*
X180340000Y-70544233D01*
X171450000Y-68522000D02*
X163810000Y-68522000D01*
X142240000Y-102870000D02*
X140740000Y-101370000D01*
X218440000Y-69850000D02*
X218440000Y-69792000D01*
X218440000Y-69792000D02*
X217170000Y-68522000D01*
X142280000Y-105450000D02*
X145655000Y-108825000D01*
X215900000Y-74930000D02*
X215900000Y-69792000D01*
X205740000Y-81280000D02*
X205740000Y-84772000D01*
X162560000Y-77412000D02*
X162560000Y-84772000D01*
X152400000Y-69499436D02*
X144780000Y-77119436D01*
X180340000Y-70544233D02*
X180340000Y-73660000D01*
X142280000Y-102870000D02*
X144780000Y-102870000D01*
X180340000Y-73660000D02*
X180340000Y-81280000D01*
X143680000Y-98860000D02*
X144750000Y-97790000D01*
X144780000Y-77119436D02*
X144780000Y-84772000D01*
X186710000Y-83522000D02*
X187960000Y-84772000D01*
X142280000Y-102870000D02*
X142240000Y-102870000D01*
X223520000Y-69850000D02*
X222192000Y-68522000D01*
X141601106Y-98860000D02*
X143680000Y-98860000D01*
X152400000Y-68522000D02*
X146030000Y-68522000D01*
X198178000Y-68522000D02*
X204490000Y-68522000D01*
X178810000Y-68522000D02*
X175260000Y-72072000D01*
X145655000Y-108825000D02*
X208675000Y-108825000D01*
X178810000Y-68522000D02*
X171450000Y-68522000D01*
X171450000Y-68522000D02*
X162560000Y-77412000D01*
X205740000Y-81280000D02*
X196850000Y-72390000D01*
X196850000Y-69850000D02*
X195522000Y-68522000D01*
X180340000Y-74612000D02*
X180340000Y-73660000D01*
X175260000Y-79692000D02*
X180340000Y-74612000D01*
X214630000Y-68522000D02*
X204490000Y-68522000D01*
X181908000Y-83522000D02*
X186710000Y-83522000D01*
X180340000Y-81954000D02*
X180340000Y-81280000D01*
X189210000Y-68522000D02*
X187960000Y-69772000D01*
X152400000Y-68522000D02*
X152400000Y-69499436D01*
X182880000Y-68522000D02*
X178810000Y-68522000D01*
X182880000Y-68522000D02*
X182362233Y-68522000D01*
X208675000Y-108825000D02*
X210820000Y-106680000D01*
D26*
X144750000Y-102870000D02*
X144780000Y-102870000D01*
D27*
X217170000Y-76200000D02*
X215900000Y-74930000D01*
X142280000Y-102870000D02*
X142280000Y-105450000D01*
X163810000Y-68522000D02*
X162560000Y-69772000D01*
D26*
%TO.N,Net-(U1-BRIGHTNESS_CONTROL)*%
X207010000Y-107950000D02*
X158750000Y-107950000D01*
X208280000Y-106680000D02*
X207010000Y-107950000D01*
X158750000Y-107950000D02*
X157480000Y-106680000D01*
X157480000Y-106680000D02*
X157480000Y-102870000D01*
%TO.N,/D1_E*%
X141930178Y-87002178D02*
X139700000Y-84772000D01*
X149534822Y-87002178D02*
X141930178Y-87002178D01*
X159874644Y-97342000D02*
X149534822Y-87002178D01*
X172585812Y-97342000D02*
X159874644Y-97342000D01*
X175260000Y-106680000D02*
X175260000Y-100016188D01*
X175260000Y-100016188D02*
X172585812Y-97342000D01*
%TO.N,/D1_D*%
X149661040Y-86492000D02*
X143960000Y-86492000D01*
X177800000Y-106680000D02*
X177800000Y-101919792D01*
X143960000Y-86492000D02*
X142240000Y-84772000D01*
X177800000Y-101919792D02*
X172772208Y-96892000D01*
X160061040Y-96892000D02*
X149661040Y-86492000D01*
X172772208Y-96892000D02*
X160061040Y-96892000D01*
%TO.N,/D1_C*%
X180340000Y-106680000D02*
X180340000Y-103823396D01*
X160247436Y-96442000D02*
X149847436Y-86042000D01*
X172958604Y-96442000D02*
X160247436Y-96442000D01*
X149847436Y-86042000D02*
X148590000Y-86042000D01*
X148590000Y-86042000D02*
X147320000Y-84772000D01*
X180340000Y-103823396D02*
X172958604Y-96442000D01*
%TO.N,/D1_DP*%
X158744416Y-94302584D02*
X149860000Y-85418168D01*
X160433832Y-95992000D02*
X158744416Y-94302584D01*
X182880000Y-106680000D02*
X182880000Y-105727000D01*
X149860000Y-85418168D02*
X149860000Y-84772000D01*
X182880000Y-105727000D02*
X173145000Y-95992000D01*
X173145000Y-95992000D02*
X160433832Y-95992000D01*
%TO.N,/D1_B*%
X149348426Y-87452178D02*
X140730178Y-87452178D01*
X164785000Y-97792000D02*
X159688248Y-97792000D01*
X139439188Y-72972000D02*
X147690000Y-72972000D01*
X147690000Y-72972000D02*
X149860000Y-70802000D01*
X172720000Y-106680000D02*
X172720000Y-105727000D01*
X138430000Y-73981188D02*
X139439188Y-72972000D01*
X172720000Y-105727000D02*
X164785000Y-97792000D01*
X138430000Y-85152000D02*
X138430000Y-73981188D01*
X159688248Y-97792000D02*
X149348426Y-87452178D01*
X140730178Y-87452178D02*
X138430000Y-85152000D01*
X149860000Y-70802000D02*
X149860000Y-69772000D01*
%TO.N,/D1_A*%
X147320000Y-69772000D02*
X147320000Y-70802000D01*
X170180000Y-103823396D02*
X164598604Y-98242000D01*
X159501852Y-98242000D02*
X149162030Y-87902178D01*
X170180000Y-106680000D02*
X170180000Y-103823396D01*
X137980000Y-85338396D02*
X137980000Y-83502000D01*
X145600000Y-72522000D02*
X139252792Y-72522000D01*
X149162030Y-87902178D02*
X140543782Y-87902178D01*
X147320000Y-70802000D02*
X145600000Y-72522000D01*
X139252792Y-72522000D02*
X137980000Y-73794792D01*
X137980000Y-73794792D02*
X137980000Y-83502000D01*
X164598604Y-98242000D02*
X159501852Y-98242000D01*
X140543782Y-87902178D02*
X137980000Y-85338396D01*
%TO.N,/D1_F*%
X159315456Y-98692000D02*
X148975634Y-88352178D01*
X148975634Y-88352178D02*
X140357386Y-88352178D01*
X140970000Y-72072000D02*
X142240000Y-70802000D01*
X167640000Y-101919792D02*
X164412208Y-98692000D01*
X167640000Y-106680000D02*
X167640000Y-101919792D01*
X137530000Y-73608396D02*
X139066396Y-72072000D01*
X164412208Y-98692000D02*
X159315456Y-98692000D01*
X142240000Y-70802000D02*
X142240000Y-69772000D01*
X139066396Y-72072000D02*
X140970000Y-72072000D01*
X137530000Y-85524792D02*
X137530000Y-73608396D01*
X140357386Y-88352178D02*
X137530000Y-85524792D01*
%TO.N,/D1_G*%
X140170990Y-88802178D02*
X137080000Y-85711188D01*
X165100000Y-106680000D02*
X165100000Y-100016188D01*
X164225812Y-99142000D02*
X159129060Y-99142000D01*
X148789238Y-88802178D02*
X140170990Y-88802178D01*
X165100000Y-100016188D02*
X164225812Y-99142000D01*
X137080000Y-85711188D02*
X137080000Y-73422000D01*
X159129060Y-99142000D02*
X148789238Y-88802178D01*
X139700000Y-70802000D02*
X139700000Y-69772000D01*
X137080000Y-73422000D02*
X139700000Y-70802000D01*
%TO.N,/D2_E*%
X195580000Y-105410000D02*
X194310000Y-104140000D01*
X187722000Y-93742000D02*
X186690000Y-93742000D01*
X157480000Y-84772000D02*
X157480000Y-87467812D01*
X194310000Y-104140000D02*
X194310000Y-100330000D01*
X186690000Y-93742000D02*
X161365812Y-93742000D01*
X194310000Y-100330000D02*
X187722000Y-93742000D01*
X195580000Y-106680000D02*
X195580000Y-105410000D01*
X159940000Y-92316188D02*
X159940000Y-89927812D01*
X161365812Y-93742000D02*
X159940000Y-92316188D01*
X157480000Y-87467812D02*
X159940000Y-89927812D01*
%TO.N,/D2_D*%
X198120000Y-106680000D02*
X198120000Y-105410000D01*
X196850000Y-104140000D02*
X196850000Y-100330000D01*
X160390000Y-92129792D02*
X160390000Y-89587000D01*
X160390000Y-89587000D02*
X160020000Y-89217000D01*
X198120000Y-105410000D02*
X196850000Y-104140000D01*
X160020000Y-89217000D02*
X160020000Y-84772000D01*
X161552208Y-93292000D02*
X160390000Y-92129792D01*
X189812000Y-93292000D02*
X161552208Y-93292000D01*
X196850000Y-100330000D02*
X189812000Y-93292000D01*
%TO.N,/D2_C*%
X161738604Y-92842000D02*
X160840000Y-91943396D01*
X200660000Y-106680000D02*
X200660000Y-105410000D01*
X199390000Y-104140000D02*
X199390000Y-100330000D01*
X165100000Y-86040604D02*
X165100000Y-84772000D01*
X191902000Y-92842000D02*
X161738604Y-92842000D01*
X160840000Y-91943396D02*
X160840000Y-90300604D01*
X200660000Y-105410000D02*
X199390000Y-104140000D01*
X160840000Y-90300604D02*
X165100000Y-86040604D01*
X199390000Y-100330000D02*
X191902000Y-92842000D01*
%TO.N,/D2_DP*%
X201930000Y-104140000D02*
X201930000Y-100330000D01*
X203200000Y-105410000D02*
X201930000Y-104140000D01*
X203200000Y-106680000D02*
X203200000Y-105410000D01*
X167005000Y-84772000D02*
X167640000Y-84772000D01*
X193992000Y-92392000D02*
X161925000Y-92392000D01*
X161925000Y-92392000D02*
X161290000Y-91757000D01*
X201930000Y-100330000D02*
X193992000Y-92392000D01*
X161290000Y-90487000D02*
X167005000Y-84772000D01*
X161290000Y-91757000D02*
X161290000Y-90487000D01*
%TO.N,/D2_B*%
X157219188Y-72972000D02*
X156370594Y-73820594D01*
X157318708Y-90331292D02*
X156683708Y-89696292D01*
X156683708Y-89696292D02*
X156210000Y-89222584D01*
X156210000Y-89222584D02*
X157318708Y-90331292D01*
X156210000Y-87630000D02*
X156210000Y-89222584D01*
X189230000Y-102870000D02*
X189230000Y-100330000D01*
X156212094Y-89224678D02*
X156683708Y-89696292D01*
X161179416Y-94192000D02*
X157318708Y-90331292D01*
X160020000Y-72972000D02*
X157219188Y-72972000D01*
X156210000Y-73981188D02*
X156210000Y-74930000D01*
X156370594Y-73820594D02*
X156210000Y-73981188D01*
X167640000Y-69772000D02*
X167640000Y-70802000D01*
X165470000Y-72972000D02*
X163193604Y-72972000D01*
X156210000Y-74930000D02*
X156210000Y-87630000D01*
X189230000Y-100330000D02*
X183092000Y-94192000D01*
X193040000Y-106680000D02*
X189230000Y-102870000D01*
X167640000Y-70802000D02*
X165470000Y-72972000D01*
X183092000Y-94192000D02*
X161179416Y-94192000D01*
X163193604Y-72972000D02*
X160020000Y-72972000D01*
%TO.N,/D2_A*%
X190500000Y-106680000D02*
X190500000Y-105410000D01*
X160993020Y-94642000D02*
X155760000Y-89408980D01*
X190500000Y-105410000D02*
X188330000Y-103240000D01*
X155760000Y-89408980D02*
X155760000Y-73794792D01*
X188330000Y-103240000D02*
X182302188Y-103240000D01*
X157032792Y-72522000D02*
X163380000Y-72522000D01*
X155760000Y-73794792D02*
X157032792Y-72522000D01*
X173704188Y-94642000D02*
X172720000Y-94642000D01*
X172720000Y-94642000D02*
X160993020Y-94642000D01*
X163380000Y-72522000D02*
X165100000Y-70802000D01*
X165100000Y-70802000D02*
X165100000Y-69772000D01*
X182302188Y-103240000D02*
X173704188Y-94642000D01*
%TO.N,/D2_F*%
X158750000Y-72072000D02*
X160020000Y-70802000D01*
X186240000Y-103690000D02*
X182115792Y-103690000D01*
X182115792Y-103690000D02*
X173517792Y-95092000D01*
X156846396Y-72072000D02*
X158750000Y-72072000D01*
X173517792Y-95092000D02*
X172720000Y-95092000D01*
X155310000Y-73608396D02*
X156846396Y-72072000D01*
X160806624Y-95092000D02*
X155310000Y-89595376D01*
X187960000Y-105410000D02*
X186240000Y-103690000D01*
X187960000Y-106680000D02*
X187960000Y-105410000D01*
X160020000Y-70802000D02*
X160020000Y-69772000D01*
X155310000Y-89595376D02*
X155310000Y-73608396D01*
X172720000Y-95092000D02*
X160806624Y-95092000D01*
%TO.N,/D2_G*%
X181929396Y-104140000D02*
X173331396Y-95542000D01*
X154860000Y-73422000D02*
X157480000Y-70802000D01*
X160620228Y-95542000D02*
X154860000Y-89781772D01*
X184150000Y-104140000D02*
X181929396Y-104140000D01*
X185420000Y-106680000D02*
X185420000Y-105410000D01*
X173331396Y-95542000D02*
X171450000Y-95542000D01*
X157480000Y-70802000D02*
X157480000Y-69772000D01*
X154860000Y-89781772D02*
X154860000Y-73422000D01*
X171450000Y-95542000D02*
X160620228Y-95542000D01*
X185420000Y-105410000D02*
X184150000Y-104140000D01*
%TO.N,/D3_E*%
X172720000Y-86042000D02*
X167640000Y-91122000D01*
X181610000Y-86042000D02*
X172720000Y-86042000D01*
X182880000Y-84772000D02*
X181610000Y-86042000D01*
%TO.N,/D3_D*%
X183700000Y-86492000D02*
X174810000Y-86492000D01*
X174810000Y-86492000D02*
X170180000Y-91122000D01*
X185420000Y-84772000D02*
X183700000Y-86492000D01*
%TO.N,/D3_C*%
X188305000Y-86967000D02*
X187960000Y-86967000D01*
X176900000Y-86942000D02*
X172720000Y-91122000D01*
X190500000Y-84772000D02*
X188305000Y-86967000D01*
X187935000Y-86942000D02*
X176900000Y-86942000D01*
X187960000Y-86967000D02*
X187935000Y-86942000D01*
%TO.N,/D3_DP*%
X193040000Y-84772000D02*
X190395000Y-87417000D01*
X178990000Y-87392000D02*
X175260000Y-91122000D01*
X190395000Y-87417000D02*
X183540000Y-87417000D01*
X183540000Y-87417000D02*
X183515000Y-87392000D01*
X183515000Y-87392000D02*
X178990000Y-87392000D01*
%TO.N,/D3_B*%
X199390000Y-80010000D02*
X195660000Y-76280000D01*
X195660000Y-87232000D02*
X195660000Y-87230604D01*
X195660000Y-73422000D02*
X193040000Y-70802000D01*
X195660000Y-76280000D02*
X195660000Y-73422000D01*
X193675000Y-89217000D02*
X195660000Y-87232000D01*
X199390000Y-83500604D02*
X199390000Y-80010000D01*
X185420000Y-91122000D02*
X187325000Y-89217000D01*
X195660000Y-87230604D02*
X199390000Y-83500604D01*
X187325000Y-89217000D02*
X193675000Y-89217000D01*
X193040000Y-70802000D02*
X193040000Y-69772000D01*
%TO.N,/D3_A*%
X196995000Y-85259208D02*
X196995000Y-80155000D01*
X195210000Y-87044208D02*
X196995000Y-85259208D01*
X185235000Y-88767000D02*
X193488604Y-88767000D01*
X182880000Y-91122000D02*
X185235000Y-88767000D01*
X195210000Y-78370000D02*
X195210000Y-73608396D01*
X193673604Y-72072000D02*
X191770000Y-72072000D01*
X191770000Y-72072000D02*
X190500000Y-70802000D01*
X195210000Y-73608396D02*
X193673604Y-72072000D01*
X196995000Y-80155000D02*
X195210000Y-78370000D01*
X190500000Y-70802000D02*
X190500000Y-69772000D01*
X193488604Y-88767000D02*
X195210000Y-87045604D01*
X195210000Y-87045604D02*
X195210000Y-87044208D01*
%TO.N,/D3_F*%
X194310000Y-82550000D02*
X194760000Y-83000000D01*
X194760000Y-83000000D02*
X194760000Y-86859208D01*
X193302208Y-88317000D02*
X183145000Y-88317000D01*
X194760000Y-79560000D02*
X194310000Y-80010000D01*
X185420000Y-69772000D02*
X185420000Y-70802000D01*
X185420000Y-70802000D02*
X187140000Y-72522000D01*
X187140000Y-72522000D02*
X193487208Y-72522000D01*
X194760000Y-86859208D02*
X193302208Y-88317000D01*
X194310000Y-80010000D02*
X194310000Y-82550000D01*
X193487208Y-72522000D02*
X194760000Y-73794792D01*
X183145000Y-88317000D02*
X180340000Y-91122000D01*
X194760000Y-73794792D02*
X194760000Y-79560000D01*
%TO.N,/D3_G*%
X182880000Y-70802000D02*
X185050000Y-72972000D01*
X177800000Y-91122000D02*
X181055000Y-87867000D01*
X181055000Y-87867000D02*
X193115812Y-87867000D01*
X194310000Y-84875273D02*
X191770000Y-82335273D01*
X194310000Y-86672812D02*
X194310000Y-84875273D01*
X182880000Y-69772000D02*
X182880000Y-70802000D01*
X194310000Y-73981188D02*
X194310000Y-77470000D01*
X193115812Y-87867000D02*
X194310000Y-86672812D01*
X191770000Y-80010000D02*
X191770000Y-81280000D01*
X194310000Y-77470000D02*
X191770000Y-80010000D01*
X193300812Y-72972000D02*
X194310000Y-73981188D01*
X191770000Y-82335273D02*
X191770000Y-81280000D01*
X185050000Y-72972000D02*
X193300812Y-72972000D01*
%TO.N,/D4_E*%
X189415000Y-89667000D02*
X193861396Y-89667000D01*
X196215000Y-87313396D02*
X196215000Y-87312000D01*
X197485000Y-86042000D02*
X199390000Y-86042000D01*
X187960000Y-91122000D02*
X189415000Y-89667000D01*
X199390000Y-86042000D02*
X200660000Y-84772000D01*
X193861396Y-89667000D02*
X196215000Y-87313396D01*
X196215000Y-87312000D02*
X197485000Y-86042000D01*
%TO.N,/D4_D*%
X191505000Y-90117000D02*
X194047792Y-90117000D01*
X194047792Y-90117000D02*
X197647792Y-86517000D01*
X201455000Y-86517000D02*
X203200000Y-84772000D01*
X190500000Y-91122000D02*
X191505000Y-90117000D01*
X197647792Y-86517000D02*
X201455000Y-86517000D01*
%TO.N,/D4_C*%
X194234188Y-90567000D02*
X197834188Y-86967000D01*
X193595000Y-90567000D02*
X194234188Y-90567000D01*
X197834188Y-86967000D02*
X206085000Y-86967000D01*
X206085000Y-86967000D02*
X208280000Y-84772000D01*
X193040000Y-91122000D02*
X193595000Y-90567000D01*
%TO.N,/D4_DP*%
X210820000Y-84772000D02*
X208175000Y-87417000D01*
X199285000Y-87417000D02*
X195580000Y-91122000D01*
X208175000Y-87417000D02*
X199285000Y-87417000D01*
%TO.N,/D4_B*%
X213440000Y-73422000D02*
X213440000Y-87232000D01*
X210820000Y-70802000D02*
X213440000Y-73422000D01*
X211455000Y-89217000D02*
X207645000Y-89217000D01*
X210820000Y-69772000D02*
X210820000Y-70802000D01*
X207645000Y-89217000D02*
X205740000Y-91122000D01*
X213440000Y-87232000D02*
X211455000Y-89217000D01*
%TO.N,/D4_A*%
X208280000Y-69772000D02*
X208280000Y-70802000D01*
X212990000Y-73608396D02*
X212990000Y-87045604D01*
X212990000Y-87045604D02*
X211268604Y-88767000D01*
X205105000Y-89217000D02*
X203200000Y-91122000D01*
X211453604Y-72072000D02*
X212990000Y-73608396D01*
X209550000Y-72072000D02*
X211453604Y-72072000D01*
X208280000Y-70802000D02*
X209550000Y-72072000D01*
X205555000Y-88767000D02*
X205105000Y-89217000D01*
X211268604Y-88767000D02*
X205555000Y-88767000D01*
%TO.N,/D4_F*%
X211267208Y-72522000D02*
X212540000Y-73794792D01*
X211082208Y-88317000D02*
X203465000Y-88317000D01*
X204920000Y-72522000D02*
X211267208Y-72522000D01*
X203200000Y-69772000D02*
X203200000Y-70802000D01*
X203465000Y-88317000D02*
X202882500Y-88899500D01*
X212540000Y-86859208D02*
X211082208Y-88317000D01*
X212540000Y-73794792D02*
X212540000Y-86859208D01*
X202882500Y-88899500D02*
X200660000Y-91122000D01*
X203200000Y-70802000D02*
X204920000Y-72522000D01*
%TO.N,/D4_G*%
X210895812Y-87867000D02*
X201375000Y-87867000D01*
X200977500Y-88264500D02*
X198120000Y-91122000D01*
X212090000Y-86672812D02*
X210895812Y-87867000D01*
X212090000Y-73981188D02*
X212090000Y-86672812D01*
X202830000Y-72972000D02*
X211080812Y-72972000D01*
X200660000Y-69772000D02*
X200660000Y-70802000D01*
X211080812Y-72972000D02*
X212090000Y-73981188D01*
X201375000Y-87867000D02*
X200977500Y-88264500D01*
X200660000Y-70802000D02*
X202830000Y-72972000D01*
%TO.N,/DP1*%
X162560000Y-91122000D02*
X170815000Y-82867000D01*
X170815000Y-82867000D02*
X170815000Y-79057000D01*
X170815000Y-79057000D02*
X175260000Y-74612000D01*
%TO.N,/DP2*%
X175260000Y-82232000D02*
X173990000Y-82232000D01*
X173990000Y-82232000D02*
X165100000Y-91122000D01*
D27*
%TO.N,Net-(R1-Pad1)*%
X147290000Y-102860000D02*
X147280000Y-102870000D01*
D26*
X147280000Y-102870000D02*
X147280000Y-106640000D01*
X142210000Y-100330000D02*
X144740000Y-100330000D01*
X147280000Y-106640000D02*
X147320000Y-106680000D01*
X144740000Y-100330000D02*
X147280000Y-102870000D01*
%TD*%
%TA.AperFunction,Conductor*%
%TO.N,GND*%
G36*
X214334809Y-69292185D02*
G01*
X214355451Y-69308819D01*
X215113181Y-70066548D01*
X215146666Y-70127871D01*
X215149500Y-70154229D01*
X215149500Y-75003918D01*
X215149500Y-75003920D01*
X215149499Y-75003920D01*
X215178340Y-75148907D01*
X215178343Y-75148917D01*
X215234913Y-75285490D01*
X215234914Y-75285492D01*
X215263807Y-75328733D01*
X215263808Y-75328735D01*
X215317045Y-75408414D01*
X215317049Y-75408418D01*
X215935431Y-76026798D01*
X215968916Y-76088121D01*
X215971221Y-76125920D01*
X215964357Y-76199998D01*
X215964357Y-76200000D01*
X215984884Y-76421535D01*
X215984885Y-76421537D01*
X216045769Y-76635523D01*
X216045775Y-76635538D01*
X216144938Y-76834683D01*
X216144943Y-76834691D01*
X216279020Y-77012238D01*
X216443437Y-77162123D01*
X216443439Y-77162125D01*
X216632595Y-77279245D01*
X216632596Y-77279245D01*
X216632599Y-77279247D01*
X216840060Y-77359618D01*
X217058757Y-77400500D01*
X217058759Y-77400500D01*
X217281241Y-77400500D01*
X217281243Y-77400500D01*
X217499940Y-77359618D01*
X217707401Y-77279247D01*
X217824278Y-77206880D01*
X219016672Y-77206880D01*
X219132821Y-77278797D01*
X219132822Y-77278798D01*
X219340195Y-77359134D01*
X219558807Y-77400000D01*
X219781193Y-77400000D01*
X219999809Y-77359133D01*
X220207168Y-77278801D01*
X220207181Y-77278795D01*
X220323326Y-77206879D01*
X219670001Y-76553553D01*
X219670000Y-76553553D01*
X219016672Y-77206879D01*
X219016672Y-77206880D01*
X217824278Y-77206880D01*
X217896562Y-77162124D01*
X218060981Y-77012236D01*
X218195058Y-76834689D01*
X218294229Y-76635528D01*
X218300994Y-76611750D01*
X218338271Y-76552661D01*
X218401580Y-76523102D01*
X218470820Y-76532463D01*
X218524007Y-76577772D01*
X218539525Y-76611753D01*
X218546236Y-76635342D01*
X218546239Y-76635348D01*
X218645369Y-76834428D01*
X218661137Y-76855308D01*
X218661138Y-76855308D01*
X219270369Y-76246078D01*
X219320000Y-76246078D01*
X219343852Y-76335095D01*
X219389930Y-76414905D01*
X219455095Y-76480070D01*
X219534905Y-76526148D01*
X219623922Y-76550000D01*
X219716078Y-76550000D01*
X219805095Y-76526148D01*
X219884905Y-76480070D01*
X219950070Y-76414905D01*
X219996148Y-76335095D01*
X220020000Y-76246078D01*
X220020000Y-76200000D01*
X220023553Y-76200000D01*
X220678861Y-76855308D01*
X220694631Y-76834425D01*
X220694633Y-76834422D01*
X220793759Y-76635350D01*
X220854621Y-76421439D01*
X220875141Y-76200000D01*
X220875141Y-76199999D01*
X220854621Y-75978560D01*
X220793759Y-75764649D01*
X220694635Y-75565580D01*
X220694630Y-75565572D01*
X220678860Y-75544690D01*
X220023553Y-76199999D01*
X220023553Y-76200000D01*
X220020000Y-76200000D01*
X220020000Y-76153922D01*
X219996148Y-76064905D01*
X219950070Y-75985095D01*
X219884905Y-75919930D01*
X219805095Y-75873852D01*
X219716078Y-75850000D01*
X219623922Y-75850000D01*
X219534905Y-75873852D01*
X219455095Y-75919930D01*
X219389930Y-75985095D01*
X219343852Y-76064905D01*
X219320000Y-76153922D01*
X219320000Y-76246078D01*
X219270369Y-76246078D01*
X219316447Y-76200000D01*
X218661138Y-75544691D01*
X218661137Y-75544691D01*
X218645368Y-75565574D01*
X218546239Y-75764651D01*
X218546238Y-75764652D01*
X218539525Y-75788248D01*
X218502245Y-75847340D01*
X218438935Y-75876898D01*
X218369696Y-75867535D01*
X218316510Y-75822224D01*
X218300995Y-75788253D01*
X218294229Y-75764472D01*
X218294224Y-75764461D01*
X218195061Y-75565316D01*
X218195056Y-75565308D01*
X218060979Y-75387761D01*
X217896562Y-75237876D01*
X217896560Y-75237874D01*
X217824278Y-75193119D01*
X219016671Y-75193119D01*
X219670000Y-75846447D01*
X219670001Y-75846447D01*
X220323327Y-75193119D01*
X220207178Y-75121202D01*
X220207177Y-75121201D01*
X219999804Y-75040865D01*
X219781193Y-75000000D01*
X219558807Y-75000000D01*
X219340195Y-75040865D01*
X219132824Y-75121200D01*
X219132823Y-75121201D01*
X219016671Y-75193119D01*
X217824278Y-75193119D01*
X217707404Y-75120754D01*
X217707398Y-75120752D01*
X217499940Y-75040382D01*
X217281243Y-74999500D01*
X217082229Y-74999500D01*
X217015190Y-74979815D01*
X216994548Y-74963181D01*
X216686819Y-74655451D01*
X216653334Y-74594128D01*
X216650500Y-74567770D01*
X216650500Y-69718079D01*
X216621659Y-69573092D01*
X216621658Y-69573091D01*
X216621658Y-69573087D01*
X216568168Y-69443952D01*
X216560700Y-69374483D01*
X216591975Y-69312004D01*
X216652064Y-69276352D01*
X216682730Y-69272500D01*
X216807770Y-69272500D01*
X216874809Y-69292185D01*
X216895451Y-69308819D01*
X217103181Y-69516548D01*
X217136666Y-69577871D01*
X217139500Y-69604229D01*
X217139500Y-70697870D01*
X217139501Y-70697876D01*
X217145908Y-70757483D01*
X217196202Y-70892328D01*
X217196206Y-70892335D01*
X217282452Y-71007544D01*
X217282453Y-71007544D01*
X217282454Y-71007546D01*
X217291545Y-71014351D01*
X217333416Y-71070282D01*
X217338402Y-71139974D01*
X217318813Y-71184736D01*
X217309871Y-71197507D01*
X217309868Y-71197512D01*
X217213734Y-71403673D01*
X217213730Y-71403682D01*
X217154860Y-71623389D01*
X217154858Y-71623400D01*
X217135034Y-71849997D01*
X217135034Y-71850002D01*
X217154858Y-72076599D01*
X217154860Y-72076610D01*
X217213730Y-72296317D01*
X217213735Y-72296331D01*
X217309863Y-72502478D01*
X217360974Y-72575472D01*
X218040000Y-71896446D01*
X218040000Y-71902661D01*
X218067259Y-72004394D01*
X218119920Y-72095606D01*
X218194394Y-72170080D01*
X218285606Y-72222741D01*
X218387339Y-72250000D01*
X218393553Y-72250000D01*
X217714526Y-72929025D01*
X217787513Y-72980132D01*
X217787521Y-72980136D01*
X217993668Y-73076264D01*
X217993682Y-73076269D01*
X218213389Y-73135139D01*
X218213400Y-73135141D01*
X218439998Y-73154966D01*
X218440002Y-73154966D01*
X218666599Y-73135141D01*
X218666610Y-73135139D01*
X218886317Y-73076269D01*
X218886331Y-73076264D01*
X219092478Y-72980136D01*
X219165471Y-72929024D01*
X218486447Y-72250000D01*
X218492661Y-72250000D01*
X218594394Y-72222741D01*
X218685606Y-72170080D01*
X218760080Y-72095606D01*
X218812741Y-72004394D01*
X218840000Y-71902661D01*
X218840000Y-71896447D01*
X219519024Y-72575471D01*
X219570136Y-72502478D01*
X219666264Y-72296331D01*
X219666269Y-72296317D01*
X219725139Y-72076610D01*
X219725141Y-72076599D01*
X219744966Y-71850002D01*
X219744966Y-71849997D01*
X219725141Y-71623400D01*
X219725139Y-71623389D01*
X219666269Y-71403682D01*
X219666265Y-71403673D01*
X219570134Y-71197518D01*
X219570130Y-71197512D01*
X219561188Y-71184740D01*
X219538861Y-71118534D01*
X219555873Y-71050767D01*
X219588454Y-71014351D01*
X219597546Y-71007546D01*
X219683796Y-70892331D01*
X219734091Y-70757483D01*
X219740500Y-70697873D01*
X219740499Y-69396499D01*
X219760184Y-69329461D01*
X219812987Y-69283706D01*
X219864499Y-69272500D01*
X221829770Y-69272500D01*
X221896809Y-69292185D01*
X221917451Y-69308819D01*
X222733181Y-70124548D01*
X222766666Y-70185871D01*
X222769500Y-70212229D01*
X222769500Y-102507769D01*
X222749815Y-102574808D01*
X222733181Y-102595450D01*
X219788052Y-105540578D01*
X219726729Y-105574063D01*
X219657037Y-105569079D01*
X219601104Y-105527207D01*
X219598641Y-105523917D01*
X219597546Y-105522454D01*
X219597545Y-105522453D01*
X219597544Y-105522452D01*
X219482335Y-105436206D01*
X219482328Y-105436202D01*
X219347482Y-105385908D01*
X219347483Y-105385908D01*
X219287883Y-105379501D01*
X219287881Y-105379500D01*
X219287873Y-105379500D01*
X219287864Y-105379500D01*
X217592129Y-105379500D01*
X217592123Y-105379501D01*
X217532516Y-105385908D01*
X217397671Y-105436202D01*
X217397664Y-105436206D01*
X217282455Y-105522452D01*
X217282452Y-105522455D01*
X217196206Y-105637664D01*
X217196202Y-105637671D01*
X217145910Y-105772513D01*
X217145909Y-105772517D01*
X217140937Y-105818757D01*
X217114201Y-105883306D01*
X217056809Y-105923154D01*
X217017649Y-105929500D01*
X211571904Y-105929500D01*
X211504865Y-105909815D01*
X211493239Y-105901353D01*
X211394449Y-105820279D01*
X211394442Y-105820274D01*
X211215691Y-105724729D01*
X211068092Y-105679956D01*
X211021719Y-105665889D01*
X211021717Y-105665888D01*
X211021719Y-105665888D01*
X210820000Y-105646021D01*
X210618282Y-105665888D01*
X210424308Y-105724729D01*
X210245557Y-105820274D01*
X210245551Y-105820278D01*
X210088865Y-105948865D01*
X209960278Y-106105551D01*
X209960274Y-106105557D01*
X209864729Y-106284308D01*
X209805888Y-106478282D01*
X209793361Y-106605466D01*
X209767199Y-106670253D01*
X209757639Y-106680992D01*
X209510452Y-106928179D01*
X209449129Y-106961664D01*
X209379437Y-106956680D01*
X209323504Y-106914808D01*
X209299087Y-106849344D01*
X209299368Y-106828344D01*
X209302657Y-106794949D01*
X209313979Y-106680000D01*
X209294111Y-106478281D01*
X209235272Y-106284313D01*
X209235270Y-106284310D01*
X209235270Y-106284308D01*
X209139725Y-106105557D01*
X209139721Y-106105551D01*
X209011134Y-105948865D01*
X208854448Y-105820278D01*
X208854442Y-105820274D01*
X208675691Y-105724729D01*
X208528092Y-105679956D01*
X208481719Y-105665889D01*
X208481717Y-105665888D01*
X208481719Y-105665888D01*
X208280000Y-105646021D01*
X208078282Y-105665888D01*
X207884308Y-105724729D01*
X207705557Y-105820274D01*
X207705551Y-105820278D01*
X207548865Y-105948865D01*
X207420278Y-106105551D01*
X207420274Y-106105557D01*
X207324729Y-106284308D01*
X207265888Y-106478282D01*
X207246021Y-106680000D01*
X207246021Y-106680001D01*
X207253666Y-106757630D01*
X207240647Y-106826276D01*
X207217944Y-106857464D01*
X206912746Y-107162663D01*
X206851423Y-107196148D01*
X206781732Y-107191164D01*
X206725798Y-107149293D01*
X206701381Y-107083828D01*
X206706403Y-107038990D01*
X206754111Y-106881719D01*
X206773979Y-106680000D01*
X206754111Y-106478281D01*
X206695272Y-106284313D01*
X206695270Y-106284310D01*
X206695270Y-106284308D01*
X206599725Y-106105557D01*
X206599721Y-106105551D01*
X206471134Y-105948865D01*
X206314448Y-105820278D01*
X206314442Y-105820274D01*
X206135691Y-105724729D01*
X205988092Y-105679956D01*
X205941719Y-105665889D01*
X205941717Y-105665888D01*
X205941719Y-105665888D01*
X205740000Y-105646021D01*
X205538282Y-105665888D01*
X205344308Y-105724729D01*
X205165557Y-105820274D01*
X205165551Y-105820278D01*
X205008865Y-105948865D01*
X204880278Y-106105551D01*
X204880274Y-106105557D01*
X204784729Y-106284308D01*
X204725888Y-106478282D01*
X204706021Y-106680000D01*
X204725888Y-106881717D01*
X204748628Y-106956680D01*
X204783067Y-107070213D01*
X204784729Y-107075689D01*
X204820198Y-107142046D01*
X204834440Y-107210449D01*
X204809440Y-107275693D01*
X204753135Y-107317064D01*
X204710840Y-107324500D01*
X204229160Y-107324500D01*
X204162121Y-107304815D01*
X204116366Y-107252011D01*
X204106422Y-107182853D01*
X204119802Y-107142046D01*
X204128118Y-107126488D01*
X204155272Y-107075687D01*
X204214111Y-106881719D01*
X204233979Y-106680000D01*
X204214111Y-106478281D01*
X204155272Y-106284313D01*
X204155270Y-106284310D01*
X204155270Y-106284308D01*
X204059725Y-106105557D01*
X204059721Y-106105551D01*
X203995476Y-106027267D01*
X203931134Y-105948866D01*
X203931133Y-105948865D01*
X203870835Y-105899379D01*
X203831501Y-105841633D01*
X203825500Y-105803526D01*
X203825500Y-105348389D01*
X203801464Y-105227555D01*
X203801463Y-105227548D01*
X203763020Y-105134739D01*
X203754312Y-105113716D01*
X203754307Y-105113707D01*
X203685858Y-105011267D01*
X203685855Y-105011263D01*
X203595637Y-104921045D01*
X203595606Y-104921016D01*
X202591819Y-103917229D01*
X202558334Y-103855906D01*
X202555500Y-103829548D01*
X202555500Y-102929048D01*
X202575185Y-102862009D01*
X202627989Y-102816254D01*
X202697147Y-102806310D01*
X202731905Y-102816667D01*
X202753504Y-102826739D01*
X202973308Y-102885635D01*
X203135230Y-102899801D01*
X203199998Y-102905468D01*
X203200000Y-102905468D01*
X203200002Y-102905468D01*
X203256807Y-102900498D01*
X203426692Y-102885635D01*
X203646496Y-102826739D01*
X203852734Y-102730568D01*
X204039139Y-102600047D01*
X204200047Y-102439139D01*
X204330568Y-102252734D01*
X204357618Y-102194724D01*
X204403790Y-102142285D01*
X204470983Y-102123133D01*
X204537865Y-102143348D01*
X204582382Y-102194725D01*
X204609429Y-102252728D01*
X204609432Y-102252734D01*
X204739954Y-102439141D01*
X204900858Y-102600045D01*
X204900861Y-102600047D01*
X205087266Y-102730568D01*
X205293504Y-102826739D01*
X205513308Y-102885635D01*
X205675230Y-102899801D01*
X205739998Y-102905468D01*
X205740000Y-102905468D01*
X205740002Y-102905468D01*
X205796807Y-102900498D01*
X205966692Y-102885635D01*
X206186496Y-102826739D01*
X206392734Y-102730568D01*
X206579139Y-102600047D01*
X206740047Y-102439139D01*
X206870568Y-102252734D01*
X206897618Y-102194724D01*
X206943790Y-102142285D01*
X207010983Y-102123133D01*
X207077865Y-102143348D01*
X207122382Y-102194725D01*
X207149429Y-102252728D01*
X207149432Y-102252734D01*
X207279954Y-102439141D01*
X207440858Y-102600045D01*
X207440861Y-102600047D01*
X207627266Y-102730568D01*
X207833504Y-102826739D01*
X208053308Y-102885635D01*
X208215230Y-102899801D01*
X208279998Y-102905468D01*
X208280000Y-102905468D01*
X208280002Y-102905468D01*
X208336807Y-102900498D01*
X208506692Y-102885635D01*
X208726496Y-102826739D01*
X208932734Y-102730568D01*
X209119139Y-102600047D01*
X209280047Y-102439139D01*
X209410568Y-102252734D01*
X209437618Y-102194724D01*
X209483790Y-102142285D01*
X209550983Y-102123133D01*
X209617865Y-102143348D01*
X209662382Y-102194725D01*
X209689429Y-102252728D01*
X209689432Y-102252734D01*
X209819954Y-102439141D01*
X209980858Y-102600045D01*
X209980861Y-102600047D01*
X210167266Y-102730568D01*
X210373504Y-102826739D01*
X210593308Y-102885635D01*
X210755230Y-102899801D01*
X210819998Y-102905468D01*
X210820000Y-102905468D01*
X210820002Y-102905468D01*
X210876807Y-102900498D01*
X211046692Y-102885635D01*
X211266496Y-102826739D01*
X211472734Y-102730568D01*
X211659139Y-102600047D01*
X211820047Y-102439139D01*
X211950568Y-102252734D01*
X211977893Y-102194134D01*
X212024065Y-102141695D01*
X212091258Y-102122543D01*
X212158139Y-102142758D01*
X212202657Y-102194134D01*
X212229864Y-102252480D01*
X212280974Y-102325472D01*
X212960000Y-101646446D01*
X212960000Y-101652661D01*
X212987259Y-101754394D01*
X213039920Y-101845606D01*
X213114394Y-101920080D01*
X213205606Y-101972741D01*
X213307339Y-102000000D01*
X213313553Y-102000000D01*
X212634526Y-102679025D01*
X212707513Y-102730132D01*
X212707521Y-102730136D01*
X212913668Y-102826264D01*
X212913682Y-102826269D01*
X213133389Y-102885139D01*
X213133400Y-102885141D01*
X213359998Y-102904966D01*
X213360002Y-102904966D01*
X213586599Y-102885141D01*
X213586610Y-102885139D01*
X213806317Y-102826269D01*
X213806331Y-102826264D01*
X214012478Y-102730136D01*
X214085471Y-102679024D01*
X213406447Y-102000000D01*
X213412661Y-102000000D01*
X213514394Y-101972741D01*
X213605606Y-101920080D01*
X213680080Y-101845606D01*
X213732741Y-101754394D01*
X213760000Y-101652661D01*
X213760000Y-101646447D01*
X214439024Y-102325471D01*
X214490133Y-102252482D01*
X214517341Y-102194135D01*
X214563513Y-102141696D01*
X214630707Y-102122543D01*
X214697588Y-102142758D01*
X214742105Y-102194132D01*
X214769432Y-102252734D01*
X214769433Y-102252735D01*
X214899954Y-102439141D01*
X215060858Y-102600045D01*
X215060861Y-102600047D01*
X215247266Y-102730568D01*
X215453504Y-102826739D01*
X215673308Y-102885635D01*
X215835230Y-102899801D01*
X215899998Y-102905468D01*
X215900000Y-102905468D01*
X215900002Y-102905468D01*
X215956807Y-102900498D01*
X216126692Y-102885635D01*
X216346496Y-102826739D01*
X216552734Y-102730568D01*
X216739139Y-102600047D01*
X216900047Y-102439139D01*
X217030568Y-102252734D01*
X217057618Y-102194724D01*
X217103790Y-102142285D01*
X217170983Y-102123133D01*
X217237865Y-102143348D01*
X217282382Y-102194725D01*
X217309429Y-102252728D01*
X217309432Y-102252734D01*
X217439954Y-102439141D01*
X217600858Y-102600045D01*
X217600861Y-102600047D01*
X217787266Y-102730568D01*
X217993504Y-102826739D01*
X218213308Y-102885635D01*
X218375230Y-102899801D01*
X218439998Y-102905468D01*
X218440000Y-102905468D01*
X218440002Y-102905468D01*
X218496807Y-102900498D01*
X218666692Y-102885635D01*
X218886496Y-102826739D01*
X219092734Y-102730568D01*
X219279139Y-102600047D01*
X219440047Y-102439139D01*
X219457272Y-102414539D01*
X219511848Y-102370913D01*
X219581346Y-102363718D01*
X219643701Y-102395239D01*
X219679116Y-102455468D01*
X219682138Y-102472406D01*
X219685908Y-102507483D01*
X219736202Y-102642328D01*
X219736206Y-102642335D01*
X219822452Y-102757544D01*
X219822455Y-102757547D01*
X219937664Y-102843793D01*
X219937671Y-102843797D01*
X220072517Y-102894091D01*
X220072516Y-102894091D01*
X220079444Y-102894835D01*
X220132127Y-102900500D01*
X221827872Y-102900499D01*
X221887483Y-102894091D01*
X222022331Y-102843796D01*
X222137546Y-102757546D01*
X222223796Y-102642331D01*
X222274091Y-102507483D01*
X222280500Y-102447873D01*
X222280499Y-100752128D01*
X222274091Y-100692517D01*
X222258259Y-100650070D01*
X222223797Y-100557671D01*
X222223793Y-100557664D01*
X222137547Y-100442455D01*
X222137544Y-100442452D01*
X222022335Y-100356206D01*
X222022328Y-100356202D01*
X221887482Y-100305908D01*
X221887483Y-100305908D01*
X221827883Y-100299501D01*
X221827881Y-100299500D01*
X221827873Y-100299500D01*
X221827864Y-100299500D01*
X220132129Y-100299500D01*
X220132123Y-100299501D01*
X220072516Y-100305908D01*
X219937671Y-100356202D01*
X219937664Y-100356206D01*
X219822455Y-100442452D01*
X219822452Y-100442455D01*
X219736206Y-100557664D01*
X219736202Y-100557671D01*
X219685908Y-100692516D01*
X219682137Y-100727596D01*
X219655398Y-100792146D01*
X219598006Y-100831994D01*
X219528180Y-100834487D01*
X219468092Y-100798834D01*
X219457273Y-100785462D01*
X219440045Y-100760858D01*
X219279141Y-100599954D01*
X219092734Y-100469432D01*
X219092732Y-100469431D01*
X218886497Y-100373261D01*
X218886488Y-100373258D01*
X218666697Y-100314366D01*
X218666693Y-100314365D01*
X218666692Y-100314365D01*
X218666691Y-100314364D01*
X218666686Y-100314364D01*
X218440002Y-100294532D01*
X218439998Y-100294532D01*
X218213313Y-100314364D01*
X218213302Y-100314366D01*
X217993511Y-100373258D01*
X217993502Y-100373261D01*
X217787267Y-100469431D01*
X217787265Y-100469432D01*
X217600858Y-100599954D01*
X217439954Y-100760858D01*
X217349612Y-100889882D01*
X217312713Y-100942581D01*
X217309435Y-100947262D01*
X217309431Y-100947267D01*
X217309313Y-100947521D01*
X217288657Y-100991819D01*
X217282382Y-101005275D01*
X217236209Y-101057714D01*
X217169016Y-101076866D01*
X217102135Y-101056650D01*
X217057618Y-101005275D01*
X217057220Y-101004422D01*
X217030568Y-100947266D01*
X216900047Y-100760861D01*
X216900045Y-100760858D01*
X216739141Y-100599954D01*
X216552734Y-100469432D01*
X216552732Y-100469431D01*
X216346497Y-100373261D01*
X216346488Y-100373258D01*
X216126697Y-100314366D01*
X216126693Y-100314365D01*
X216126692Y-100314365D01*
X216126691Y-100314364D01*
X216126686Y-100314364D01*
X215900002Y-100294532D01*
X215899998Y-100294532D01*
X215673313Y-100314364D01*
X215673302Y-100314366D01*
X215453511Y-100373258D01*
X215453502Y-100373261D01*
X215247267Y-100469431D01*
X215247265Y-100469432D01*
X215060858Y-100599954D01*
X214899954Y-100760858D01*
X214809612Y-100889882D01*
X214772713Y-100942581D01*
X214769435Y-100947262D01*
X214769428Y-100947272D01*
X214742105Y-101005866D01*
X214695932Y-101058305D01*
X214628738Y-101077456D01*
X214561858Y-101057239D01*
X214517342Y-101005864D01*
X214490136Y-100947521D01*
X214490132Y-100947513D01*
X214439025Y-100874526D01*
X213760000Y-101553551D01*
X213760000Y-101547339D01*
X213732741Y-101445606D01*
X213680080Y-101354394D01*
X213605606Y-101279920D01*
X213514394Y-101227259D01*
X213412661Y-101200000D01*
X213406448Y-101200000D01*
X214085472Y-100520974D01*
X214012478Y-100469863D01*
X213806331Y-100373735D01*
X213806317Y-100373730D01*
X213586610Y-100314860D01*
X213586599Y-100314858D01*
X213360002Y-100295034D01*
X213359998Y-100295034D01*
X213133400Y-100314858D01*
X213133389Y-100314860D01*
X212913682Y-100373730D01*
X212913673Y-100373734D01*
X212707516Y-100469866D01*
X212707512Y-100469868D01*
X212634526Y-100520973D01*
X212634526Y-100520974D01*
X213313553Y-101200000D01*
X213307339Y-101200000D01*
X213205606Y-101227259D01*
X213114394Y-101279920D01*
X213039920Y-101354394D01*
X212987259Y-101445606D01*
X212960000Y-101547339D01*
X212960000Y-101553552D01*
X212280974Y-100874526D01*
X212280973Y-100874526D01*
X212229868Y-100947512D01*
X212229868Y-100947513D01*
X212202657Y-101005867D01*
X212156484Y-101058306D01*
X212089290Y-101077457D01*
X212022409Y-101057241D01*
X211977893Y-101005865D01*
X211971343Y-100991819D01*
X211950568Y-100947266D01*
X211820047Y-100760861D01*
X211820045Y-100760858D01*
X211659140Y-100599953D01*
X211498377Y-100487386D01*
X211454752Y-100432809D01*
X211445500Y-100385811D01*
X211445500Y-91998472D01*
X211465185Y-91931433D01*
X211490836Y-91902618D01*
X211551134Y-91853134D01*
X211679722Y-91696448D01*
X211775272Y-91517687D01*
X211834111Y-91323719D01*
X211853979Y-91122000D01*
X211834111Y-90920281D01*
X211775272Y-90726313D01*
X211775270Y-90726310D01*
X211775270Y-90726308D01*
X211679725Y-90547557D01*
X211679721Y-90547551D01*
X211551134Y-90390865D01*
X211394448Y-90262278D01*
X211394442Y-90262274D01*
X211215691Y-90166729D01*
X211118703Y-90137308D01*
X211021719Y-90107889D01*
X211021717Y-90107888D01*
X211021719Y-90107888D01*
X210853517Y-90091322D01*
X210839106Y-90089902D01*
X210825399Y-90084367D01*
X210823674Y-90085477D01*
X210800893Y-90089902D01*
X210785044Y-90091463D01*
X210618282Y-90107888D01*
X210424308Y-90166729D01*
X210245557Y-90262274D01*
X210245551Y-90262278D01*
X210088865Y-90390865D01*
X209960278Y-90547551D01*
X209960274Y-90547557D01*
X209864729Y-90726308D01*
X209805888Y-90920282D01*
X209786021Y-91122000D01*
X209805888Y-91323717D01*
X209864729Y-91517691D01*
X209960274Y-91696442D01*
X209960278Y-91696448D01*
X210088863Y-91853131D01*
X210088864Y-91853132D01*
X210088866Y-91853134D01*
X210149164Y-91902618D01*
X210188499Y-91960364D01*
X210194500Y-91998472D01*
X210194500Y-100385811D01*
X210174815Y-100452850D01*
X210141623Y-100487386D01*
X209980859Y-100599953D01*
X209819954Y-100760858D01*
X209729612Y-100889882D01*
X209692713Y-100942581D01*
X209689435Y-100947262D01*
X209689431Y-100947267D01*
X209689313Y-100947521D01*
X209668657Y-100991819D01*
X209662382Y-101005275D01*
X209616209Y-101057714D01*
X209549016Y-101076866D01*
X209482135Y-101056650D01*
X209437618Y-101005275D01*
X209437220Y-101004422D01*
X209410568Y-100947266D01*
X209280047Y-100760861D01*
X209280045Y-100760858D01*
X209119140Y-100599953D01*
X208958377Y-100487386D01*
X208914752Y-100432809D01*
X208905500Y-100385811D01*
X208905500Y-91998472D01*
X208925185Y-91931433D01*
X208950836Y-91902618D01*
X209011134Y-91853134D01*
X209139722Y-91696448D01*
X209235272Y-91517687D01*
X209294111Y-91323719D01*
X209313979Y-91122000D01*
X209294111Y-90920281D01*
X209235272Y-90726313D01*
X209235270Y-90726310D01*
X209235270Y-90726308D01*
X209139725Y-90547557D01*
X209139721Y-90547551D01*
X209011134Y-90390865D01*
X208854448Y-90262278D01*
X208854442Y-90262274D01*
X208675691Y-90166729D01*
X208578703Y-90137308D01*
X208481719Y-90107889D01*
X208481717Y-90107888D01*
X208481719Y-90107888D01*
X208313517Y-90091322D01*
X208299106Y-90089902D01*
X208285399Y-90084367D01*
X208283674Y-90085477D01*
X208260893Y-90089902D01*
X208245044Y-90091463D01*
X208078282Y-90107888D01*
X207942898Y-90148956D01*
X207937537Y-90150583D01*
X207921011Y-90155596D01*
X207851144Y-90156219D01*
X207792031Y-90118971D01*
X207762440Y-90055676D01*
X207771767Y-89986432D01*
X207797330Y-89949259D01*
X207867773Y-89878816D01*
X207929095Y-89845334D01*
X207955452Y-89842500D01*
X208248739Y-89842500D01*
X208276482Y-89850646D01*
X208288156Y-89844672D01*
X208311261Y-89842500D01*
X210788739Y-89842500D01*
X210816482Y-89850646D01*
X210828156Y-89844672D01*
X210851261Y-89842500D01*
X211516608Y-89842500D01*
X211516608Y-89842499D01*
X211609378Y-89824047D01*
X211609379Y-89824047D01*
X211618821Y-89822168D01*
X211637452Y-89818463D01*
X211637457Y-89818460D01*
X211637460Y-89818460D01*
X211670787Y-89804654D01*
X211670786Y-89804654D01*
X211670792Y-89804652D01*
X211751286Y-89771312D01*
X211827831Y-89720165D01*
X211853733Y-89702858D01*
X211940858Y-89615733D01*
X211940859Y-89615731D01*
X211947925Y-89608665D01*
X211947928Y-89608661D01*
X213838729Y-87717860D01*
X213838733Y-87717858D01*
X213925858Y-87630733D01*
X213992189Y-87531462D01*
X213994312Y-87528285D01*
X214025245Y-87453606D01*
X214041463Y-87414452D01*
X214051514Y-87363916D01*
X214061705Y-87312688D01*
X214061705Y-87312683D01*
X214065500Y-87293607D01*
X214065500Y-87170393D01*
X214065500Y-73489741D01*
X214065501Y-73489720D01*
X214065501Y-73360393D01*
X214065500Y-73360390D01*
X214064319Y-73354455D01*
X214047164Y-73268206D01*
X214043238Y-73248468D01*
X214043238Y-73248467D01*
X214041463Y-73239550D01*
X214041462Y-73239546D01*
X214040936Y-73238277D01*
X214006215Y-73154452D01*
X213994312Y-73125715D01*
X213994311Y-73125713D01*
X213994310Y-73125711D01*
X213925858Y-73023267D01*
X213925855Y-73023263D01*
X211544808Y-70642218D01*
X211511323Y-70580895D01*
X211516307Y-70511203D01*
X211536634Y-70475875D01*
X211655910Y-70330538D01*
X211748814Y-70156727D01*
X211806024Y-69968132D01*
X211825341Y-69772000D01*
X211806024Y-69575868D01*
X211762531Y-69432494D01*
X211761909Y-69362628D01*
X211799157Y-69303516D01*
X211862451Y-69273925D01*
X211881193Y-69272500D01*
X214267770Y-69272500D01*
X214334809Y-69292185D01*
G37*
%TD.AperFunction*%
%TA.AperFunction,Conductor*%
G36*
X228543039Y-66059685D02*
G01*
X228588794Y-66112489D01*
X228600000Y-66164000D01*
X228600000Y-111636000D01*
X228580315Y-111703039D01*
X228527511Y-111748794D01*
X228476000Y-111760000D01*
X122044000Y-111760000D01*
X121976961Y-111740315D01*
X121931206Y-111687511D01*
X121920000Y-111636000D01*
X121920000Y-108056287D01*
X124379500Y-108056287D01*
X124412754Y-108266243D01*
X124473565Y-108453400D01*
X124478444Y-108468414D01*
X124574951Y-108657820D01*
X124699890Y-108829786D01*
X124850213Y-108980109D01*
X125022179Y-109105048D01*
X125022181Y-109105049D01*
X125022184Y-109105051D01*
X125211588Y-109201557D01*
X125413757Y-109267246D01*
X125623713Y-109300500D01*
X125623714Y-109300500D01*
X125836286Y-109300500D01*
X125836287Y-109300500D01*
X126046243Y-109267246D01*
X126248412Y-109201557D01*
X126437816Y-109105051D01*
X126509815Y-109052741D01*
X126609786Y-108980109D01*
X126609788Y-108980106D01*
X126609792Y-108980104D01*
X126760104Y-108829792D01*
X126760106Y-108829788D01*
X126760109Y-108829786D01*
X126885048Y-108657820D01*
X126885047Y-108657820D01*
X126885051Y-108657816D01*
X126981557Y-108468412D01*
X127047246Y-108266243D01*
X127080500Y-108056287D01*
X127080500Y-107843713D01*
X127047246Y-107633757D01*
X126981557Y-107431588D01*
X126885051Y-107242184D01*
X126885049Y-107242181D01*
X126885048Y-107242179D01*
X126760109Y-107070213D01*
X126609786Y-106919890D01*
X126437820Y-106794951D01*
X126248414Y-106698444D01*
X126248413Y-106698443D01*
X126248412Y-106698443D01*
X126046243Y-106632754D01*
X126046241Y-106632753D01*
X126046240Y-106632753D01*
X125884957Y-106607208D01*
X125836287Y-106599500D01*
X125623713Y-106599500D01*
X125575042Y-106607208D01*
X125413760Y-106632753D01*
X125413757Y-106632754D01*
X125298348Y-106670253D01*
X125211585Y-106698444D01*
X125022179Y-106794951D01*
X124850213Y-106919890D01*
X124699890Y-107070213D01*
X124574951Y-107242179D01*
X124478444Y-107431585D01*
X124412753Y-107633760D01*
X124395601Y-107742054D01*
X124379500Y-107843713D01*
X124379500Y-108056287D01*
X121920000Y-108056287D01*
X121920000Y-85772794D01*
X136454500Y-85772794D01*
X136463458Y-85817832D01*
X136478344Y-85892672D01*
X136478537Y-85893639D01*
X136478537Y-85893640D01*
X136525685Y-86007469D01*
X136525687Y-86007472D01*
X136525688Y-86007474D01*
X136541503Y-86031142D01*
X136594141Y-86109920D01*
X136594144Y-86109924D01*
X136685586Y-86201366D01*
X136685608Y-86201386D01*
X139682006Y-89197784D01*
X139682035Y-89197815D01*
X139772253Y-89288033D01*
X139772261Y-89288039D01*
X139822057Y-89321312D01*
X139822059Y-89321313D01*
X139874698Y-89356487D01*
X139874701Y-89356488D01*
X139874704Y-89356490D01*
X139905778Y-89369361D01*
X139944388Y-89385354D01*
X139944393Y-89385355D01*
X139944397Y-89385357D01*
X139988538Y-89403641D01*
X140048961Y-89415659D01*
X140109383Y-89427678D01*
X140109384Y-89427678D01*
X148478786Y-89427678D01*
X148545825Y-89447363D01*
X148566467Y-89463997D01*
X158250029Y-99147561D01*
X158283514Y-99208884D01*
X158278530Y-99278576D01*
X158236658Y-99334509D01*
X158171194Y-99358926D01*
X158102921Y-99344074D01*
X158097070Y-99340669D01*
X158017179Y-99291202D01*
X158017177Y-99291201D01*
X157809804Y-99210865D01*
X157591193Y-99170000D01*
X157368807Y-99170000D01*
X157150195Y-99210865D01*
X156942824Y-99291200D01*
X156942823Y-99291201D01*
X156826671Y-99363119D01*
X157480000Y-100016447D01*
X157483553Y-100020000D01*
X157433922Y-100020000D01*
X157344905Y-100043852D01*
X157265095Y-100089930D01*
X157199930Y-100155095D01*
X157153852Y-100234905D01*
X157130000Y-100323922D01*
X157130000Y-100416078D01*
X157153852Y-100505095D01*
X157199930Y-100584905D01*
X157265095Y-100650070D01*
X157344905Y-100696148D01*
X157433922Y-100720000D01*
X157526078Y-100720000D01*
X157615095Y-100696148D01*
X157694905Y-100650070D01*
X157760070Y-100584905D01*
X157806148Y-100505095D01*
X157830000Y-100416078D01*
X157830000Y-100366447D01*
X158488861Y-101025308D01*
X158504631Y-101004425D01*
X158504633Y-101004422D01*
X158603759Y-100805350D01*
X158664621Y-100591439D01*
X158685141Y-100370000D01*
X158685141Y-100369999D01*
X158664621Y-100148560D01*
X158603759Y-99934649D01*
X158512787Y-99751953D01*
X158500526Y-99683168D01*
X158527399Y-99618673D01*
X158584875Y-99578945D01*
X158654705Y-99576597D01*
X158711468Y-99609000D01*
X158730323Y-99627855D01*
X158730327Y-99627858D01*
X158832770Y-99696309D01*
X158832771Y-99696309D01*
X158832775Y-99696312D01*
X158899456Y-99723931D01*
X158899458Y-99723933D01*
X158943914Y-99742347D01*
X158946608Y-99743463D01*
X158966657Y-99747451D01*
X158989290Y-99751953D01*
X159067452Y-99767501D01*
X159067454Y-99767501D01*
X159196781Y-99767501D01*
X159196801Y-99767500D01*
X163915360Y-99767500D01*
X163982399Y-99787185D01*
X164003041Y-99803819D01*
X164438181Y-100238959D01*
X164471666Y-100300282D01*
X164474500Y-100326640D01*
X164474500Y-105803526D01*
X164454815Y-105870565D01*
X164429165Y-105899379D01*
X164368866Y-105948865D01*
X164240278Y-106105551D01*
X164240274Y-106105557D01*
X164144729Y-106284308D01*
X164085888Y-106478282D01*
X164066021Y-106680000D01*
X164085888Y-106881717D01*
X164108628Y-106956680D01*
X164143067Y-107070213D01*
X164144729Y-107075689D01*
X164180198Y-107142046D01*
X164194440Y-107210449D01*
X164169440Y-107275693D01*
X164113135Y-107317064D01*
X164070840Y-107324500D01*
X163712500Y-107324500D01*
X163645461Y-107304815D01*
X163599706Y-107252011D01*
X163588500Y-107200500D01*
X163588500Y-106930000D01*
X162774570Y-106930000D01*
X162822866Y-106881704D01*
X162866114Y-106806796D01*
X162888500Y-106723248D01*
X162888500Y-106636752D01*
X162866114Y-106553204D01*
X162822866Y-106478296D01*
X162761704Y-106417134D01*
X162686796Y-106373886D01*
X162603248Y-106351500D01*
X162516752Y-106351500D01*
X162433204Y-106373886D01*
X162358296Y-106417134D01*
X162297134Y-106478296D01*
X162253886Y-106553204D01*
X162231500Y-106636752D01*
X162231500Y-106723248D01*
X162253886Y-106806796D01*
X162297134Y-106881704D01*
X162345430Y-106930000D01*
X161531500Y-106930000D01*
X161531500Y-107200500D01*
X161511815Y-107267539D01*
X161459011Y-107313294D01*
X161407500Y-107324500D01*
X159060452Y-107324500D01*
X158993413Y-107304815D01*
X158972771Y-107288181D01*
X158779412Y-107094822D01*
X158745927Y-107033499D01*
X158747318Y-106975048D01*
X158765635Y-106906692D01*
X158785468Y-106680000D01*
X158765635Y-106453308D01*
X158759390Y-106430000D01*
X161531500Y-106430000D01*
X162310000Y-106430000D01*
X162310000Y-105651500D01*
X162810000Y-105651500D01*
X162810000Y-106430000D01*
X163588500Y-106430000D01*
X163588500Y-106103672D01*
X163588499Y-106103655D01*
X163582098Y-106044127D01*
X163582096Y-106044120D01*
X163531854Y-105909413D01*
X163531850Y-105909406D01*
X163445690Y-105794312D01*
X163445687Y-105794309D01*
X163330593Y-105708149D01*
X163330586Y-105708145D01*
X163195879Y-105657903D01*
X163195872Y-105657901D01*
X163136344Y-105651500D01*
X162810000Y-105651500D01*
X162310000Y-105651500D01*
X161983655Y-105651500D01*
X161924127Y-105657901D01*
X161924120Y-105657903D01*
X161789413Y-105708145D01*
X161789406Y-105708149D01*
X161674312Y-105794309D01*
X161674309Y-105794312D01*
X161588149Y-105909406D01*
X161588145Y-105909413D01*
X161537903Y-106044120D01*
X161537901Y-106044127D01*
X161531500Y-106103655D01*
X161531500Y-106430000D01*
X158759390Y-106430000D01*
X158706739Y-106233504D01*
X158610568Y-106027266D01*
X158480047Y-105840861D01*
X158480045Y-105840858D01*
X158319140Y-105679953D01*
X158158377Y-105567386D01*
X158114752Y-105512809D01*
X158105500Y-105465811D01*
X158105500Y-103963765D01*
X158125185Y-103896726D01*
X158164220Y-103858340D01*
X158206562Y-103832124D01*
X158370981Y-103682236D01*
X158505058Y-103504689D01*
X158604229Y-103305528D01*
X158665115Y-103091536D01*
X158685643Y-102870000D01*
X158665115Y-102648464D01*
X158604229Y-102434472D01*
X158596713Y-102419377D01*
X158505061Y-102235316D01*
X158505056Y-102235308D01*
X158370979Y-102057761D01*
X158206562Y-101907876D01*
X158206560Y-101907874D01*
X158017404Y-101790754D01*
X158017398Y-101790751D01*
X157917225Y-101751944D01*
X157874411Y-101735358D01*
X157819011Y-101692786D01*
X157795420Y-101627019D01*
X157811131Y-101558939D01*
X157861155Y-101510160D01*
X157874412Y-101504105D01*
X158017177Y-101448797D01*
X158017181Y-101448795D01*
X158133326Y-101376879D01*
X157480001Y-100723553D01*
X157480000Y-100723553D01*
X156826672Y-101376879D01*
X156826672Y-101376880D01*
X156942821Y-101448797D01*
X156942822Y-101448798D01*
X157085587Y-101504105D01*
X157140988Y-101546678D01*
X157164579Y-101612445D01*
X157148868Y-101680525D01*
X157098844Y-101729304D01*
X157085587Y-101735359D01*
X156942601Y-101790751D01*
X156942595Y-101790754D01*
X156753439Y-101907874D01*
X156753437Y-101907876D01*
X156589020Y-102057761D01*
X156454943Y-102235308D01*
X156454938Y-102235316D01*
X156355775Y-102434461D01*
X156355769Y-102434476D01*
X156294885Y-102648462D01*
X156294884Y-102648464D01*
X156274357Y-102869999D01*
X156274357Y-102870000D01*
X156294884Y-103091535D01*
X156294885Y-103091537D01*
X156355769Y-103305523D01*
X156355775Y-103305538D01*
X156454938Y-103504683D01*
X156454943Y-103504691D01*
X156589020Y-103682238D01*
X156753433Y-103832120D01*
X156753435Y-103832122D01*
X156753437Y-103832123D01*
X156753438Y-103832124D01*
X156795778Y-103858339D01*
X156842412Y-103910364D01*
X156854500Y-103963765D01*
X156854500Y-105465811D01*
X156834815Y-105532850D01*
X156801623Y-105567386D01*
X156640859Y-105679953D01*
X156479954Y-105840858D01*
X156349432Y-106027265D01*
X156349431Y-106027267D01*
X156253261Y-106233502D01*
X156253258Y-106233511D01*
X156194366Y-106453302D01*
X156194364Y-106453313D01*
X156174532Y-106679998D01*
X156174532Y-106680001D01*
X156194364Y-106906686D01*
X156194366Y-106906697D01*
X156253258Y-107126488D01*
X156253261Y-107126497D01*
X156349431Y-107332732D01*
X156349432Y-107332734D01*
X156479954Y-107519141D01*
X156640858Y-107680045D01*
X156640861Y-107680047D01*
X156827266Y-107810568D01*
X156885116Y-107837544D01*
X156886347Y-107838118D01*
X156938786Y-107884291D01*
X156957938Y-107951484D01*
X156937722Y-108018365D01*
X156884556Y-108063700D01*
X156833942Y-108074500D01*
X147966058Y-108074500D01*
X147899019Y-108054815D01*
X147853264Y-108002011D01*
X147843320Y-107932853D01*
X147872345Y-107869297D01*
X147913653Y-107838118D01*
X147914884Y-107837544D01*
X147972734Y-107810568D01*
X148159139Y-107680047D01*
X148320047Y-107519139D01*
X148450568Y-107332734D01*
X148546739Y-107126496D01*
X148605635Y-106906692D01*
X148625468Y-106680000D01*
X148605635Y-106453308D01*
X148546739Y-106233504D01*
X148450568Y-106027266D01*
X148320047Y-105840861D01*
X148320045Y-105840858D01*
X148159141Y-105679954D01*
X147972731Y-105549430D01*
X147968039Y-105546721D01*
X147969267Y-105544592D01*
X147924617Y-105505230D01*
X147905500Y-105439083D01*
X147905500Y-104197814D01*
X147925185Y-104130775D01*
X147970483Y-104088759D01*
X147986566Y-104080055D01*
X148048626Y-104046470D01*
X148049016Y-104046167D01*
X148177496Y-103946167D01*
X148231784Y-103903913D01*
X148388979Y-103733153D01*
X148515924Y-103538849D01*
X148609157Y-103326300D01*
X148666134Y-103101305D01*
X148666835Y-103092848D01*
X148685300Y-102870006D01*
X148685300Y-102869993D01*
X148666135Y-102638702D01*
X148666133Y-102638691D01*
X148609157Y-102413699D01*
X148515924Y-102201151D01*
X148388983Y-102006852D01*
X148388980Y-102006849D01*
X148388979Y-102006847D01*
X148231784Y-101836087D01*
X148231779Y-101836083D01*
X148231777Y-101836081D01*
X148048634Y-101693535D01*
X148048623Y-101693528D01*
X147897499Y-101611744D01*
X147847908Y-101562524D01*
X147832800Y-101494308D01*
X147856970Y-101428752D01*
X147898536Y-101394859D01*
X147897886Y-101393732D01*
X147902574Y-101391024D01*
X147902581Y-101391021D01*
X148077519Y-101268529D01*
X148228529Y-101117519D01*
X148351021Y-100942581D01*
X148441276Y-100749030D01*
X148496549Y-100542747D01*
X148511662Y-100370000D01*
X156274859Y-100370000D01*
X156295378Y-100591439D01*
X156356240Y-100805350D01*
X156455369Y-101004428D01*
X156471137Y-101025308D01*
X156471138Y-101025308D01*
X157126447Y-100370000D01*
X156471138Y-99714691D01*
X156471137Y-99714691D01*
X156455368Y-99735574D01*
X156356240Y-99934649D01*
X156295378Y-100148560D01*
X156274859Y-100369999D01*
X156274859Y-100370000D01*
X148511662Y-100370000D01*
X148515162Y-100330000D01*
X148513837Y-100314860D01*
X148505380Y-100218196D01*
X148496549Y-100117253D01*
X148446714Y-99931264D01*
X148441278Y-99910977D01*
X148441277Y-99910976D01*
X148441276Y-99910970D01*
X148351021Y-99717419D01*
X148228529Y-99542481D01*
X148228527Y-99542478D01*
X148077521Y-99391472D01*
X147902578Y-99268977D01*
X147902579Y-99268977D01*
X147773547Y-99208809D01*
X147709030Y-99178724D01*
X147709026Y-99178723D01*
X147709022Y-99178721D01*
X147502752Y-99123452D01*
X147502748Y-99123451D01*
X147502747Y-99123451D01*
X147502746Y-99123450D01*
X147502741Y-99123450D01*
X147290002Y-99104838D01*
X147289997Y-99104838D01*
X147196982Y-99112975D01*
X147128482Y-99099208D01*
X147098495Y-99077128D01*
X146002870Y-97981502D01*
X145969385Y-97920179D01*
X145967023Y-97883018D01*
X145975162Y-97790000D01*
X145956549Y-97577253D01*
X145901276Y-97370970D01*
X145811021Y-97177419D01*
X145688529Y-97002481D01*
X145688527Y-97002478D01*
X145537521Y-96851472D01*
X145362578Y-96728977D01*
X145362579Y-96728977D01*
X145233547Y-96668809D01*
X145169030Y-96638724D01*
X145169026Y-96638723D01*
X145169022Y-96638721D01*
X144962752Y-96583452D01*
X144962748Y-96583451D01*
X144962747Y-96583451D01*
X144962746Y-96583450D01*
X144962741Y-96583450D01*
X144750002Y-96564838D01*
X144749998Y-96564838D01*
X144537258Y-96583450D01*
X144537247Y-96583452D01*
X144330977Y-96638721D01*
X144330968Y-96638725D01*
X144137421Y-96728977D01*
X143962478Y-96851472D01*
X143811472Y-97002478D01*
X143688977Y-97177421D01*
X143598725Y-97370968D01*
X143598721Y-97370977D01*
X143543452Y-97577247D01*
X143543450Y-97577258D01*
X143524838Y-97789998D01*
X143524838Y-97790002D01*
X143532975Y-97883015D01*
X143519208Y-97951515D01*
X143497130Y-97981502D01*
X143405449Y-98073182D01*
X143344129Y-98106666D01*
X143317770Y-98109500D01*
X142317309Y-98109500D01*
X142250270Y-98089815D01*
X142229628Y-98073181D01*
X141292062Y-97135614D01*
X141396272Y-97059902D01*
X141569902Y-96886272D01*
X141645614Y-96782061D01*
X142560494Y-97696941D01*
X142756806Y-97433251D01*
X142922215Y-97146754D01*
X142922221Y-97146741D01*
X143053250Y-96842982D01*
X143148130Y-96526057D01*
X143148134Y-96526041D01*
X143205575Y-96200274D01*
X143205576Y-96200263D01*
X143224813Y-95870003D01*
X146335187Y-95870003D01*
X146354423Y-96200263D01*
X146354424Y-96200274D01*
X146411865Y-96526041D01*
X146411869Y-96526057D01*
X146506749Y-96842982D01*
X146637778Y-97146741D01*
X146637784Y-97146754D01*
X146803193Y-97433251D01*
X146999503Y-97696941D01*
X147914384Y-96782060D01*
X147990098Y-96886272D01*
X148163728Y-97059902D01*
X148267937Y-97135614D01*
X147356387Y-98047164D01*
X147356388Y-98047165D01*
X147481190Y-98151887D01*
X147757596Y-98333681D01*
X148053219Y-98482149D01*
X148053220Y-98482150D01*
X148364091Y-98595298D01*
X148364106Y-98595303D01*
X148685987Y-98671591D01*
X148686002Y-98671593D01*
X149014595Y-98709999D01*
X149014596Y-98710000D01*
X149345404Y-98710000D01*
X149345404Y-98709999D01*
X149673997Y-98671593D01*
X149674012Y-98671591D01*
X149995893Y-98595303D01*
X149995908Y-98595298D01*
X150306779Y-98482150D01*
X150306780Y-98482149D01*
X150602403Y-98333681D01*
X150878808Y-98151887D01*
X151003610Y-98047165D01*
X151003611Y-98047164D01*
X150092062Y-97135614D01*
X150196272Y-97059902D01*
X150369902Y-96886272D01*
X150445614Y-96782061D01*
X151360494Y-97696941D01*
X151556806Y-97433251D01*
X151722215Y-97146754D01*
X151722221Y-97146741D01*
X151853250Y-96842982D01*
X151948130Y-96526057D01*
X151948134Y-96526041D01*
X152005575Y-96200274D01*
X152005576Y-96200263D01*
X152024813Y-95870003D01*
X152024813Y-95869996D01*
X152005576Y-95539736D01*
X152005575Y-95539725D01*
X151948134Y-95213958D01*
X151948130Y-95213942D01*
X151853250Y-94897017D01*
X151722221Y-94593258D01*
X151722215Y-94593245D01*
X151556806Y-94306748D01*
X151360495Y-94043057D01*
X151360494Y-94043057D01*
X150445614Y-94957937D01*
X150369902Y-94853728D01*
X150196272Y-94680098D01*
X150092061Y-94604384D01*
X151003611Y-93692834D01*
X151003610Y-93692833D01*
X150878809Y-93588112D01*
X150602403Y-93406318D01*
X150306780Y-93257850D01*
X150306779Y-93257849D01*
X149995908Y-93144701D01*
X149995893Y-93144696D01*
X149674012Y-93068408D01*
X149673997Y-93068406D01*
X149345404Y-93030000D01*
X149014596Y-93030000D01*
X148686002Y-93068406D01*
X148685987Y-93068408D01*
X148364106Y-93144696D01*
X148364091Y-93144701D01*
X148053220Y-93257849D01*
X148053219Y-93257850D01*
X147757589Y-93406321D01*
X147481201Y-93588105D01*
X147481194Y-93588110D01*
X147356387Y-93692833D01*
X148267938Y-94604384D01*
X148163728Y-94680098D01*
X147990098Y-94853728D01*
X147914385Y-94957938D01*
X146999504Y-94043057D01*
X146803193Y-94306748D01*
X146637784Y-94593245D01*
X146637778Y-94593258D01*
X146506749Y-94897017D01*
X146411869Y-95213942D01*
X146411865Y-95213958D01*
X146354424Y-95539725D01*
X146354423Y-95539736D01*
X146335187Y-95869996D01*
X146335187Y-95870003D01*
X143224813Y-95870003D01*
X143224813Y-95869996D01*
X143205576Y-95539736D01*
X143205575Y-95539725D01*
X143148134Y-95213958D01*
X143148130Y-95213942D01*
X143053250Y-94897017D01*
X142922221Y-94593258D01*
X142922215Y-94593245D01*
X142756806Y-94306748D01*
X142560495Y-94043057D01*
X142560494Y-94043057D01*
X141645614Y-94957937D01*
X141569902Y-94853728D01*
X141396272Y-94680098D01*
X141292061Y-94604384D01*
X142203611Y-93692834D01*
X142203610Y-93692833D01*
X142078809Y-93588112D01*
X141802403Y-93406318D01*
X141506780Y-93257850D01*
X141506779Y-93257849D01*
X141195908Y-93144701D01*
X141195893Y-93144696D01*
X140874012Y-93068408D01*
X140873997Y-93068406D01*
X140545404Y-93030000D01*
X140214596Y-93030000D01*
X139886002Y-93068406D01*
X139885987Y-93068408D01*
X139564106Y-93144696D01*
X139564091Y-93144701D01*
X139253220Y-93257849D01*
X139253219Y-93257850D01*
X138957589Y-93406321D01*
X138681201Y-93588105D01*
X138681194Y-93588110D01*
X138556387Y-93692833D01*
X139467938Y-94604384D01*
X139363728Y-94680098D01*
X139190098Y-94853728D01*
X139114384Y-94957938D01*
X138199504Y-94043058D01*
X138003193Y-94306748D01*
X137837784Y-94593245D01*
X137837778Y-94593258D01*
X137706749Y-94897017D01*
X137611869Y-95213942D01*
X137611865Y-95213958D01*
X137554424Y-95539725D01*
X137554423Y-95539736D01*
X137535187Y-95869996D01*
X137535187Y-95870003D01*
X137554423Y-96200263D01*
X137554424Y-96200274D01*
X137611865Y-96526041D01*
X137611869Y-96526057D01*
X137706749Y-96842982D01*
X137837778Y-97146741D01*
X137837784Y-97146754D01*
X138003193Y-97433251D01*
X138199503Y-97696941D01*
X139114383Y-96782060D01*
X139190098Y-96886272D01*
X139363728Y-97059902D01*
X139467937Y-97135614D01*
X138556387Y-98047164D01*
X138556388Y-98047165D01*
X138681190Y-98151887D01*
X138957596Y-98333681D01*
X139253219Y-98482149D01*
X139253220Y-98482150D01*
X139564091Y-98595298D01*
X139564106Y-98595303D01*
X139885987Y-98671591D01*
X139886002Y-98671593D01*
X140214595Y-98709999D01*
X140214596Y-98710000D01*
X140390375Y-98710000D01*
X140457414Y-98729685D01*
X140503169Y-98782489D01*
X140513113Y-98851647D01*
X140484088Y-98915203D01*
X140478056Y-98921681D01*
X140157052Y-99242684D01*
X140157049Y-99242687D01*
X140107812Y-99316377D01*
X140074921Y-99365602D01*
X140074914Y-99365614D01*
X140018342Y-99502192D01*
X140018340Y-99502198D01*
X139989500Y-99647185D01*
X139989500Y-99647188D01*
X139989500Y-101443918D01*
X139989500Y-101443920D01*
X139989499Y-101443920D01*
X140018340Y-101588907D01*
X140018343Y-101588917D01*
X140074914Y-101725492D01*
X140104318Y-101769498D01*
X140104319Y-101769501D01*
X140157046Y-101848414D01*
X140157052Y-101848421D01*
X140857315Y-102548683D01*
X140890800Y-102610006D01*
X140893210Y-102646601D01*
X140875363Y-102862009D01*
X140874700Y-102870005D01*
X140874700Y-102870006D01*
X140893864Y-103101297D01*
X140893866Y-103101308D01*
X140950842Y-103326300D01*
X141044075Y-103538848D01*
X141171016Y-103733147D01*
X141171019Y-103733151D01*
X141171021Y-103733153D01*
X141328216Y-103903913D01*
X141472044Y-104015858D01*
X141481662Y-104023344D01*
X141522475Y-104080055D01*
X141529500Y-104121198D01*
X141529500Y-105523917D01*
X141529499Y-105523920D01*
X141558340Y-105668907D01*
X141558342Y-105668913D01*
X141614915Y-105805493D01*
X141617073Y-105808722D01*
X141617077Y-105808734D01*
X141617080Y-105808733D01*
X141690108Y-105918030D01*
X141697051Y-105928420D01*
X141697052Y-105928421D01*
X145176584Y-109407952D01*
X145176586Y-109407954D01*
X145206058Y-109427645D01*
X145250270Y-109457186D01*
X145299505Y-109490084D01*
X145299506Y-109490084D01*
X145299507Y-109490085D01*
X145299509Y-109490086D01*
X145323613Y-109500070D01*
X145436087Y-109546658D01*
X145436091Y-109546658D01*
X145436092Y-109546659D01*
X145581079Y-109575500D01*
X145581082Y-109575500D01*
X208748920Y-109575500D01*
X208864730Y-109552463D01*
X208893913Y-109546658D01*
X209030495Y-109490084D01*
X209079729Y-109457186D01*
X209079734Y-109457183D01*
X209113076Y-109434905D01*
X209153416Y-109407952D01*
X209404429Y-109156937D01*
X209465748Y-109123455D01*
X209535440Y-109128439D01*
X209591374Y-109170310D01*
X209615578Y-109233180D01*
X209634884Y-109441535D01*
X209634885Y-109441537D01*
X209695769Y-109655523D01*
X209695775Y-109655538D01*
X209794938Y-109854683D01*
X209794943Y-109854691D01*
X209929020Y-110032238D01*
X210093437Y-110182123D01*
X210093439Y-110182125D01*
X210282595Y-110299245D01*
X210282596Y-110299245D01*
X210282599Y-110299247D01*
X210490060Y-110379618D01*
X210708757Y-110420500D01*
X210708759Y-110420500D01*
X210931241Y-110420500D01*
X210931243Y-110420500D01*
X211149940Y-110379618D01*
X211357401Y-110299247D01*
X211474278Y-110226880D01*
X212666672Y-110226880D01*
X212782821Y-110298797D01*
X212782822Y-110298798D01*
X212990195Y-110379134D01*
X213208807Y-110420000D01*
X213431193Y-110420000D01*
X213649809Y-110379133D01*
X213857168Y-110298801D01*
X213857181Y-110298795D01*
X213973326Y-110226879D01*
X213320001Y-109573553D01*
X213320000Y-109573553D01*
X212666672Y-110226879D01*
X212666672Y-110226880D01*
X211474278Y-110226880D01*
X211546562Y-110182124D01*
X211710981Y-110032236D01*
X211845058Y-109854689D01*
X211944229Y-109655528D01*
X211950994Y-109631750D01*
X211988271Y-109572661D01*
X212051580Y-109543102D01*
X212120820Y-109552463D01*
X212174007Y-109597772D01*
X212189525Y-109631753D01*
X212196236Y-109655342D01*
X212196239Y-109655348D01*
X212295369Y-109854428D01*
X212311137Y-109875308D01*
X212311138Y-109875308D01*
X212920369Y-109266078D01*
X212970000Y-109266078D01*
X212993852Y-109355095D01*
X213039930Y-109434905D01*
X213105095Y-109500070D01*
X213184905Y-109546148D01*
X213273922Y-109570000D01*
X213366078Y-109570000D01*
X213455095Y-109546148D01*
X213534905Y-109500070D01*
X213600070Y-109434905D01*
X213646148Y-109355095D01*
X213670000Y-109266078D01*
X213670000Y-109220000D01*
X213673553Y-109220000D01*
X214328861Y-109875308D01*
X214344631Y-109854425D01*
X214344633Y-109854422D01*
X214443759Y-109655350D01*
X214504621Y-109441439D01*
X214525141Y-109220000D01*
X214525141Y-109219999D01*
X214504621Y-108998560D01*
X214443759Y-108784649D01*
X214344635Y-108585580D01*
X214344630Y-108585572D01*
X214328860Y-108564690D01*
X213673553Y-109219999D01*
X213673553Y-109220000D01*
X213670000Y-109220000D01*
X213670000Y-109173922D01*
X213646148Y-109084905D01*
X213600070Y-109005095D01*
X213534905Y-108939930D01*
X213455095Y-108893852D01*
X213366078Y-108870000D01*
X213273922Y-108870000D01*
X213184905Y-108893852D01*
X213105095Y-108939930D01*
X213039930Y-109005095D01*
X212993852Y-109084905D01*
X212970000Y-109173922D01*
X212970000Y-109266078D01*
X212920369Y-109266078D01*
X212966447Y-109220000D01*
X212311138Y-108564691D01*
X212311137Y-108564691D01*
X212295368Y-108585574D01*
X212196239Y-108784651D01*
X212196238Y-108784652D01*
X212189525Y-108808248D01*
X212152245Y-108867340D01*
X212088935Y-108896898D01*
X212019696Y-108887535D01*
X211966510Y-108842224D01*
X211950995Y-108808253D01*
X211944229Y-108784472D01*
X211944224Y-108784461D01*
X211845061Y-108585316D01*
X211845056Y-108585308D01*
X211799971Y-108525606D01*
X211710981Y-108407764D01*
X211710978Y-108407761D01*
X211710974Y-108407757D01*
X211610962Y-108316584D01*
X211574680Y-108256873D01*
X211570500Y-108224947D01*
X211570500Y-108213119D01*
X212666671Y-108213119D01*
X213320000Y-108866447D01*
X213320001Y-108866447D01*
X213973327Y-108213119D01*
X213857178Y-108141202D01*
X213857177Y-108141201D01*
X213649804Y-108060865D01*
X213431193Y-108020000D01*
X213208807Y-108020000D01*
X212990195Y-108060865D01*
X212782824Y-108141200D01*
X212782823Y-108141201D01*
X212666671Y-108213119D01*
X211570500Y-108213119D01*
X211570500Y-107554500D01*
X211590185Y-107487461D01*
X211642989Y-107441706D01*
X211694500Y-107430500D01*
X217017649Y-107430500D01*
X217084688Y-107450185D01*
X217130443Y-107502989D01*
X217140939Y-107541248D01*
X217145908Y-107587483D01*
X217196202Y-107722328D01*
X217196206Y-107722335D01*
X217282452Y-107837544D01*
X217282453Y-107837544D01*
X217282454Y-107837546D01*
X217291545Y-107844351D01*
X217333416Y-107900282D01*
X217338402Y-107969974D01*
X217318813Y-108014736D01*
X217309871Y-108027507D01*
X217309868Y-108027512D01*
X217213734Y-108233673D01*
X217213730Y-108233682D01*
X217154860Y-108453389D01*
X217154858Y-108453400D01*
X217135034Y-108679997D01*
X217135034Y-108680002D01*
X217154858Y-108906599D01*
X217154860Y-108906610D01*
X217213730Y-109126317D01*
X217213735Y-109126331D01*
X217309863Y-109332478D01*
X217360974Y-109405472D01*
X218040000Y-108726446D01*
X218040000Y-108732661D01*
X218067259Y-108834394D01*
X218119920Y-108925606D01*
X218194394Y-109000080D01*
X218285606Y-109052741D01*
X218387339Y-109080000D01*
X218393553Y-109080000D01*
X217714526Y-109759025D01*
X217787513Y-109810132D01*
X217787521Y-109810136D01*
X217993668Y-109906264D01*
X217993682Y-109906269D01*
X218213389Y-109965139D01*
X218213400Y-109965141D01*
X218439998Y-109984966D01*
X218440002Y-109984966D01*
X218666599Y-109965141D01*
X218666610Y-109965139D01*
X218886317Y-109906269D01*
X218886331Y-109906264D01*
X219092478Y-109810136D01*
X219165471Y-109759024D01*
X218486447Y-109080000D01*
X218492661Y-109080000D01*
X218594394Y-109052741D01*
X218685606Y-109000080D01*
X218760080Y-108925606D01*
X218812741Y-108834394D01*
X218840000Y-108732661D01*
X218840000Y-108726447D01*
X219519024Y-109405471D01*
X219570136Y-109332478D01*
X219666264Y-109126331D01*
X219666269Y-109126317D01*
X219725139Y-108906610D01*
X219725141Y-108906599D01*
X219744966Y-108680002D01*
X219744966Y-108679997D01*
X219725141Y-108453400D01*
X219725139Y-108453389D01*
X219666269Y-108233682D01*
X219666265Y-108233673D01*
X219583549Y-108056287D01*
X223439500Y-108056287D01*
X223472754Y-108266243D01*
X223533565Y-108453400D01*
X223538444Y-108468414D01*
X223634951Y-108657820D01*
X223759890Y-108829786D01*
X223910213Y-108980109D01*
X224082179Y-109105048D01*
X224082181Y-109105049D01*
X224082184Y-109105051D01*
X224271588Y-109201557D01*
X224473757Y-109267246D01*
X224683713Y-109300500D01*
X224683714Y-109300500D01*
X224896286Y-109300500D01*
X224896287Y-109300500D01*
X225106243Y-109267246D01*
X225308412Y-109201557D01*
X225497816Y-109105051D01*
X225569815Y-109052741D01*
X225669786Y-108980109D01*
X225669788Y-108980106D01*
X225669792Y-108980104D01*
X225820104Y-108829792D01*
X225820106Y-108829788D01*
X225820109Y-108829786D01*
X225945048Y-108657820D01*
X225945047Y-108657820D01*
X225945051Y-108657816D01*
X226041557Y-108468412D01*
X226107246Y-108266243D01*
X226140500Y-108056287D01*
X226140500Y-107843713D01*
X226107246Y-107633757D01*
X226041557Y-107431588D01*
X225945051Y-107242184D01*
X225945049Y-107242181D01*
X225945048Y-107242179D01*
X225820109Y-107070213D01*
X225669786Y-106919890D01*
X225497820Y-106794951D01*
X225308414Y-106698444D01*
X225308413Y-106698443D01*
X225308412Y-106698443D01*
X225106243Y-106632754D01*
X225106241Y-106632753D01*
X225106240Y-106632753D01*
X224944957Y-106607208D01*
X224896287Y-106599500D01*
X224683713Y-106599500D01*
X224635042Y-106607208D01*
X224473760Y-106632753D01*
X224473757Y-106632754D01*
X224358348Y-106670253D01*
X224271585Y-106698444D01*
X224082179Y-106794951D01*
X223910213Y-106919890D01*
X223759890Y-107070213D01*
X223634951Y-107242179D01*
X223538444Y-107431585D01*
X223472753Y-107633760D01*
X223455601Y-107742054D01*
X223439500Y-107843713D01*
X223439500Y-108056287D01*
X219583549Y-108056287D01*
X219570134Y-108027518D01*
X219570130Y-108027512D01*
X219561188Y-108014740D01*
X219538861Y-107948534D01*
X219555873Y-107880767D01*
X219588454Y-107844351D01*
X219597546Y-107837546D01*
X219683796Y-107722331D01*
X219734091Y-107587483D01*
X219740500Y-107527873D01*
X219740500Y-107527860D01*
X219740508Y-107527786D01*
X219767246Y-107463234D01*
X219824638Y-107423386D01*
X219839606Y-107419423D01*
X219893981Y-107408606D01*
X219928913Y-107401658D01*
X220065495Y-107345084D01*
X220124737Y-107305500D01*
X220124737Y-107305499D01*
X220124739Y-107305499D01*
X220181551Y-107267539D01*
X220188416Y-107262952D01*
X224102952Y-103348415D01*
X224134228Y-103301606D01*
X224185084Y-103225495D01*
X224229576Y-103118082D01*
X224231757Y-103112818D01*
X224236529Y-103101297D01*
X224241659Y-103088912D01*
X224270500Y-102943917D01*
X224270500Y-102796082D01*
X224270500Y-69776082D01*
X224270500Y-69776079D01*
X224254985Y-69698084D01*
X224254985Y-69698083D01*
X224241659Y-69631088D01*
X224187408Y-69500117D01*
X224185764Y-69495522D01*
X224102954Y-69371588D01*
X224102953Y-69371587D01*
X224102951Y-69371584D01*
X223998416Y-69267049D01*
X223667453Y-68936086D01*
X222670421Y-67939052D01*
X222670414Y-67939046D01*
X222596729Y-67889812D01*
X222596729Y-67889813D01*
X222547491Y-67856913D01*
X222410917Y-67800343D01*
X222410907Y-67800340D01*
X222265920Y-67771500D01*
X222265918Y-67771500D01*
X217243918Y-67771500D01*
X214703918Y-67771500D01*
X204563918Y-67771500D01*
X198104082Y-67771500D01*
X198104076Y-67771500D01*
X198075242Y-67777234D01*
X198075243Y-67777235D01*
X197959093Y-67800339D01*
X197959083Y-67800342D01*
X197879081Y-67833479D01*
X197879082Y-67833480D01*
X197822505Y-67856915D01*
X197740372Y-67911795D01*
X197699585Y-67939047D01*
X197699581Y-67939050D01*
X196937680Y-68700950D01*
X196876357Y-68734435D01*
X196806665Y-68729451D01*
X196762318Y-68700950D01*
X196000421Y-67939052D01*
X196000414Y-67939046D01*
X195926729Y-67889812D01*
X195926729Y-67889813D01*
X195877491Y-67856913D01*
X195740917Y-67800343D01*
X195740907Y-67800340D01*
X195595920Y-67771500D01*
X195595918Y-67771500D01*
X189283918Y-67771500D01*
X182953918Y-67771500D01*
X178883918Y-67771500D01*
X171523918Y-67771500D01*
X163883918Y-67771500D01*
X152473918Y-67771500D01*
X145956082Y-67771500D01*
X145956080Y-67771500D01*
X145811092Y-67800340D01*
X145811086Y-67800342D01*
X145674508Y-67856914D01*
X145674496Y-67856921D01*
X145625270Y-67889811D01*
X145625271Y-67889812D01*
X145551581Y-67939049D01*
X144749225Y-68741405D01*
X144687902Y-68774890D01*
X144673700Y-68777127D01*
X144583870Y-68785975D01*
X144395266Y-68843188D01*
X144221467Y-68936086D01*
X144221460Y-68936090D01*
X144069116Y-69061116D01*
X143944090Y-69213460D01*
X143944086Y-69213467D01*
X143851188Y-69387266D01*
X143793975Y-69575870D01*
X143774659Y-69772000D01*
X143793975Y-69968129D01*
X143851188Y-70156733D01*
X143944086Y-70330532D01*
X143944090Y-70330539D01*
X144069116Y-70482883D01*
X144221460Y-70607909D01*
X144221467Y-70607913D01*
X144395266Y-70700811D01*
X144395269Y-70700811D01*
X144395273Y-70700814D01*
X144583868Y-70758024D01*
X144780000Y-70777341D01*
X144976132Y-70758024D01*
X145164727Y-70700814D01*
X145170230Y-70697873D01*
X145274354Y-70642217D01*
X145338538Y-70607910D01*
X145490883Y-70482883D01*
X145615910Y-70330538D01*
X145708814Y-70156727D01*
X145766024Y-69968132D01*
X145774872Y-69878298D01*
X145801031Y-69813513D01*
X145810584Y-69802782D01*
X146121315Y-69492052D01*
X146182637Y-69458568D01*
X146252329Y-69463552D01*
X146308262Y-69505424D01*
X146332679Y-69570888D01*
X146332398Y-69591888D01*
X146314659Y-69771999D01*
X146333975Y-69968129D01*
X146391188Y-70156733D01*
X146484086Y-70330532D01*
X146484090Y-70330539D01*
X146603362Y-70475871D01*
X146630675Y-70540181D01*
X146618884Y-70609048D01*
X146595190Y-70642217D01*
X145377229Y-71860181D01*
X145315906Y-71893666D01*
X145289548Y-71896500D01*
X142329452Y-71896500D01*
X142262413Y-71876815D01*
X142216658Y-71824011D01*
X142206714Y-71754853D01*
X142235739Y-71691297D01*
X142241771Y-71684819D01*
X142523438Y-71403151D01*
X142638729Y-71287860D01*
X142638733Y-71287858D01*
X142725858Y-71200733D01*
X142794311Y-71098286D01*
X142841463Y-70984452D01*
X142856976Y-70906461D01*
X142859150Y-70895533D01*
X142859150Y-70895529D01*
X142865500Y-70863607D01*
X142865500Y-70740393D01*
X142865500Y-70611602D01*
X142885185Y-70544563D01*
X142910837Y-70515748D01*
X142950882Y-70482884D01*
X142956638Y-70475871D01*
X143075910Y-70330538D01*
X143168814Y-70156727D01*
X143226024Y-69968132D01*
X143245341Y-69772000D01*
X143226024Y-69575868D01*
X143168814Y-69387273D01*
X143168811Y-69387269D01*
X143168811Y-69387266D01*
X143075913Y-69213467D01*
X143075909Y-69213460D01*
X142950883Y-69061116D01*
X142798539Y-68936090D01*
X142798532Y-68936086D01*
X142624733Y-68843188D01*
X142624727Y-68843186D01*
X142436132Y-68785976D01*
X142436129Y-68785975D01*
X142240000Y-68766659D01*
X142043870Y-68785975D01*
X141855266Y-68843188D01*
X141681467Y-68936086D01*
X141681460Y-68936090D01*
X141529116Y-69061116D01*
X141404090Y-69213460D01*
X141404086Y-69213467D01*
X141311188Y-69387266D01*
X141253975Y-69575870D01*
X141234659Y-69772000D01*
X141253975Y-69968129D01*
X141311188Y-70156733D01*
X141404086Y-70330532D01*
X141404090Y-70330539D01*
X141523362Y-70475872D01*
X141550675Y-70540182D01*
X141538884Y-70609050D01*
X141515190Y-70642218D01*
X140747229Y-71410181D01*
X140685906Y-71443666D01*
X140659548Y-71446500D01*
X140239454Y-71446500D01*
X140172415Y-71426815D01*
X140126660Y-71374011D01*
X140116716Y-71304853D01*
X140145741Y-71241297D01*
X140151773Y-71234819D01*
X140185855Y-71200736D01*
X140185857Y-71200734D01*
X140185858Y-71200733D01*
X140254312Y-71098285D01*
X140301463Y-70984451D01*
X140313400Y-70924440D01*
X140325501Y-70863608D01*
X140325501Y-70735283D01*
X140325500Y-70735257D01*
X140325500Y-70611602D01*
X140345185Y-70544563D01*
X140370837Y-70515748D01*
X140410882Y-70482884D01*
X140416638Y-70475871D01*
X140535910Y-70330538D01*
X140628814Y-70156727D01*
X140686024Y-69968132D01*
X140705341Y-69772000D01*
X140686024Y-69575868D01*
X140628814Y-69387273D01*
X140628811Y-69387269D01*
X140628811Y-69387266D01*
X140535913Y-69213467D01*
X140535909Y-69213460D01*
X140410883Y-69061116D01*
X140258539Y-68936090D01*
X140258532Y-68936086D01*
X140084733Y-68843188D01*
X140084727Y-68843186D01*
X139896132Y-68785976D01*
X139896129Y-68785975D01*
X139700000Y-68766659D01*
X139503870Y-68785975D01*
X139315266Y-68843188D01*
X139141467Y-68936086D01*
X139141460Y-68936090D01*
X138989116Y-69061116D01*
X138864090Y-69213460D01*
X138864086Y-69213467D01*
X138771188Y-69387266D01*
X138713975Y-69575870D01*
X138694659Y-69772000D01*
X138713975Y-69968129D01*
X138771188Y-70156733D01*
X138864086Y-70330532D01*
X138864090Y-70330539D01*
X138983362Y-70475871D01*
X139010675Y-70540181D01*
X138998884Y-70609048D01*
X138975190Y-70642217D01*
X137153491Y-72463918D01*
X136681269Y-72936140D01*
X136681267Y-72936142D01*
X136637704Y-72979704D01*
X136594142Y-73023266D01*
X136573550Y-73054085D01*
X136573549Y-73054084D01*
X136525686Y-73125716D01*
X136525685Y-73125718D01*
X136492347Y-73206206D01*
X136492347Y-73206207D01*
X136478538Y-73239546D01*
X136478535Y-73239554D01*
X136473218Y-73266280D01*
X136473219Y-73266281D01*
X136455684Y-73354443D01*
X136455682Y-73354451D01*
X136454501Y-73360385D01*
X136454501Y-73360390D01*
X136454500Y-73360394D01*
X136454500Y-85772794D01*
X121920000Y-85772794D01*
X121920000Y-66164000D01*
X121939685Y-66096961D01*
X121992489Y-66051206D01*
X122044000Y-66040000D01*
X228476000Y-66040000D01*
X228543039Y-66059685D01*
G37*
%TD.AperFunction*%
%TD*%
M02*
