%TF.GenerationSoftware,KiCad,Pcbnew,8.0.0*%
%TF.CreationDate,2024-02-29T15:31:37+01:00*%
%TF.ProjectId,internet_clock_hardware,696e7465-726e-4657-945f-636c6f636b5f,REV 1.0*%
%TF.SameCoordinates,Original*%
%TF.FileFunction,Soldermask,Top*%
%TF.FilePolarity,Negative*%
%FSLAX46Y46*%
G04 Gerber Fmt 4.6, Leading zero omitted, Abs format (unit mm)*
G04 Created by KiCad (PCBNEW 8.0.0) date 2024-02-29 15:31:37*
%MOMM*%
%LPD*%
G01*
G04 APERTURE LIST*
%ADD10C,0.100000*%
%ADD11C,0.150000*%
%ADD12C,0.300000*%
%ADD13C,0.400000*%
%ADD14C,1.400000*%
%ADD15C,1.600000*%
%ADD16O,1.600000X1.600000*%
%ADD17C,1.800000*%
%ADD18C,4.680000*%
%ADD19C,2.200000*%
%ADD20R,1.800000X1.800000*%
%ADD21R,1.000000X1.000000*%
%ADD22C,1.000000*%
%ADD23C,1.440000*%
%ADD24R,1.057000X1.057000*%
%ADD25C,1.057000*%
%ADD26R,1.600000X1.600000*%
G04 APERTURE END LIST*
D10*
D11*
X177002200Y-166007200D02*
X285002200Y-166007200D01*
X285002200Y-198007200D01*
X177002200Y-198007200D01*
X177002200Y-166007200D01*
D10*
D11*
X10000000Y-10000000D02*
X287002200Y-10000000D01*
X287002200Y-200007200D01*
X10000000Y-200007200D01*
X10000000Y-10000000D01*
D10*
D11*
X12000000Y-12000000D02*
X285002200Y-12000000D01*
X285002200Y-198007200D01*
X12000000Y-198007200D01*
X12000000Y-12000000D01*
D10*
D11*
X60000000Y-12000000D02*
X60000000Y-10000000D01*
D10*
D11*
X110000000Y-12000000D02*
X110000000Y-10000000D01*
D10*
D11*
X160000000Y-12000000D02*
X160000000Y-10000000D01*
D10*
D11*
X210000000Y-12000000D02*
X210000000Y-10000000D01*
D10*
D11*
X260000000Y-12000000D02*
X260000000Y-10000000D01*
D10*
D11*
X36089160Y-11593604D02*
X35346303Y-11593604D01*
X35717731Y-11593604D02*
X35717731Y-10293604D01*
X35717731Y-10293604D02*
X35593922Y-10479319D01*
X35593922Y-10479319D02*
X35470112Y-10603128D01*
X35470112Y-10603128D02*
X35346303Y-10665033D01*
D10*
D11*
X85346303Y-10417414D02*
X85408207Y-10355509D01*
X85408207Y-10355509D02*
X85532017Y-10293604D01*
X85532017Y-10293604D02*
X85841541Y-10293604D01*
X85841541Y-10293604D02*
X85965350Y-10355509D01*
X85965350Y-10355509D02*
X86027255Y-10417414D01*
X86027255Y-10417414D02*
X86089160Y-10541223D01*
X86089160Y-10541223D02*
X86089160Y-10665033D01*
X86089160Y-10665033D02*
X86027255Y-10850747D01*
X86027255Y-10850747D02*
X85284398Y-11593604D01*
X85284398Y-11593604D02*
X86089160Y-11593604D01*
D10*
D11*
X135284398Y-10293604D02*
X136089160Y-10293604D01*
X136089160Y-10293604D02*
X135655826Y-10788842D01*
X135655826Y-10788842D02*
X135841541Y-10788842D01*
X135841541Y-10788842D02*
X135965350Y-10850747D01*
X135965350Y-10850747D02*
X136027255Y-10912652D01*
X136027255Y-10912652D02*
X136089160Y-11036461D01*
X136089160Y-11036461D02*
X136089160Y-11345985D01*
X136089160Y-11345985D02*
X136027255Y-11469795D01*
X136027255Y-11469795D02*
X135965350Y-11531700D01*
X135965350Y-11531700D02*
X135841541Y-11593604D01*
X135841541Y-11593604D02*
X135470112Y-11593604D01*
X135470112Y-11593604D02*
X135346303Y-11531700D01*
X135346303Y-11531700D02*
X135284398Y-11469795D01*
D10*
D11*
X185965350Y-10726938D02*
X185965350Y-11593604D01*
X185655826Y-10231700D02*
X185346303Y-11160271D01*
X185346303Y-11160271D02*
X186151064Y-11160271D01*
D10*
D11*
X236027255Y-10293604D02*
X235408207Y-10293604D01*
X235408207Y-10293604D02*
X235346303Y-10912652D01*
X235346303Y-10912652D02*
X235408207Y-10850747D01*
X235408207Y-10850747D02*
X235532017Y-10788842D01*
X235532017Y-10788842D02*
X235841541Y-10788842D01*
X235841541Y-10788842D02*
X235965350Y-10850747D01*
X235965350Y-10850747D02*
X236027255Y-10912652D01*
X236027255Y-10912652D02*
X236089160Y-11036461D01*
X236089160Y-11036461D02*
X236089160Y-11345985D01*
X236089160Y-11345985D02*
X236027255Y-11469795D01*
X236027255Y-11469795D02*
X235965350Y-11531700D01*
X235965350Y-11531700D02*
X235841541Y-11593604D01*
X235841541Y-11593604D02*
X235532017Y-11593604D01*
X235532017Y-11593604D02*
X235408207Y-11531700D01*
X235408207Y-11531700D02*
X235346303Y-11469795D01*
D10*
D11*
X285965350Y-10293604D02*
X285717731Y-10293604D01*
X285717731Y-10293604D02*
X285593922Y-10355509D01*
X285593922Y-10355509D02*
X285532017Y-10417414D01*
X285532017Y-10417414D02*
X285408207Y-10603128D01*
X285408207Y-10603128D02*
X285346303Y-10850747D01*
X285346303Y-10850747D02*
X285346303Y-11345985D01*
X285346303Y-11345985D02*
X285408207Y-11469795D01*
X285408207Y-11469795D02*
X285470112Y-11531700D01*
X285470112Y-11531700D02*
X285593922Y-11593604D01*
X285593922Y-11593604D02*
X285841541Y-11593604D01*
X285841541Y-11593604D02*
X285965350Y-11531700D01*
X285965350Y-11531700D02*
X286027255Y-11469795D01*
X286027255Y-11469795D02*
X286089160Y-11345985D01*
X286089160Y-11345985D02*
X286089160Y-11036461D01*
X286089160Y-11036461D02*
X286027255Y-10912652D01*
X286027255Y-10912652D02*
X285965350Y-10850747D01*
X285965350Y-10850747D02*
X285841541Y-10788842D01*
X285841541Y-10788842D02*
X285593922Y-10788842D01*
X285593922Y-10788842D02*
X285470112Y-10850747D01*
X285470112Y-10850747D02*
X285408207Y-10912652D01*
X285408207Y-10912652D02*
X285346303Y-11036461D01*
D10*
D11*
X60000000Y-198007200D02*
X60000000Y-200007200D01*
D10*
D11*
X110000000Y-198007200D02*
X110000000Y-200007200D01*
D10*
D11*
X160000000Y-198007200D02*
X160000000Y-200007200D01*
D10*
D11*
X210000000Y-198007200D02*
X210000000Y-200007200D01*
D10*
D11*
X260000000Y-198007200D02*
X260000000Y-200007200D01*
D10*
D11*
X36089160Y-199600804D02*
X35346303Y-199600804D01*
X35717731Y-199600804D02*
X35717731Y-198300804D01*
X35717731Y-198300804D02*
X35593922Y-198486519D01*
X35593922Y-198486519D02*
X35470112Y-198610328D01*
X35470112Y-198610328D02*
X35346303Y-198672233D01*
D10*
D11*
X85346303Y-198424614D02*
X85408207Y-198362709D01*
X85408207Y-198362709D02*
X85532017Y-198300804D01*
X85532017Y-198300804D02*
X85841541Y-198300804D01*
X85841541Y-198300804D02*
X85965350Y-198362709D01*
X85965350Y-198362709D02*
X86027255Y-198424614D01*
X86027255Y-198424614D02*
X86089160Y-198548423D01*
X86089160Y-198548423D02*
X86089160Y-198672233D01*
X86089160Y-198672233D02*
X86027255Y-198857947D01*
X86027255Y-198857947D02*
X85284398Y-199600804D01*
X85284398Y-199600804D02*
X86089160Y-199600804D01*
D10*
D11*
X135284398Y-198300804D02*
X136089160Y-198300804D01*
X136089160Y-198300804D02*
X135655826Y-198796042D01*
X135655826Y-198796042D02*
X135841541Y-198796042D01*
X135841541Y-198796042D02*
X135965350Y-198857947D01*
X135965350Y-198857947D02*
X136027255Y-198919852D01*
X136027255Y-198919852D02*
X136089160Y-199043661D01*
X136089160Y-199043661D02*
X136089160Y-199353185D01*
X136089160Y-199353185D02*
X136027255Y-199476995D01*
X136027255Y-199476995D02*
X135965350Y-199538900D01*
X135965350Y-199538900D02*
X135841541Y-199600804D01*
X135841541Y-199600804D02*
X135470112Y-199600804D01*
X135470112Y-199600804D02*
X135346303Y-199538900D01*
X135346303Y-199538900D02*
X135284398Y-199476995D01*
D10*
D11*
X185965350Y-198734138D02*
X185965350Y-199600804D01*
X185655826Y-198238900D02*
X185346303Y-199167471D01*
X185346303Y-199167471D02*
X186151064Y-199167471D01*
D10*
D11*
X236027255Y-198300804D02*
X235408207Y-198300804D01*
X235408207Y-198300804D02*
X235346303Y-198919852D01*
X235346303Y-198919852D02*
X235408207Y-198857947D01*
X235408207Y-198857947D02*
X235532017Y-198796042D01*
X235532017Y-198796042D02*
X235841541Y-198796042D01*
X235841541Y-198796042D02*
X235965350Y-198857947D01*
X235965350Y-198857947D02*
X236027255Y-198919852D01*
X236027255Y-198919852D02*
X236089160Y-199043661D01*
X236089160Y-199043661D02*
X236089160Y-199353185D01*
X236089160Y-199353185D02*
X236027255Y-199476995D01*
X236027255Y-199476995D02*
X235965350Y-199538900D01*
X235965350Y-199538900D02*
X235841541Y-199600804D01*
X235841541Y-199600804D02*
X235532017Y-199600804D01*
X235532017Y-199600804D02*
X235408207Y-199538900D01*
X235408207Y-199538900D02*
X235346303Y-199476995D01*
D10*
D11*
X285965350Y-198300804D02*
X285717731Y-198300804D01*
X285717731Y-198300804D02*
X285593922Y-198362709D01*
X285593922Y-198362709D02*
X285532017Y-198424614D01*
X285532017Y-198424614D02*
X285408207Y-198610328D01*
X285408207Y-198610328D02*
X285346303Y-198857947D01*
X285346303Y-198857947D02*
X285346303Y-199353185D01*
X285346303Y-199353185D02*
X285408207Y-199476995D01*
X285408207Y-199476995D02*
X285470112Y-199538900D01*
X285470112Y-199538900D02*
X285593922Y-199600804D01*
X285593922Y-199600804D02*
X285841541Y-199600804D01*
X285841541Y-199600804D02*
X285965350Y-199538900D01*
X285965350Y-199538900D02*
X286027255Y-199476995D01*
X286027255Y-199476995D02*
X286089160Y-199353185D01*
X286089160Y-199353185D02*
X286089160Y-199043661D01*
X286089160Y-199043661D02*
X286027255Y-198919852D01*
X286027255Y-198919852D02*
X285965350Y-198857947D01*
X285965350Y-198857947D02*
X285841541Y-198796042D01*
X285841541Y-198796042D02*
X285593922Y-198796042D01*
X285593922Y-198796042D02*
X285470112Y-198857947D01*
X285470112Y-198857947D02*
X285408207Y-198919852D01*
X285408207Y-198919852D02*
X285346303Y-199043661D01*
D10*
D11*
X10000000Y-60000000D02*
X12000000Y-60000000D01*
D10*
D11*
X10000000Y-110000000D02*
X12000000Y-110000000D01*
D10*
D11*
X10000000Y-160000000D02*
X12000000Y-160000000D01*
D10*
D11*
X10690476Y-35222176D02*
X11309523Y-35222176D01*
X10566666Y-35593604D02*
X10999999Y-34293604D01*
X10999999Y-34293604D02*
X11433333Y-35593604D01*
D10*
D11*
X11092857Y-84912652D02*
X11278571Y-84974557D01*
X11278571Y-84974557D02*
X11340476Y-85036461D01*
X11340476Y-85036461D02*
X11402380Y-85160271D01*
X11402380Y-85160271D02*
X11402380Y-85345985D01*
X11402380Y-85345985D02*
X11340476Y-85469795D01*
X11340476Y-85469795D02*
X11278571Y-85531700D01*
X11278571Y-85531700D02*
X11154761Y-85593604D01*
X11154761Y-85593604D02*
X10659523Y-85593604D01*
X10659523Y-85593604D02*
X10659523Y-84293604D01*
X10659523Y-84293604D02*
X11092857Y-84293604D01*
X11092857Y-84293604D02*
X11216666Y-84355509D01*
X11216666Y-84355509D02*
X11278571Y-84417414D01*
X11278571Y-84417414D02*
X11340476Y-84541223D01*
X11340476Y-84541223D02*
X11340476Y-84665033D01*
X11340476Y-84665033D02*
X11278571Y-84788842D01*
X11278571Y-84788842D02*
X11216666Y-84850747D01*
X11216666Y-84850747D02*
X11092857Y-84912652D01*
X11092857Y-84912652D02*
X10659523Y-84912652D01*
D10*
D11*
X11402380Y-135469795D02*
X11340476Y-135531700D01*
X11340476Y-135531700D02*
X11154761Y-135593604D01*
X11154761Y-135593604D02*
X11030952Y-135593604D01*
X11030952Y-135593604D02*
X10845238Y-135531700D01*
X10845238Y-135531700D02*
X10721428Y-135407890D01*
X10721428Y-135407890D02*
X10659523Y-135284080D01*
X10659523Y-135284080D02*
X10597619Y-135036461D01*
X10597619Y-135036461D02*
X10597619Y-134850747D01*
X10597619Y-134850747D02*
X10659523Y-134603128D01*
X10659523Y-134603128D02*
X10721428Y-134479319D01*
X10721428Y-134479319D02*
X10845238Y-134355509D01*
X10845238Y-134355509D02*
X11030952Y-134293604D01*
X11030952Y-134293604D02*
X11154761Y-134293604D01*
X11154761Y-134293604D02*
X11340476Y-134355509D01*
X11340476Y-134355509D02*
X11402380Y-134417414D01*
D10*
D11*
X10659523Y-185593604D02*
X10659523Y-184293604D01*
X10659523Y-184293604D02*
X10969047Y-184293604D01*
X10969047Y-184293604D02*
X11154761Y-184355509D01*
X11154761Y-184355509D02*
X11278571Y-184479319D01*
X11278571Y-184479319D02*
X11340476Y-184603128D01*
X11340476Y-184603128D02*
X11402380Y-184850747D01*
X11402380Y-184850747D02*
X11402380Y-185036461D01*
X11402380Y-185036461D02*
X11340476Y-185284080D01*
X11340476Y-185284080D02*
X11278571Y-185407890D01*
X11278571Y-185407890D02*
X11154761Y-185531700D01*
X11154761Y-185531700D02*
X10969047Y-185593604D01*
X10969047Y-185593604D02*
X10659523Y-185593604D01*
D10*
D11*
X287002200Y-60000000D02*
X285002200Y-60000000D01*
D10*
D11*
X287002200Y-110000000D02*
X285002200Y-110000000D01*
D10*
D11*
X287002200Y-160000000D02*
X285002200Y-160000000D01*
D10*
D11*
X285692676Y-35222176D02*
X286311723Y-35222176D01*
X285568866Y-35593604D02*
X286002199Y-34293604D01*
X286002199Y-34293604D02*
X286435533Y-35593604D01*
D10*
D11*
X286095057Y-84912652D02*
X286280771Y-84974557D01*
X286280771Y-84974557D02*
X286342676Y-85036461D01*
X286342676Y-85036461D02*
X286404580Y-85160271D01*
X286404580Y-85160271D02*
X286404580Y-85345985D01*
X286404580Y-85345985D02*
X286342676Y-85469795D01*
X286342676Y-85469795D02*
X286280771Y-85531700D01*
X286280771Y-85531700D02*
X286156961Y-85593604D01*
X286156961Y-85593604D02*
X285661723Y-85593604D01*
X285661723Y-85593604D02*
X285661723Y-84293604D01*
X285661723Y-84293604D02*
X286095057Y-84293604D01*
X286095057Y-84293604D02*
X286218866Y-84355509D01*
X286218866Y-84355509D02*
X286280771Y-84417414D01*
X286280771Y-84417414D02*
X286342676Y-84541223D01*
X286342676Y-84541223D02*
X286342676Y-84665033D01*
X286342676Y-84665033D02*
X286280771Y-84788842D01*
X286280771Y-84788842D02*
X286218866Y-84850747D01*
X286218866Y-84850747D02*
X286095057Y-84912652D01*
X286095057Y-84912652D02*
X285661723Y-84912652D01*
D10*
D11*
X286404580Y-135469795D02*
X286342676Y-135531700D01*
X286342676Y-135531700D02*
X286156961Y-135593604D01*
X286156961Y-135593604D02*
X286033152Y-135593604D01*
X286033152Y-135593604D02*
X285847438Y-135531700D01*
X285847438Y-135531700D02*
X285723628Y-135407890D01*
X285723628Y-135407890D02*
X285661723Y-135284080D01*
X285661723Y-135284080D02*
X285599819Y-135036461D01*
X285599819Y-135036461D02*
X285599819Y-134850747D01*
X285599819Y-134850747D02*
X285661723Y-134603128D01*
X285661723Y-134603128D02*
X285723628Y-134479319D01*
X285723628Y-134479319D02*
X285847438Y-134355509D01*
X285847438Y-134355509D02*
X286033152Y-134293604D01*
X286033152Y-134293604D02*
X286156961Y-134293604D01*
X286156961Y-134293604D02*
X286342676Y-134355509D01*
X286342676Y-134355509D02*
X286404580Y-134417414D01*
D10*
D11*
X285661723Y-185593604D02*
X285661723Y-184293604D01*
X285661723Y-184293604D02*
X285971247Y-184293604D01*
X285971247Y-184293604D02*
X286156961Y-184355509D01*
X286156961Y-184355509D02*
X286280771Y-184479319D01*
X286280771Y-184479319D02*
X286342676Y-184603128D01*
X286342676Y-184603128D02*
X286404580Y-184850747D01*
X286404580Y-184850747D02*
X286404580Y-185036461D01*
X286404580Y-185036461D02*
X286342676Y-185284080D01*
X286342676Y-185284080D02*
X286280771Y-185407890D01*
X286280771Y-185407890D02*
X286156961Y-185531700D01*
X286156961Y-185531700D02*
X285971247Y-185593604D01*
X285971247Y-185593604D02*
X285661723Y-185593604D01*
D10*
D11*
X200458026Y-193793328D02*
X200458026Y-192293328D01*
X200458026Y-192293328D02*
X200815169Y-192293328D01*
X200815169Y-192293328D02*
X201029455Y-192364757D01*
X201029455Y-192364757D02*
X201172312Y-192507614D01*
X201172312Y-192507614D02*
X201243741Y-192650471D01*
X201243741Y-192650471D02*
X201315169Y-192936185D01*
X201315169Y-192936185D02*
X201315169Y-193150471D01*
X201315169Y-193150471D02*
X201243741Y-193436185D01*
X201243741Y-193436185D02*
X201172312Y-193579042D01*
X201172312Y-193579042D02*
X201029455Y-193721900D01*
X201029455Y-193721900D02*
X200815169Y-193793328D01*
X200815169Y-193793328D02*
X200458026Y-193793328D01*
X202600884Y-193793328D02*
X202600884Y-193007614D01*
X202600884Y-193007614D02*
X202529455Y-192864757D01*
X202529455Y-192864757D02*
X202386598Y-192793328D01*
X202386598Y-192793328D02*
X202100884Y-192793328D01*
X202100884Y-192793328D02*
X201958026Y-192864757D01*
X202600884Y-193721900D02*
X202458026Y-193793328D01*
X202458026Y-193793328D02*
X202100884Y-193793328D01*
X202100884Y-193793328D02*
X201958026Y-193721900D01*
X201958026Y-193721900D02*
X201886598Y-193579042D01*
X201886598Y-193579042D02*
X201886598Y-193436185D01*
X201886598Y-193436185D02*
X201958026Y-193293328D01*
X201958026Y-193293328D02*
X202100884Y-193221900D01*
X202100884Y-193221900D02*
X202458026Y-193221900D01*
X202458026Y-193221900D02*
X202600884Y-193150471D01*
X203100884Y-192793328D02*
X203672312Y-192793328D01*
X203315169Y-192293328D02*
X203315169Y-193579042D01*
X203315169Y-193579042D02*
X203386598Y-193721900D01*
X203386598Y-193721900D02*
X203529455Y-193793328D01*
X203529455Y-193793328D02*
X203672312Y-193793328D01*
X204743741Y-193721900D02*
X204600884Y-193793328D01*
X204600884Y-193793328D02*
X204315170Y-193793328D01*
X204315170Y-193793328D02*
X204172312Y-193721900D01*
X204172312Y-193721900D02*
X204100884Y-193579042D01*
X204100884Y-193579042D02*
X204100884Y-193007614D01*
X204100884Y-193007614D02*
X204172312Y-192864757D01*
X204172312Y-192864757D02*
X204315170Y-192793328D01*
X204315170Y-192793328D02*
X204600884Y-192793328D01*
X204600884Y-192793328D02*
X204743741Y-192864757D01*
X204743741Y-192864757D02*
X204815170Y-193007614D01*
X204815170Y-193007614D02*
X204815170Y-193150471D01*
X204815170Y-193150471D02*
X204100884Y-193293328D01*
X205458026Y-193650471D02*
X205529455Y-193721900D01*
X205529455Y-193721900D02*
X205458026Y-193793328D01*
X205458026Y-193793328D02*
X205386598Y-193721900D01*
X205386598Y-193721900D02*
X205458026Y-193650471D01*
X205458026Y-193650471D02*
X205458026Y-193793328D01*
X205458026Y-192864757D02*
X205529455Y-192936185D01*
X205529455Y-192936185D02*
X205458026Y-193007614D01*
X205458026Y-193007614D02*
X205386598Y-192936185D01*
X205386598Y-192936185D02*
X205458026Y-192864757D01*
X205458026Y-192864757D02*
X205458026Y-193007614D01*
X207243741Y-192436185D02*
X207315169Y-192364757D01*
X207315169Y-192364757D02*
X207458027Y-192293328D01*
X207458027Y-192293328D02*
X207815169Y-192293328D01*
X207815169Y-192293328D02*
X207958027Y-192364757D01*
X207958027Y-192364757D02*
X208029455Y-192436185D01*
X208029455Y-192436185D02*
X208100884Y-192579042D01*
X208100884Y-192579042D02*
X208100884Y-192721900D01*
X208100884Y-192721900D02*
X208029455Y-192936185D01*
X208029455Y-192936185D02*
X207172312Y-193793328D01*
X207172312Y-193793328D02*
X208100884Y-193793328D01*
X209029455Y-192293328D02*
X209172312Y-192293328D01*
X209172312Y-192293328D02*
X209315169Y-192364757D01*
X209315169Y-192364757D02*
X209386598Y-192436185D01*
X209386598Y-192436185D02*
X209458026Y-192579042D01*
X209458026Y-192579042D02*
X209529455Y-192864757D01*
X209529455Y-192864757D02*
X209529455Y-193221900D01*
X209529455Y-193221900D02*
X209458026Y-193507614D01*
X209458026Y-193507614D02*
X209386598Y-193650471D01*
X209386598Y-193650471D02*
X209315169Y-193721900D01*
X209315169Y-193721900D02*
X209172312Y-193793328D01*
X209172312Y-193793328D02*
X209029455Y-193793328D01*
X209029455Y-193793328D02*
X208886598Y-193721900D01*
X208886598Y-193721900D02*
X208815169Y-193650471D01*
X208815169Y-193650471D02*
X208743740Y-193507614D01*
X208743740Y-193507614D02*
X208672312Y-193221900D01*
X208672312Y-193221900D02*
X208672312Y-192864757D01*
X208672312Y-192864757D02*
X208743740Y-192579042D01*
X208743740Y-192579042D02*
X208815169Y-192436185D01*
X208815169Y-192436185D02*
X208886598Y-192364757D01*
X208886598Y-192364757D02*
X209029455Y-192293328D01*
X210100883Y-192436185D02*
X210172311Y-192364757D01*
X210172311Y-192364757D02*
X210315169Y-192293328D01*
X210315169Y-192293328D02*
X210672311Y-192293328D01*
X210672311Y-192293328D02*
X210815169Y-192364757D01*
X210815169Y-192364757D02*
X210886597Y-192436185D01*
X210886597Y-192436185D02*
X210958026Y-192579042D01*
X210958026Y-192579042D02*
X210958026Y-192721900D01*
X210958026Y-192721900D02*
X210886597Y-192936185D01*
X210886597Y-192936185D02*
X210029454Y-193793328D01*
X210029454Y-193793328D02*
X210958026Y-193793328D01*
X212243740Y-192793328D02*
X212243740Y-193793328D01*
X211886597Y-192221900D02*
X211529454Y-193293328D01*
X211529454Y-193293328D02*
X212458025Y-193293328D01*
X213029453Y-193221900D02*
X214172311Y-193221900D01*
X215172311Y-192293328D02*
X215315168Y-192293328D01*
X215315168Y-192293328D02*
X215458025Y-192364757D01*
X215458025Y-192364757D02*
X215529454Y-192436185D01*
X215529454Y-192436185D02*
X215600882Y-192579042D01*
X215600882Y-192579042D02*
X215672311Y-192864757D01*
X215672311Y-192864757D02*
X215672311Y-193221900D01*
X215672311Y-193221900D02*
X215600882Y-193507614D01*
X215600882Y-193507614D02*
X215529454Y-193650471D01*
X215529454Y-193650471D02*
X215458025Y-193721900D01*
X215458025Y-193721900D02*
X215315168Y-193793328D01*
X215315168Y-193793328D02*
X215172311Y-193793328D01*
X215172311Y-193793328D02*
X215029454Y-193721900D01*
X215029454Y-193721900D02*
X214958025Y-193650471D01*
X214958025Y-193650471D02*
X214886596Y-193507614D01*
X214886596Y-193507614D02*
X214815168Y-193221900D01*
X214815168Y-193221900D02*
X214815168Y-192864757D01*
X214815168Y-192864757D02*
X214886596Y-192579042D01*
X214886596Y-192579042D02*
X214958025Y-192436185D01*
X214958025Y-192436185D02*
X215029454Y-192364757D01*
X215029454Y-192364757D02*
X215172311Y-192293328D01*
X216243739Y-192436185D02*
X216315167Y-192364757D01*
X216315167Y-192364757D02*
X216458025Y-192293328D01*
X216458025Y-192293328D02*
X216815167Y-192293328D01*
X216815167Y-192293328D02*
X216958025Y-192364757D01*
X216958025Y-192364757D02*
X217029453Y-192436185D01*
X217029453Y-192436185D02*
X217100882Y-192579042D01*
X217100882Y-192579042D02*
X217100882Y-192721900D01*
X217100882Y-192721900D02*
X217029453Y-192936185D01*
X217029453Y-192936185D02*
X216172310Y-193793328D01*
X216172310Y-193793328D02*
X217100882Y-193793328D01*
X217743738Y-193221900D02*
X218886596Y-193221900D01*
X219886596Y-192293328D02*
X220029453Y-192293328D01*
X220029453Y-192293328D02*
X220172310Y-192364757D01*
X220172310Y-192364757D02*
X220243739Y-192436185D01*
X220243739Y-192436185D02*
X220315167Y-192579042D01*
X220315167Y-192579042D02*
X220386596Y-192864757D01*
X220386596Y-192864757D02*
X220386596Y-193221900D01*
X220386596Y-193221900D02*
X220315167Y-193507614D01*
X220315167Y-193507614D02*
X220243739Y-193650471D01*
X220243739Y-193650471D02*
X220172310Y-193721900D01*
X220172310Y-193721900D02*
X220029453Y-193793328D01*
X220029453Y-193793328D02*
X219886596Y-193793328D01*
X219886596Y-193793328D02*
X219743739Y-193721900D01*
X219743739Y-193721900D02*
X219672310Y-193650471D01*
X219672310Y-193650471D02*
X219600881Y-193507614D01*
X219600881Y-193507614D02*
X219529453Y-193221900D01*
X219529453Y-193221900D02*
X219529453Y-192864757D01*
X219529453Y-192864757D02*
X219600881Y-192579042D01*
X219600881Y-192579042D02*
X219672310Y-192436185D01*
X219672310Y-192436185D02*
X219743739Y-192364757D01*
X219743739Y-192364757D02*
X219886596Y-192293328D01*
X221815167Y-193793328D02*
X220958024Y-193793328D01*
X221386595Y-193793328D02*
X221386595Y-192293328D01*
X221386595Y-192293328D02*
X221243738Y-192507614D01*
X221243738Y-192507614D02*
X221100881Y-192650471D01*
X221100881Y-192650471D02*
X220958024Y-192721900D01*
D10*
D11*
X177002200Y-194507200D02*
X285002200Y-194507200D01*
D10*
D11*
X178458026Y-196593328D02*
X178458026Y-195093328D01*
X179315169Y-196593328D02*
X178672312Y-195736185D01*
X179315169Y-195093328D02*
X178458026Y-195950471D01*
X179958026Y-196593328D02*
X179958026Y-195593328D01*
X179958026Y-195093328D02*
X179886598Y-195164757D01*
X179886598Y-195164757D02*
X179958026Y-195236185D01*
X179958026Y-195236185D02*
X180029455Y-195164757D01*
X180029455Y-195164757D02*
X179958026Y-195093328D01*
X179958026Y-195093328D02*
X179958026Y-195236185D01*
X181529455Y-196450471D02*
X181458027Y-196521900D01*
X181458027Y-196521900D02*
X181243741Y-196593328D01*
X181243741Y-196593328D02*
X181100884Y-196593328D01*
X181100884Y-196593328D02*
X180886598Y-196521900D01*
X180886598Y-196521900D02*
X180743741Y-196379042D01*
X180743741Y-196379042D02*
X180672312Y-196236185D01*
X180672312Y-196236185D02*
X180600884Y-195950471D01*
X180600884Y-195950471D02*
X180600884Y-195736185D01*
X180600884Y-195736185D02*
X180672312Y-195450471D01*
X180672312Y-195450471D02*
X180743741Y-195307614D01*
X180743741Y-195307614D02*
X180886598Y-195164757D01*
X180886598Y-195164757D02*
X181100884Y-195093328D01*
X181100884Y-195093328D02*
X181243741Y-195093328D01*
X181243741Y-195093328D02*
X181458027Y-195164757D01*
X181458027Y-195164757D02*
X181529455Y-195236185D01*
X182815170Y-196593328D02*
X182815170Y-195807614D01*
X182815170Y-195807614D02*
X182743741Y-195664757D01*
X182743741Y-195664757D02*
X182600884Y-195593328D01*
X182600884Y-195593328D02*
X182315170Y-195593328D01*
X182315170Y-195593328D02*
X182172312Y-195664757D01*
X182815170Y-196521900D02*
X182672312Y-196593328D01*
X182672312Y-196593328D02*
X182315170Y-196593328D01*
X182315170Y-196593328D02*
X182172312Y-196521900D01*
X182172312Y-196521900D02*
X182100884Y-196379042D01*
X182100884Y-196379042D02*
X182100884Y-196236185D01*
X182100884Y-196236185D02*
X182172312Y-196093328D01*
X182172312Y-196093328D02*
X182315170Y-196021900D01*
X182315170Y-196021900D02*
X182672312Y-196021900D01*
X182672312Y-196021900D02*
X182815170Y-195950471D01*
X184172313Y-196593328D02*
X184172313Y-195093328D01*
X184172313Y-196521900D02*
X184029455Y-196593328D01*
X184029455Y-196593328D02*
X183743741Y-196593328D01*
X183743741Y-196593328D02*
X183600884Y-196521900D01*
X183600884Y-196521900D02*
X183529455Y-196450471D01*
X183529455Y-196450471D02*
X183458027Y-196307614D01*
X183458027Y-196307614D02*
X183458027Y-195879042D01*
X183458027Y-195879042D02*
X183529455Y-195736185D01*
X183529455Y-195736185D02*
X183600884Y-195664757D01*
X183600884Y-195664757D02*
X183743741Y-195593328D01*
X183743741Y-195593328D02*
X184029455Y-195593328D01*
X184029455Y-195593328D02*
X184172313Y-195664757D01*
X186029455Y-195807614D02*
X186529455Y-195807614D01*
X186743741Y-196593328D02*
X186029455Y-196593328D01*
X186029455Y-196593328D02*
X186029455Y-195093328D01*
X186029455Y-195093328D02*
X186743741Y-195093328D01*
X187386598Y-196450471D02*
X187458027Y-196521900D01*
X187458027Y-196521900D02*
X187386598Y-196593328D01*
X187386598Y-196593328D02*
X187315170Y-196521900D01*
X187315170Y-196521900D02*
X187386598Y-196450471D01*
X187386598Y-196450471D02*
X187386598Y-196593328D01*
X188100884Y-196593328D02*
X188100884Y-195093328D01*
X188100884Y-195093328D02*
X188458027Y-195093328D01*
X188458027Y-195093328D02*
X188672313Y-195164757D01*
X188672313Y-195164757D02*
X188815170Y-195307614D01*
X188815170Y-195307614D02*
X188886599Y-195450471D01*
X188886599Y-195450471D02*
X188958027Y-195736185D01*
X188958027Y-195736185D02*
X188958027Y-195950471D01*
X188958027Y-195950471D02*
X188886599Y-196236185D01*
X188886599Y-196236185D02*
X188815170Y-196379042D01*
X188815170Y-196379042D02*
X188672313Y-196521900D01*
X188672313Y-196521900D02*
X188458027Y-196593328D01*
X188458027Y-196593328D02*
X188100884Y-196593328D01*
X189600884Y-196450471D02*
X189672313Y-196521900D01*
X189672313Y-196521900D02*
X189600884Y-196593328D01*
X189600884Y-196593328D02*
X189529456Y-196521900D01*
X189529456Y-196521900D02*
X189600884Y-196450471D01*
X189600884Y-196450471D02*
X189600884Y-196593328D01*
X190243742Y-196164757D02*
X190958028Y-196164757D01*
X190100885Y-196593328D02*
X190600885Y-195093328D01*
X190600885Y-195093328D02*
X191100885Y-196593328D01*
X191600884Y-196450471D02*
X191672313Y-196521900D01*
X191672313Y-196521900D02*
X191600884Y-196593328D01*
X191600884Y-196593328D02*
X191529456Y-196521900D01*
X191529456Y-196521900D02*
X191600884Y-196450471D01*
X191600884Y-196450471D02*
X191600884Y-196593328D01*
X193672313Y-195736185D02*
X193529456Y-195664757D01*
X193529456Y-195664757D02*
X193458027Y-195593328D01*
X193458027Y-195593328D02*
X193386599Y-195450471D01*
X193386599Y-195450471D02*
X193386599Y-195379042D01*
X193386599Y-195379042D02*
X193458027Y-195236185D01*
X193458027Y-195236185D02*
X193529456Y-195164757D01*
X193529456Y-195164757D02*
X193672313Y-195093328D01*
X193672313Y-195093328D02*
X193958027Y-195093328D01*
X193958027Y-195093328D02*
X194100885Y-195164757D01*
X194100885Y-195164757D02*
X194172313Y-195236185D01*
X194172313Y-195236185D02*
X194243742Y-195379042D01*
X194243742Y-195379042D02*
X194243742Y-195450471D01*
X194243742Y-195450471D02*
X194172313Y-195593328D01*
X194172313Y-195593328D02*
X194100885Y-195664757D01*
X194100885Y-195664757D02*
X193958027Y-195736185D01*
X193958027Y-195736185D02*
X193672313Y-195736185D01*
X193672313Y-195736185D02*
X193529456Y-195807614D01*
X193529456Y-195807614D02*
X193458027Y-195879042D01*
X193458027Y-195879042D02*
X193386599Y-196021900D01*
X193386599Y-196021900D02*
X193386599Y-196307614D01*
X193386599Y-196307614D02*
X193458027Y-196450471D01*
X193458027Y-196450471D02*
X193529456Y-196521900D01*
X193529456Y-196521900D02*
X193672313Y-196593328D01*
X193672313Y-196593328D02*
X193958027Y-196593328D01*
X193958027Y-196593328D02*
X194100885Y-196521900D01*
X194100885Y-196521900D02*
X194172313Y-196450471D01*
X194172313Y-196450471D02*
X194243742Y-196307614D01*
X194243742Y-196307614D02*
X194243742Y-196021900D01*
X194243742Y-196021900D02*
X194172313Y-195879042D01*
X194172313Y-195879042D02*
X194100885Y-195807614D01*
X194100885Y-195807614D02*
X193958027Y-195736185D01*
X194886598Y-196450471D02*
X194958027Y-196521900D01*
X194958027Y-196521900D02*
X194886598Y-196593328D01*
X194886598Y-196593328D02*
X194815170Y-196521900D01*
X194815170Y-196521900D02*
X194886598Y-196450471D01*
X194886598Y-196450471D02*
X194886598Y-196593328D01*
X195886599Y-195093328D02*
X196029456Y-195093328D01*
X196029456Y-195093328D02*
X196172313Y-195164757D01*
X196172313Y-195164757D02*
X196243742Y-195236185D01*
X196243742Y-195236185D02*
X196315170Y-195379042D01*
X196315170Y-195379042D02*
X196386599Y-195664757D01*
X196386599Y-195664757D02*
X196386599Y-196021900D01*
X196386599Y-196021900D02*
X196315170Y-196307614D01*
X196315170Y-196307614D02*
X196243742Y-196450471D01*
X196243742Y-196450471D02*
X196172313Y-196521900D01*
X196172313Y-196521900D02*
X196029456Y-196593328D01*
X196029456Y-196593328D02*
X195886599Y-196593328D01*
X195886599Y-196593328D02*
X195743742Y-196521900D01*
X195743742Y-196521900D02*
X195672313Y-196450471D01*
X195672313Y-196450471D02*
X195600884Y-196307614D01*
X195600884Y-196307614D02*
X195529456Y-196021900D01*
X195529456Y-196021900D02*
X195529456Y-195664757D01*
X195529456Y-195664757D02*
X195600884Y-195379042D01*
X195600884Y-195379042D02*
X195672313Y-195236185D01*
X195672313Y-195236185D02*
X195743742Y-195164757D01*
X195743742Y-195164757D02*
X195886599Y-195093328D01*
X197029455Y-196450471D02*
X197100884Y-196521900D01*
X197100884Y-196521900D02*
X197029455Y-196593328D01*
X197029455Y-196593328D02*
X196958027Y-196521900D01*
X196958027Y-196521900D02*
X197029455Y-196450471D01*
X197029455Y-196450471D02*
X197029455Y-196593328D01*
X198029456Y-195093328D02*
X198172313Y-195093328D01*
X198172313Y-195093328D02*
X198315170Y-195164757D01*
X198315170Y-195164757D02*
X198386599Y-195236185D01*
X198386599Y-195236185D02*
X198458027Y-195379042D01*
X198458027Y-195379042D02*
X198529456Y-195664757D01*
X198529456Y-195664757D02*
X198529456Y-196021900D01*
X198529456Y-196021900D02*
X198458027Y-196307614D01*
X198458027Y-196307614D02*
X198386599Y-196450471D01*
X198386599Y-196450471D02*
X198315170Y-196521900D01*
X198315170Y-196521900D02*
X198172313Y-196593328D01*
X198172313Y-196593328D02*
X198029456Y-196593328D01*
X198029456Y-196593328D02*
X197886599Y-196521900D01*
X197886599Y-196521900D02*
X197815170Y-196450471D01*
X197815170Y-196450471D02*
X197743741Y-196307614D01*
X197743741Y-196307614D02*
X197672313Y-196021900D01*
X197672313Y-196021900D02*
X197672313Y-195664757D01*
X197672313Y-195664757D02*
X197743741Y-195379042D01*
X197743741Y-195379042D02*
X197815170Y-195236185D01*
X197815170Y-195236185D02*
X197886599Y-195164757D01*
X197886599Y-195164757D02*
X198029456Y-195093328D01*
D10*
D11*
X177002200Y-191507200D02*
X285002200Y-191507200D01*
D10*
D12*
X264413853Y-193785528D02*
X263913853Y-193071242D01*
X263556710Y-193785528D02*
X263556710Y-192285528D01*
X263556710Y-192285528D02*
X264128139Y-192285528D01*
X264128139Y-192285528D02*
X264270996Y-192356957D01*
X264270996Y-192356957D02*
X264342425Y-192428385D01*
X264342425Y-192428385D02*
X264413853Y-192571242D01*
X264413853Y-192571242D02*
X264413853Y-192785528D01*
X264413853Y-192785528D02*
X264342425Y-192928385D01*
X264342425Y-192928385D02*
X264270996Y-192999814D01*
X264270996Y-192999814D02*
X264128139Y-193071242D01*
X264128139Y-193071242D02*
X263556710Y-193071242D01*
X265628139Y-193714100D02*
X265485282Y-193785528D01*
X265485282Y-193785528D02*
X265199568Y-193785528D01*
X265199568Y-193785528D02*
X265056710Y-193714100D01*
X265056710Y-193714100D02*
X264985282Y-193571242D01*
X264985282Y-193571242D02*
X264985282Y-192999814D01*
X264985282Y-192999814D02*
X265056710Y-192856957D01*
X265056710Y-192856957D02*
X265199568Y-192785528D01*
X265199568Y-192785528D02*
X265485282Y-192785528D01*
X265485282Y-192785528D02*
X265628139Y-192856957D01*
X265628139Y-192856957D02*
X265699568Y-192999814D01*
X265699568Y-192999814D02*
X265699568Y-193142671D01*
X265699568Y-193142671D02*
X264985282Y-193285528D01*
X266199567Y-192785528D02*
X266556710Y-193785528D01*
X266556710Y-193785528D02*
X266913853Y-192785528D01*
X267485281Y-193642671D02*
X267556710Y-193714100D01*
X267556710Y-193714100D02*
X267485281Y-193785528D01*
X267485281Y-193785528D02*
X267413853Y-193714100D01*
X267413853Y-193714100D02*
X267485281Y-193642671D01*
X267485281Y-193642671D02*
X267485281Y-193785528D01*
X267485281Y-192856957D02*
X267556710Y-192928385D01*
X267556710Y-192928385D02*
X267485281Y-192999814D01*
X267485281Y-192999814D02*
X267413853Y-192928385D01*
X267413853Y-192928385D02*
X267485281Y-192856957D01*
X267485281Y-192856957D02*
X267485281Y-192999814D01*
X270199567Y-193785528D02*
X269699567Y-193071242D01*
X269342424Y-193785528D02*
X269342424Y-192285528D01*
X269342424Y-192285528D02*
X269913853Y-192285528D01*
X269913853Y-192285528D02*
X270056710Y-192356957D01*
X270056710Y-192356957D02*
X270128139Y-192428385D01*
X270128139Y-192428385D02*
X270199567Y-192571242D01*
X270199567Y-192571242D02*
X270199567Y-192785528D01*
X270199567Y-192785528D02*
X270128139Y-192928385D01*
X270128139Y-192928385D02*
X270056710Y-192999814D01*
X270056710Y-192999814D02*
X269913853Y-193071242D01*
X269913853Y-193071242D02*
X269342424Y-193071242D01*
X270842424Y-192999814D02*
X271342424Y-192999814D01*
X271556710Y-193785528D02*
X270842424Y-193785528D01*
X270842424Y-193785528D02*
X270842424Y-192285528D01*
X270842424Y-192285528D02*
X271556710Y-192285528D01*
X271985282Y-192285528D02*
X272485282Y-193785528D01*
X272485282Y-193785528D02*
X272985282Y-192285528D01*
X275413853Y-193785528D02*
X274556710Y-193785528D01*
X274985281Y-193785528D02*
X274985281Y-192285528D01*
X274985281Y-192285528D02*
X274842424Y-192499814D01*
X274842424Y-192499814D02*
X274699567Y-192642671D01*
X274699567Y-192642671D02*
X274556710Y-192714100D01*
X276056709Y-193642671D02*
X276128138Y-193714100D01*
X276128138Y-193714100D02*
X276056709Y-193785528D01*
X276056709Y-193785528D02*
X275985281Y-193714100D01*
X275985281Y-193714100D02*
X276056709Y-193642671D01*
X276056709Y-193642671D02*
X276056709Y-193785528D01*
X277056710Y-192285528D02*
X277199567Y-192285528D01*
X277199567Y-192285528D02*
X277342424Y-192356957D01*
X277342424Y-192356957D02*
X277413853Y-192428385D01*
X277413853Y-192428385D02*
X277485281Y-192571242D01*
X277485281Y-192571242D02*
X277556710Y-192856957D01*
X277556710Y-192856957D02*
X277556710Y-193214100D01*
X277556710Y-193214100D02*
X277485281Y-193499814D01*
X277485281Y-193499814D02*
X277413853Y-193642671D01*
X277413853Y-193642671D02*
X277342424Y-193714100D01*
X277342424Y-193714100D02*
X277199567Y-193785528D01*
X277199567Y-193785528D02*
X277056710Y-193785528D01*
X277056710Y-193785528D02*
X276913853Y-193714100D01*
X276913853Y-193714100D02*
X276842424Y-193642671D01*
X276842424Y-193642671D02*
X276770995Y-193499814D01*
X276770995Y-193499814D02*
X276699567Y-193214100D01*
X276699567Y-193214100D02*
X276699567Y-192856957D01*
X276699567Y-192856957D02*
X276770995Y-192571242D01*
X276770995Y-192571242D02*
X276842424Y-192428385D01*
X276842424Y-192428385D02*
X276913853Y-192356957D01*
X276913853Y-192356957D02*
X277056710Y-192285528D01*
D10*
D11*
X178386598Y-193721900D02*
X178600884Y-193793328D01*
X178600884Y-193793328D02*
X178958026Y-193793328D01*
X178958026Y-193793328D02*
X179100884Y-193721900D01*
X179100884Y-193721900D02*
X179172312Y-193650471D01*
X179172312Y-193650471D02*
X179243741Y-193507614D01*
X179243741Y-193507614D02*
X179243741Y-193364757D01*
X179243741Y-193364757D02*
X179172312Y-193221900D01*
X179172312Y-193221900D02*
X179100884Y-193150471D01*
X179100884Y-193150471D02*
X178958026Y-193079042D01*
X178958026Y-193079042D02*
X178672312Y-193007614D01*
X178672312Y-193007614D02*
X178529455Y-192936185D01*
X178529455Y-192936185D02*
X178458026Y-192864757D01*
X178458026Y-192864757D02*
X178386598Y-192721900D01*
X178386598Y-192721900D02*
X178386598Y-192579042D01*
X178386598Y-192579042D02*
X178458026Y-192436185D01*
X178458026Y-192436185D02*
X178529455Y-192364757D01*
X178529455Y-192364757D02*
X178672312Y-192293328D01*
X178672312Y-192293328D02*
X179029455Y-192293328D01*
X179029455Y-192293328D02*
X179243741Y-192364757D01*
X179886597Y-193793328D02*
X179886597Y-192793328D01*
X179886597Y-192293328D02*
X179815169Y-192364757D01*
X179815169Y-192364757D02*
X179886597Y-192436185D01*
X179886597Y-192436185D02*
X179958026Y-192364757D01*
X179958026Y-192364757D02*
X179886597Y-192293328D01*
X179886597Y-192293328D02*
X179886597Y-192436185D01*
X180458026Y-192793328D02*
X181243741Y-192793328D01*
X181243741Y-192793328D02*
X180458026Y-193793328D01*
X180458026Y-193793328D02*
X181243741Y-193793328D01*
X182386598Y-193721900D02*
X182243741Y-193793328D01*
X182243741Y-193793328D02*
X181958027Y-193793328D01*
X181958027Y-193793328D02*
X181815169Y-193721900D01*
X181815169Y-193721900D02*
X181743741Y-193579042D01*
X181743741Y-193579042D02*
X181743741Y-193007614D01*
X181743741Y-193007614D02*
X181815169Y-192864757D01*
X181815169Y-192864757D02*
X181958027Y-192793328D01*
X181958027Y-192793328D02*
X182243741Y-192793328D01*
X182243741Y-192793328D02*
X182386598Y-192864757D01*
X182386598Y-192864757D02*
X182458027Y-193007614D01*
X182458027Y-193007614D02*
X182458027Y-193150471D01*
X182458027Y-193150471D02*
X181743741Y-193293328D01*
X183100883Y-193650471D02*
X183172312Y-193721900D01*
X183172312Y-193721900D02*
X183100883Y-193793328D01*
X183100883Y-193793328D02*
X183029455Y-193721900D01*
X183029455Y-193721900D02*
X183100883Y-193650471D01*
X183100883Y-193650471D02*
X183100883Y-193793328D01*
X183100883Y-192864757D02*
X183172312Y-192936185D01*
X183172312Y-192936185D02*
X183100883Y-193007614D01*
X183100883Y-193007614D02*
X183029455Y-192936185D01*
X183029455Y-192936185D02*
X183100883Y-192864757D01*
X183100883Y-192864757D02*
X183100883Y-193007614D01*
X184886598Y-193364757D02*
X185600884Y-193364757D01*
X184743741Y-193793328D02*
X185243741Y-192293328D01*
X185243741Y-192293328D02*
X185743741Y-193793328D01*
X186886598Y-192793328D02*
X186886598Y-193793328D01*
X186529455Y-192221900D02*
X186172312Y-193293328D01*
X186172312Y-193293328D02*
X187100883Y-193293328D01*
D10*
D11*
X263458026Y-196593328D02*
X263458026Y-195093328D01*
X264815170Y-196593328D02*
X264815170Y-195093328D01*
X264815170Y-196521900D02*
X264672312Y-196593328D01*
X264672312Y-196593328D02*
X264386598Y-196593328D01*
X264386598Y-196593328D02*
X264243741Y-196521900D01*
X264243741Y-196521900D02*
X264172312Y-196450471D01*
X264172312Y-196450471D02*
X264100884Y-196307614D01*
X264100884Y-196307614D02*
X264100884Y-195879042D01*
X264100884Y-195879042D02*
X264172312Y-195736185D01*
X264172312Y-195736185D02*
X264243741Y-195664757D01*
X264243741Y-195664757D02*
X264386598Y-195593328D01*
X264386598Y-195593328D02*
X264672312Y-195593328D01*
X264672312Y-195593328D02*
X264815170Y-195664757D01*
X265529455Y-196450471D02*
X265600884Y-196521900D01*
X265600884Y-196521900D02*
X265529455Y-196593328D01*
X265529455Y-196593328D02*
X265458027Y-196521900D01*
X265458027Y-196521900D02*
X265529455Y-196450471D01*
X265529455Y-196450471D02*
X265529455Y-196593328D01*
X265529455Y-195664757D02*
X265600884Y-195736185D01*
X265600884Y-195736185D02*
X265529455Y-195807614D01*
X265529455Y-195807614D02*
X265458027Y-195736185D01*
X265458027Y-195736185D02*
X265529455Y-195664757D01*
X265529455Y-195664757D02*
X265529455Y-195807614D01*
X268172313Y-196593328D02*
X267315170Y-196593328D01*
X267743741Y-196593328D02*
X267743741Y-195093328D01*
X267743741Y-195093328D02*
X267600884Y-195307614D01*
X267600884Y-195307614D02*
X267458027Y-195450471D01*
X267458027Y-195450471D02*
X267315170Y-195521900D01*
X269886598Y-195021900D02*
X268600884Y-196950471D01*
X271172313Y-196593328D02*
X270315170Y-196593328D01*
X270743741Y-196593328D02*
X270743741Y-195093328D01*
X270743741Y-195093328D02*
X270600884Y-195307614D01*
X270600884Y-195307614D02*
X270458027Y-195450471D01*
X270458027Y-195450471D02*
X270315170Y-195521900D01*
D10*
D11*
X177002200Y-187507200D02*
X285002200Y-187507200D01*
D10*
D13*
X178693928Y-188211638D02*
X179836785Y-188211638D01*
X179015357Y-190211638D02*
X179265357Y-188211638D01*
X180253452Y-190211638D02*
X180420119Y-188878304D01*
X180503452Y-188211638D02*
X180396309Y-188306876D01*
X180396309Y-188306876D02*
X180479643Y-188402114D01*
X180479643Y-188402114D02*
X180586786Y-188306876D01*
X180586786Y-188306876D02*
X180503452Y-188211638D01*
X180503452Y-188211638D02*
X180479643Y-188402114D01*
X181086786Y-188878304D02*
X181848690Y-188878304D01*
X181455833Y-188211638D02*
X181241548Y-189925923D01*
X181241548Y-189925923D02*
X181312976Y-190116400D01*
X181312976Y-190116400D02*
X181491548Y-190211638D01*
X181491548Y-190211638D02*
X181682024Y-190211638D01*
X182634405Y-190211638D02*
X182455833Y-190116400D01*
X182455833Y-190116400D02*
X182384405Y-189925923D01*
X182384405Y-189925923D02*
X182598690Y-188211638D01*
X184170119Y-190116400D02*
X183967738Y-190211638D01*
X183967738Y-190211638D02*
X183586785Y-190211638D01*
X183586785Y-190211638D02*
X183408214Y-190116400D01*
X183408214Y-190116400D02*
X183336785Y-189925923D01*
X183336785Y-189925923D02*
X183432024Y-189164019D01*
X183432024Y-189164019D02*
X183551071Y-188973542D01*
X183551071Y-188973542D02*
X183753452Y-188878304D01*
X183753452Y-188878304D02*
X184134404Y-188878304D01*
X184134404Y-188878304D02*
X184312976Y-188973542D01*
X184312976Y-188973542D02*
X184384404Y-189164019D01*
X184384404Y-189164019D02*
X184360595Y-189354495D01*
X184360595Y-189354495D02*
X183384404Y-189544971D01*
X185134405Y-190021161D02*
X185217738Y-190116400D01*
X185217738Y-190116400D02*
X185110595Y-190211638D01*
X185110595Y-190211638D02*
X185027262Y-190116400D01*
X185027262Y-190116400D02*
X185134405Y-190021161D01*
X185134405Y-190021161D02*
X185110595Y-190211638D01*
X185265357Y-188973542D02*
X185348690Y-189068780D01*
X185348690Y-189068780D02*
X185241548Y-189164019D01*
X185241548Y-189164019D02*
X185158214Y-189068780D01*
X185158214Y-189068780D02*
X185265357Y-188973542D01*
X185265357Y-188973542D02*
X185241548Y-189164019D01*
X187586786Y-190211638D02*
X187836786Y-188211638D01*
X188705834Y-188878304D02*
X188539167Y-190211638D01*
X188682024Y-189068780D02*
X188789167Y-188973542D01*
X188789167Y-188973542D02*
X188991548Y-188878304D01*
X188991548Y-188878304D02*
X189277262Y-188878304D01*
X189277262Y-188878304D02*
X189455834Y-188973542D01*
X189455834Y-188973542D02*
X189527262Y-189164019D01*
X189527262Y-189164019D02*
X189396310Y-190211638D01*
X190229644Y-188878304D02*
X190991548Y-188878304D01*
X190598691Y-188211638D02*
X190384406Y-189925923D01*
X190384406Y-189925923D02*
X190455834Y-190116400D01*
X190455834Y-190116400D02*
X190634406Y-190211638D01*
X190634406Y-190211638D02*
X190824882Y-190211638D01*
X192265358Y-190116400D02*
X192062977Y-190211638D01*
X192062977Y-190211638D02*
X191682024Y-190211638D01*
X191682024Y-190211638D02*
X191503453Y-190116400D01*
X191503453Y-190116400D02*
X191432024Y-189925923D01*
X191432024Y-189925923D02*
X191527263Y-189164019D01*
X191527263Y-189164019D02*
X191646310Y-188973542D01*
X191646310Y-188973542D02*
X191848691Y-188878304D01*
X191848691Y-188878304D02*
X192229643Y-188878304D01*
X192229643Y-188878304D02*
X192408215Y-188973542D01*
X192408215Y-188973542D02*
X192479643Y-189164019D01*
X192479643Y-189164019D02*
X192455834Y-189354495D01*
X192455834Y-189354495D02*
X191479643Y-189544971D01*
X193205834Y-190211638D02*
X193372501Y-188878304D01*
X193324882Y-189259257D02*
X193443929Y-189068780D01*
X193443929Y-189068780D02*
X193551072Y-188973542D01*
X193551072Y-188973542D02*
X193753453Y-188878304D01*
X193753453Y-188878304D02*
X193943929Y-188878304D01*
X194610596Y-188878304D02*
X194443929Y-190211638D01*
X194586786Y-189068780D02*
X194693929Y-188973542D01*
X194693929Y-188973542D02*
X194896310Y-188878304D01*
X194896310Y-188878304D02*
X195182024Y-188878304D01*
X195182024Y-188878304D02*
X195360596Y-188973542D01*
X195360596Y-188973542D02*
X195432024Y-189164019D01*
X195432024Y-189164019D02*
X195301072Y-190211638D01*
X197027263Y-190116400D02*
X196824882Y-190211638D01*
X196824882Y-190211638D02*
X196443929Y-190211638D01*
X196443929Y-190211638D02*
X196265358Y-190116400D01*
X196265358Y-190116400D02*
X196193929Y-189925923D01*
X196193929Y-189925923D02*
X196289168Y-189164019D01*
X196289168Y-189164019D02*
X196408215Y-188973542D01*
X196408215Y-188973542D02*
X196610596Y-188878304D01*
X196610596Y-188878304D02*
X196991548Y-188878304D01*
X196991548Y-188878304D02*
X197170120Y-188973542D01*
X197170120Y-188973542D02*
X197241548Y-189164019D01*
X197241548Y-189164019D02*
X197217739Y-189354495D01*
X197217739Y-189354495D02*
X196241548Y-189544971D01*
X197848692Y-188878304D02*
X198610596Y-188878304D01*
X198217739Y-188211638D02*
X198003454Y-189925923D01*
X198003454Y-189925923D02*
X198074882Y-190116400D01*
X198074882Y-190116400D02*
X198253454Y-190211638D01*
X198253454Y-190211638D02*
X198443930Y-190211638D01*
X201801073Y-190021161D02*
X201693930Y-190116400D01*
X201693930Y-190116400D02*
X201396311Y-190211638D01*
X201396311Y-190211638D02*
X201205835Y-190211638D01*
X201205835Y-190211638D02*
X200932025Y-190116400D01*
X200932025Y-190116400D02*
X200765359Y-189925923D01*
X200765359Y-189925923D02*
X200693930Y-189735447D01*
X200693930Y-189735447D02*
X200646311Y-189354495D01*
X200646311Y-189354495D02*
X200682025Y-189068780D01*
X200682025Y-189068780D02*
X200824882Y-188687828D01*
X200824882Y-188687828D02*
X200943930Y-188497352D01*
X200943930Y-188497352D02*
X201158216Y-188306876D01*
X201158216Y-188306876D02*
X201455835Y-188211638D01*
X201455835Y-188211638D02*
X201646311Y-188211638D01*
X201646311Y-188211638D02*
X201920121Y-188306876D01*
X201920121Y-188306876D02*
X202003454Y-188402114D01*
X202920121Y-190211638D02*
X202741549Y-190116400D01*
X202741549Y-190116400D02*
X202670121Y-189925923D01*
X202670121Y-189925923D02*
X202884406Y-188211638D01*
X203967740Y-190211638D02*
X203789168Y-190116400D01*
X203789168Y-190116400D02*
X203705835Y-190021161D01*
X203705835Y-190021161D02*
X203634406Y-189830685D01*
X203634406Y-189830685D02*
X203705835Y-189259257D01*
X203705835Y-189259257D02*
X203824882Y-189068780D01*
X203824882Y-189068780D02*
X203932025Y-188973542D01*
X203932025Y-188973542D02*
X204134406Y-188878304D01*
X204134406Y-188878304D02*
X204420120Y-188878304D01*
X204420120Y-188878304D02*
X204598692Y-188973542D01*
X204598692Y-188973542D02*
X204682025Y-189068780D01*
X204682025Y-189068780D02*
X204753454Y-189259257D01*
X204753454Y-189259257D02*
X204682025Y-189830685D01*
X204682025Y-189830685D02*
X204562978Y-190021161D01*
X204562978Y-190021161D02*
X204455835Y-190116400D01*
X204455835Y-190116400D02*
X204253454Y-190211638D01*
X204253454Y-190211638D02*
X203967740Y-190211638D01*
X206360597Y-190116400D02*
X206158216Y-190211638D01*
X206158216Y-190211638D02*
X205777264Y-190211638D01*
X205777264Y-190211638D02*
X205598692Y-190116400D01*
X205598692Y-190116400D02*
X205515359Y-190021161D01*
X205515359Y-190021161D02*
X205443930Y-189830685D01*
X205443930Y-189830685D02*
X205515359Y-189259257D01*
X205515359Y-189259257D02*
X205634406Y-189068780D01*
X205634406Y-189068780D02*
X205741549Y-188973542D01*
X205741549Y-188973542D02*
X205943930Y-188878304D01*
X205943930Y-188878304D02*
X206324883Y-188878304D01*
X206324883Y-188878304D02*
X206503454Y-188973542D01*
X207205835Y-190211638D02*
X207455835Y-188211638D01*
X207491550Y-189449733D02*
X207967740Y-190211638D01*
X208134407Y-188878304D02*
X207277264Y-189640209D01*
D10*
D11*
X178958026Y-185607614D02*
X178458026Y-185607614D01*
X178458026Y-186393328D02*
X178458026Y-184893328D01*
X178458026Y-184893328D02*
X179172312Y-184893328D01*
X179743740Y-186393328D02*
X179743740Y-185393328D01*
X179743740Y-184893328D02*
X179672312Y-184964757D01*
X179672312Y-184964757D02*
X179743740Y-185036185D01*
X179743740Y-185036185D02*
X179815169Y-184964757D01*
X179815169Y-184964757D02*
X179743740Y-184893328D01*
X179743740Y-184893328D02*
X179743740Y-185036185D01*
X180672312Y-186393328D02*
X180529455Y-186321900D01*
X180529455Y-186321900D02*
X180458026Y-186179042D01*
X180458026Y-186179042D02*
X180458026Y-184893328D01*
X181815169Y-186321900D02*
X181672312Y-186393328D01*
X181672312Y-186393328D02*
X181386598Y-186393328D01*
X181386598Y-186393328D02*
X181243740Y-186321900D01*
X181243740Y-186321900D02*
X181172312Y-186179042D01*
X181172312Y-186179042D02*
X181172312Y-185607614D01*
X181172312Y-185607614D02*
X181243740Y-185464757D01*
X181243740Y-185464757D02*
X181386598Y-185393328D01*
X181386598Y-185393328D02*
X181672312Y-185393328D01*
X181672312Y-185393328D02*
X181815169Y-185464757D01*
X181815169Y-185464757D02*
X181886598Y-185607614D01*
X181886598Y-185607614D02*
X181886598Y-185750471D01*
X181886598Y-185750471D02*
X181172312Y-185893328D01*
X182529454Y-186250471D02*
X182600883Y-186321900D01*
X182600883Y-186321900D02*
X182529454Y-186393328D01*
X182529454Y-186393328D02*
X182458026Y-186321900D01*
X182458026Y-186321900D02*
X182529454Y-186250471D01*
X182529454Y-186250471D02*
X182529454Y-186393328D01*
X182529454Y-185464757D02*
X182600883Y-185536185D01*
X182600883Y-185536185D02*
X182529454Y-185607614D01*
X182529454Y-185607614D02*
X182458026Y-185536185D01*
X182458026Y-185536185D02*
X182529454Y-185464757D01*
X182529454Y-185464757D02*
X182529454Y-185607614D01*
X184386597Y-186393328D02*
X184386597Y-185393328D01*
X184386597Y-184893328D02*
X184315169Y-184964757D01*
X184315169Y-184964757D02*
X184386597Y-185036185D01*
X184386597Y-185036185D02*
X184458026Y-184964757D01*
X184458026Y-184964757D02*
X184386597Y-184893328D01*
X184386597Y-184893328D02*
X184386597Y-185036185D01*
X185100883Y-185393328D02*
X185100883Y-186393328D01*
X185100883Y-185536185D02*
X185172312Y-185464757D01*
X185172312Y-185464757D02*
X185315169Y-185393328D01*
X185315169Y-185393328D02*
X185529455Y-185393328D01*
X185529455Y-185393328D02*
X185672312Y-185464757D01*
X185672312Y-185464757D02*
X185743741Y-185607614D01*
X185743741Y-185607614D02*
X185743741Y-186393328D01*
X186243741Y-185393328D02*
X186815169Y-185393328D01*
X186458026Y-184893328D02*
X186458026Y-186179042D01*
X186458026Y-186179042D02*
X186529455Y-186321900D01*
X186529455Y-186321900D02*
X186672312Y-186393328D01*
X186672312Y-186393328D02*
X186815169Y-186393328D01*
X187886598Y-186321900D02*
X187743741Y-186393328D01*
X187743741Y-186393328D02*
X187458027Y-186393328D01*
X187458027Y-186393328D02*
X187315169Y-186321900D01*
X187315169Y-186321900D02*
X187243741Y-186179042D01*
X187243741Y-186179042D02*
X187243741Y-185607614D01*
X187243741Y-185607614D02*
X187315169Y-185464757D01*
X187315169Y-185464757D02*
X187458027Y-185393328D01*
X187458027Y-185393328D02*
X187743741Y-185393328D01*
X187743741Y-185393328D02*
X187886598Y-185464757D01*
X187886598Y-185464757D02*
X187958027Y-185607614D01*
X187958027Y-185607614D02*
X187958027Y-185750471D01*
X187958027Y-185750471D02*
X187243741Y-185893328D01*
X188600883Y-186393328D02*
X188600883Y-185393328D01*
X188600883Y-185679042D02*
X188672312Y-185536185D01*
X188672312Y-185536185D02*
X188743741Y-185464757D01*
X188743741Y-185464757D02*
X188886598Y-185393328D01*
X188886598Y-185393328D02*
X189029455Y-185393328D01*
X189529454Y-185393328D02*
X189529454Y-186393328D01*
X189529454Y-185536185D02*
X189600883Y-185464757D01*
X189600883Y-185464757D02*
X189743740Y-185393328D01*
X189743740Y-185393328D02*
X189958026Y-185393328D01*
X189958026Y-185393328D02*
X190100883Y-185464757D01*
X190100883Y-185464757D02*
X190172312Y-185607614D01*
X190172312Y-185607614D02*
X190172312Y-186393328D01*
X191458026Y-186321900D02*
X191315169Y-186393328D01*
X191315169Y-186393328D02*
X191029455Y-186393328D01*
X191029455Y-186393328D02*
X190886597Y-186321900D01*
X190886597Y-186321900D02*
X190815169Y-186179042D01*
X190815169Y-186179042D02*
X190815169Y-185607614D01*
X190815169Y-185607614D02*
X190886597Y-185464757D01*
X190886597Y-185464757D02*
X191029455Y-185393328D01*
X191029455Y-185393328D02*
X191315169Y-185393328D01*
X191315169Y-185393328D02*
X191458026Y-185464757D01*
X191458026Y-185464757D02*
X191529455Y-185607614D01*
X191529455Y-185607614D02*
X191529455Y-185750471D01*
X191529455Y-185750471D02*
X190815169Y-185893328D01*
X191958026Y-185393328D02*
X192529454Y-185393328D01*
X192172311Y-184893328D02*
X192172311Y-186179042D01*
X192172311Y-186179042D02*
X192243740Y-186321900D01*
X192243740Y-186321900D02*
X192386597Y-186393328D01*
X192386597Y-186393328D02*
X192529454Y-186393328D01*
X192672312Y-186536185D02*
X193815169Y-186536185D01*
X194815169Y-186321900D02*
X194672311Y-186393328D01*
X194672311Y-186393328D02*
X194386597Y-186393328D01*
X194386597Y-186393328D02*
X194243740Y-186321900D01*
X194243740Y-186321900D02*
X194172311Y-186250471D01*
X194172311Y-186250471D02*
X194100883Y-186107614D01*
X194100883Y-186107614D02*
X194100883Y-185679042D01*
X194100883Y-185679042D02*
X194172311Y-185536185D01*
X194172311Y-185536185D02*
X194243740Y-185464757D01*
X194243740Y-185464757D02*
X194386597Y-185393328D01*
X194386597Y-185393328D02*
X194672311Y-185393328D01*
X194672311Y-185393328D02*
X194815169Y-185464757D01*
X195672311Y-186393328D02*
X195529454Y-186321900D01*
X195529454Y-186321900D02*
X195458025Y-186179042D01*
X195458025Y-186179042D02*
X195458025Y-184893328D01*
X196458025Y-186393328D02*
X196315168Y-186321900D01*
X196315168Y-186321900D02*
X196243739Y-186250471D01*
X196243739Y-186250471D02*
X196172311Y-186107614D01*
X196172311Y-186107614D02*
X196172311Y-185679042D01*
X196172311Y-185679042D02*
X196243739Y-185536185D01*
X196243739Y-185536185D02*
X196315168Y-185464757D01*
X196315168Y-185464757D02*
X196458025Y-185393328D01*
X196458025Y-185393328D02*
X196672311Y-185393328D01*
X196672311Y-185393328D02*
X196815168Y-185464757D01*
X196815168Y-185464757D02*
X196886597Y-185536185D01*
X196886597Y-185536185D02*
X196958025Y-185679042D01*
X196958025Y-185679042D02*
X196958025Y-186107614D01*
X196958025Y-186107614D02*
X196886597Y-186250471D01*
X196886597Y-186250471D02*
X196815168Y-186321900D01*
X196815168Y-186321900D02*
X196672311Y-186393328D01*
X196672311Y-186393328D02*
X196458025Y-186393328D01*
X198243740Y-186321900D02*
X198100882Y-186393328D01*
X198100882Y-186393328D02*
X197815168Y-186393328D01*
X197815168Y-186393328D02*
X197672311Y-186321900D01*
X197672311Y-186321900D02*
X197600882Y-186250471D01*
X197600882Y-186250471D02*
X197529454Y-186107614D01*
X197529454Y-186107614D02*
X197529454Y-185679042D01*
X197529454Y-185679042D02*
X197600882Y-185536185D01*
X197600882Y-185536185D02*
X197672311Y-185464757D01*
X197672311Y-185464757D02*
X197815168Y-185393328D01*
X197815168Y-185393328D02*
X198100882Y-185393328D01*
X198100882Y-185393328D02*
X198243740Y-185464757D01*
X198886596Y-186393328D02*
X198886596Y-184893328D01*
X199029454Y-185821900D02*
X199458025Y-186393328D01*
X199458025Y-185393328D02*
X198886596Y-185964757D01*
X199743740Y-186536185D02*
X200886597Y-186536185D01*
X201243739Y-186393328D02*
X201243739Y-184893328D01*
X201886597Y-186393328D02*
X201886597Y-185607614D01*
X201886597Y-185607614D02*
X201815168Y-185464757D01*
X201815168Y-185464757D02*
X201672311Y-185393328D01*
X201672311Y-185393328D02*
X201458025Y-185393328D01*
X201458025Y-185393328D02*
X201315168Y-185464757D01*
X201315168Y-185464757D02*
X201243739Y-185536185D01*
X203243740Y-186393328D02*
X203243740Y-185607614D01*
X203243740Y-185607614D02*
X203172311Y-185464757D01*
X203172311Y-185464757D02*
X203029454Y-185393328D01*
X203029454Y-185393328D02*
X202743740Y-185393328D01*
X202743740Y-185393328D02*
X202600882Y-185464757D01*
X203243740Y-186321900D02*
X203100882Y-186393328D01*
X203100882Y-186393328D02*
X202743740Y-186393328D01*
X202743740Y-186393328D02*
X202600882Y-186321900D01*
X202600882Y-186321900D02*
X202529454Y-186179042D01*
X202529454Y-186179042D02*
X202529454Y-186036185D01*
X202529454Y-186036185D02*
X202600882Y-185893328D01*
X202600882Y-185893328D02*
X202743740Y-185821900D01*
X202743740Y-185821900D02*
X203100882Y-185821900D01*
X203100882Y-185821900D02*
X203243740Y-185750471D01*
X203958025Y-186393328D02*
X203958025Y-185393328D01*
X203958025Y-185679042D02*
X204029454Y-185536185D01*
X204029454Y-185536185D02*
X204100883Y-185464757D01*
X204100883Y-185464757D02*
X204243740Y-185393328D01*
X204243740Y-185393328D02*
X204386597Y-185393328D01*
X205529454Y-186393328D02*
X205529454Y-184893328D01*
X205529454Y-186321900D02*
X205386596Y-186393328D01*
X205386596Y-186393328D02*
X205100882Y-186393328D01*
X205100882Y-186393328D02*
X204958025Y-186321900D01*
X204958025Y-186321900D02*
X204886596Y-186250471D01*
X204886596Y-186250471D02*
X204815168Y-186107614D01*
X204815168Y-186107614D02*
X204815168Y-185679042D01*
X204815168Y-185679042D02*
X204886596Y-185536185D01*
X204886596Y-185536185D02*
X204958025Y-185464757D01*
X204958025Y-185464757D02*
X205100882Y-185393328D01*
X205100882Y-185393328D02*
X205386596Y-185393328D01*
X205386596Y-185393328D02*
X205529454Y-185464757D01*
X206100882Y-185393328D02*
X206386597Y-186393328D01*
X206386597Y-186393328D02*
X206672311Y-185679042D01*
X206672311Y-185679042D02*
X206958025Y-186393328D01*
X206958025Y-186393328D02*
X207243739Y-185393328D01*
X208458026Y-186393328D02*
X208458026Y-185607614D01*
X208458026Y-185607614D02*
X208386597Y-185464757D01*
X208386597Y-185464757D02*
X208243740Y-185393328D01*
X208243740Y-185393328D02*
X207958026Y-185393328D01*
X207958026Y-185393328D02*
X207815168Y-185464757D01*
X208458026Y-186321900D02*
X208315168Y-186393328D01*
X208315168Y-186393328D02*
X207958026Y-186393328D01*
X207958026Y-186393328D02*
X207815168Y-186321900D01*
X207815168Y-186321900D02*
X207743740Y-186179042D01*
X207743740Y-186179042D02*
X207743740Y-186036185D01*
X207743740Y-186036185D02*
X207815168Y-185893328D01*
X207815168Y-185893328D02*
X207958026Y-185821900D01*
X207958026Y-185821900D02*
X208315168Y-185821900D01*
X208315168Y-185821900D02*
X208458026Y-185750471D01*
X209172311Y-186393328D02*
X209172311Y-185393328D01*
X209172311Y-185679042D02*
X209243740Y-185536185D01*
X209243740Y-185536185D02*
X209315169Y-185464757D01*
X209315169Y-185464757D02*
X209458026Y-185393328D01*
X209458026Y-185393328D02*
X209600883Y-185393328D01*
X210672311Y-186321900D02*
X210529454Y-186393328D01*
X210529454Y-186393328D02*
X210243740Y-186393328D01*
X210243740Y-186393328D02*
X210100882Y-186321900D01*
X210100882Y-186321900D02*
X210029454Y-186179042D01*
X210029454Y-186179042D02*
X210029454Y-185607614D01*
X210029454Y-185607614D02*
X210100882Y-185464757D01*
X210100882Y-185464757D02*
X210243740Y-185393328D01*
X210243740Y-185393328D02*
X210529454Y-185393328D01*
X210529454Y-185393328D02*
X210672311Y-185464757D01*
X210672311Y-185464757D02*
X210743740Y-185607614D01*
X210743740Y-185607614D02*
X210743740Y-185750471D01*
X210743740Y-185750471D02*
X210029454Y-185893328D01*
X211386596Y-186250471D02*
X211458025Y-186321900D01*
X211458025Y-186321900D02*
X211386596Y-186393328D01*
X211386596Y-186393328D02*
X211315168Y-186321900D01*
X211315168Y-186321900D02*
X211386596Y-186250471D01*
X211386596Y-186250471D02*
X211386596Y-186393328D01*
X212100882Y-186393328D02*
X212100882Y-184893328D01*
X212243740Y-185821900D02*
X212672311Y-186393328D01*
X212672311Y-185393328D02*
X212100882Y-185964757D01*
X213315168Y-186393328D02*
X213315168Y-185393328D01*
X213315168Y-184893328D02*
X213243740Y-184964757D01*
X213243740Y-184964757D02*
X213315168Y-185036185D01*
X213315168Y-185036185D02*
X213386597Y-184964757D01*
X213386597Y-184964757D02*
X213315168Y-184893328D01*
X213315168Y-184893328D02*
X213315168Y-185036185D01*
X214672312Y-186321900D02*
X214529454Y-186393328D01*
X214529454Y-186393328D02*
X214243740Y-186393328D01*
X214243740Y-186393328D02*
X214100883Y-186321900D01*
X214100883Y-186321900D02*
X214029454Y-186250471D01*
X214029454Y-186250471D02*
X213958026Y-186107614D01*
X213958026Y-186107614D02*
X213958026Y-185679042D01*
X213958026Y-185679042D02*
X214029454Y-185536185D01*
X214029454Y-185536185D02*
X214100883Y-185464757D01*
X214100883Y-185464757D02*
X214243740Y-185393328D01*
X214243740Y-185393328D02*
X214529454Y-185393328D01*
X214529454Y-185393328D02*
X214672312Y-185464757D01*
X215958026Y-186393328D02*
X215958026Y-185607614D01*
X215958026Y-185607614D02*
X215886597Y-185464757D01*
X215886597Y-185464757D02*
X215743740Y-185393328D01*
X215743740Y-185393328D02*
X215458026Y-185393328D01*
X215458026Y-185393328D02*
X215315168Y-185464757D01*
X215958026Y-186321900D02*
X215815168Y-186393328D01*
X215815168Y-186393328D02*
X215458026Y-186393328D01*
X215458026Y-186393328D02*
X215315168Y-186321900D01*
X215315168Y-186321900D02*
X215243740Y-186179042D01*
X215243740Y-186179042D02*
X215243740Y-186036185D01*
X215243740Y-186036185D02*
X215315168Y-185893328D01*
X215315168Y-185893328D02*
X215458026Y-185821900D01*
X215458026Y-185821900D02*
X215815168Y-185821900D01*
X215815168Y-185821900D02*
X215958026Y-185750471D01*
X217315169Y-186393328D02*
X217315169Y-184893328D01*
X217315169Y-186321900D02*
X217172311Y-186393328D01*
X217172311Y-186393328D02*
X216886597Y-186393328D01*
X216886597Y-186393328D02*
X216743740Y-186321900D01*
X216743740Y-186321900D02*
X216672311Y-186250471D01*
X216672311Y-186250471D02*
X216600883Y-186107614D01*
X216600883Y-186107614D02*
X216600883Y-185679042D01*
X216600883Y-185679042D02*
X216672311Y-185536185D01*
X216672311Y-185536185D02*
X216743740Y-185464757D01*
X216743740Y-185464757D02*
X216886597Y-185393328D01*
X216886597Y-185393328D02*
X217172311Y-185393328D01*
X217172311Y-185393328D02*
X217315169Y-185464757D01*
X217672312Y-186536185D02*
X218815169Y-186536185D01*
X219172311Y-185393328D02*
X219172311Y-186893328D01*
X219172311Y-185464757D02*
X219315169Y-185393328D01*
X219315169Y-185393328D02*
X219600883Y-185393328D01*
X219600883Y-185393328D02*
X219743740Y-185464757D01*
X219743740Y-185464757D02*
X219815169Y-185536185D01*
X219815169Y-185536185D02*
X219886597Y-185679042D01*
X219886597Y-185679042D02*
X219886597Y-186107614D01*
X219886597Y-186107614D02*
X219815169Y-186250471D01*
X219815169Y-186250471D02*
X219743740Y-186321900D01*
X219743740Y-186321900D02*
X219600883Y-186393328D01*
X219600883Y-186393328D02*
X219315169Y-186393328D01*
X219315169Y-186393328D02*
X219172311Y-186321900D01*
X221172312Y-186321900D02*
X221029454Y-186393328D01*
X221029454Y-186393328D02*
X220743740Y-186393328D01*
X220743740Y-186393328D02*
X220600883Y-186321900D01*
X220600883Y-186321900D02*
X220529454Y-186250471D01*
X220529454Y-186250471D02*
X220458026Y-186107614D01*
X220458026Y-186107614D02*
X220458026Y-185679042D01*
X220458026Y-185679042D02*
X220529454Y-185536185D01*
X220529454Y-185536185D02*
X220600883Y-185464757D01*
X220600883Y-185464757D02*
X220743740Y-185393328D01*
X220743740Y-185393328D02*
X221029454Y-185393328D01*
X221029454Y-185393328D02*
X221172312Y-185464757D01*
X221815168Y-186393328D02*
X221815168Y-184893328D01*
X221815168Y-185464757D02*
X221958026Y-185393328D01*
X221958026Y-185393328D02*
X222243740Y-185393328D01*
X222243740Y-185393328D02*
X222386597Y-185464757D01*
X222386597Y-185464757D02*
X222458026Y-185536185D01*
X222458026Y-185536185D02*
X222529454Y-185679042D01*
X222529454Y-185679042D02*
X222529454Y-186107614D01*
X222529454Y-186107614D02*
X222458026Y-186250471D01*
X222458026Y-186250471D02*
X222386597Y-186321900D01*
X222386597Y-186321900D02*
X222243740Y-186393328D01*
X222243740Y-186393328D02*
X221958026Y-186393328D01*
X221958026Y-186393328D02*
X221815168Y-186321900D01*
D10*
D11*
X177002200Y-181507200D02*
X285002200Y-181507200D01*
D10*
D11*
X178386598Y-183621900D02*
X178600884Y-183693328D01*
X178600884Y-183693328D02*
X178958026Y-183693328D01*
X178958026Y-183693328D02*
X179100884Y-183621900D01*
X179100884Y-183621900D02*
X179172312Y-183550471D01*
X179172312Y-183550471D02*
X179243741Y-183407614D01*
X179243741Y-183407614D02*
X179243741Y-183264757D01*
X179243741Y-183264757D02*
X179172312Y-183121900D01*
X179172312Y-183121900D02*
X179100884Y-183050471D01*
X179100884Y-183050471D02*
X178958026Y-182979042D01*
X178958026Y-182979042D02*
X178672312Y-182907614D01*
X178672312Y-182907614D02*
X178529455Y-182836185D01*
X178529455Y-182836185D02*
X178458026Y-182764757D01*
X178458026Y-182764757D02*
X178386598Y-182621900D01*
X178386598Y-182621900D02*
X178386598Y-182479042D01*
X178386598Y-182479042D02*
X178458026Y-182336185D01*
X178458026Y-182336185D02*
X178529455Y-182264757D01*
X178529455Y-182264757D02*
X178672312Y-182193328D01*
X178672312Y-182193328D02*
X179029455Y-182193328D01*
X179029455Y-182193328D02*
X179243741Y-182264757D01*
X179886597Y-183693328D02*
X179886597Y-182193328D01*
X180529455Y-183693328D02*
X180529455Y-182907614D01*
X180529455Y-182907614D02*
X180458026Y-182764757D01*
X180458026Y-182764757D02*
X180315169Y-182693328D01*
X180315169Y-182693328D02*
X180100883Y-182693328D01*
X180100883Y-182693328D02*
X179958026Y-182764757D01*
X179958026Y-182764757D02*
X179886597Y-182836185D01*
X181815169Y-183621900D02*
X181672312Y-183693328D01*
X181672312Y-183693328D02*
X181386598Y-183693328D01*
X181386598Y-183693328D02*
X181243740Y-183621900D01*
X181243740Y-183621900D02*
X181172312Y-183479042D01*
X181172312Y-183479042D02*
X181172312Y-182907614D01*
X181172312Y-182907614D02*
X181243740Y-182764757D01*
X181243740Y-182764757D02*
X181386598Y-182693328D01*
X181386598Y-182693328D02*
X181672312Y-182693328D01*
X181672312Y-182693328D02*
X181815169Y-182764757D01*
X181815169Y-182764757D02*
X181886598Y-182907614D01*
X181886598Y-182907614D02*
X181886598Y-183050471D01*
X181886598Y-183050471D02*
X181172312Y-183193328D01*
X183100883Y-183621900D02*
X182958026Y-183693328D01*
X182958026Y-183693328D02*
X182672312Y-183693328D01*
X182672312Y-183693328D02*
X182529454Y-183621900D01*
X182529454Y-183621900D02*
X182458026Y-183479042D01*
X182458026Y-183479042D02*
X182458026Y-182907614D01*
X182458026Y-182907614D02*
X182529454Y-182764757D01*
X182529454Y-182764757D02*
X182672312Y-182693328D01*
X182672312Y-182693328D02*
X182958026Y-182693328D01*
X182958026Y-182693328D02*
X183100883Y-182764757D01*
X183100883Y-182764757D02*
X183172312Y-182907614D01*
X183172312Y-182907614D02*
X183172312Y-183050471D01*
X183172312Y-183050471D02*
X182458026Y-183193328D01*
X183600883Y-182693328D02*
X184172311Y-182693328D01*
X183815168Y-182193328D02*
X183815168Y-183479042D01*
X183815168Y-183479042D02*
X183886597Y-183621900D01*
X183886597Y-183621900D02*
X184029454Y-183693328D01*
X184029454Y-183693328D02*
X184172311Y-183693328D01*
X184672311Y-183550471D02*
X184743740Y-183621900D01*
X184743740Y-183621900D02*
X184672311Y-183693328D01*
X184672311Y-183693328D02*
X184600883Y-183621900D01*
X184600883Y-183621900D02*
X184672311Y-183550471D01*
X184672311Y-183550471D02*
X184672311Y-183693328D01*
X184672311Y-182764757D02*
X184743740Y-182836185D01*
X184743740Y-182836185D02*
X184672311Y-182907614D01*
X184672311Y-182907614D02*
X184600883Y-182836185D01*
X184600883Y-182836185D02*
X184672311Y-182764757D01*
X184672311Y-182764757D02*
X184672311Y-182907614D01*
D10*
D12*
X179056710Y-179899814D02*
X178556710Y-179899814D01*
X178556710Y-180685528D02*
X178556710Y-179185528D01*
X178556710Y-179185528D02*
X179270996Y-179185528D01*
X180056710Y-180685528D02*
X179913853Y-180614100D01*
X179913853Y-180614100D02*
X179842424Y-180471242D01*
X179842424Y-180471242D02*
X179842424Y-179185528D01*
X181270996Y-180685528D02*
X181270996Y-179899814D01*
X181270996Y-179899814D02*
X181199567Y-179756957D01*
X181199567Y-179756957D02*
X181056710Y-179685528D01*
X181056710Y-179685528D02*
X180770996Y-179685528D01*
X180770996Y-179685528D02*
X180628138Y-179756957D01*
X181270996Y-180614100D02*
X181128138Y-180685528D01*
X181128138Y-180685528D02*
X180770996Y-180685528D01*
X180770996Y-180685528D02*
X180628138Y-180614100D01*
X180628138Y-180614100D02*
X180556710Y-180471242D01*
X180556710Y-180471242D02*
X180556710Y-180328385D01*
X180556710Y-180328385D02*
X180628138Y-180185528D01*
X180628138Y-180185528D02*
X180770996Y-180114100D01*
X180770996Y-180114100D02*
X181128138Y-180114100D01*
X181128138Y-180114100D02*
X181270996Y-180042671D01*
X181842424Y-179685528D02*
X182199567Y-180685528D01*
X182199567Y-180685528D02*
X182556710Y-179685528D01*
X183128138Y-180685528D02*
X183128138Y-179685528D01*
X183128138Y-179185528D02*
X183056710Y-179256957D01*
X183056710Y-179256957D02*
X183128138Y-179328385D01*
X183128138Y-179328385D02*
X183199567Y-179256957D01*
X183199567Y-179256957D02*
X183128138Y-179185528D01*
X183128138Y-179185528D02*
X183128138Y-179328385D01*
X184485282Y-180685528D02*
X184485282Y-179899814D01*
X184485282Y-179899814D02*
X184413853Y-179756957D01*
X184413853Y-179756957D02*
X184270996Y-179685528D01*
X184270996Y-179685528D02*
X183985282Y-179685528D01*
X183985282Y-179685528D02*
X183842424Y-179756957D01*
X184485282Y-180614100D02*
X184342424Y-180685528D01*
X184342424Y-180685528D02*
X183985282Y-180685528D01*
X183985282Y-180685528D02*
X183842424Y-180614100D01*
X183842424Y-180614100D02*
X183770996Y-180471242D01*
X183770996Y-180471242D02*
X183770996Y-180328385D01*
X183770996Y-180328385D02*
X183842424Y-180185528D01*
X183842424Y-180185528D02*
X183985282Y-180114100D01*
X183985282Y-180114100D02*
X184342424Y-180114100D01*
X184342424Y-180114100D02*
X184485282Y-180042671D01*
X185199567Y-179685528D02*
X185199567Y-180685528D01*
X185199567Y-179828385D02*
X185270996Y-179756957D01*
X185270996Y-179756957D02*
X185413853Y-179685528D01*
X185413853Y-179685528D02*
X185628139Y-179685528D01*
X185628139Y-179685528D02*
X185770996Y-179756957D01*
X185770996Y-179756957D02*
X185842425Y-179899814D01*
X185842425Y-179899814D02*
X185842425Y-180685528D01*
X187699567Y-180685528D02*
X187699567Y-179185528D01*
X188556710Y-180685528D02*
X187913853Y-179828385D01*
X188556710Y-179185528D02*
X187699567Y-180042671D01*
X189842425Y-180685528D02*
X189842425Y-179899814D01*
X189842425Y-179899814D02*
X189770996Y-179756957D01*
X189770996Y-179756957D02*
X189628139Y-179685528D01*
X189628139Y-179685528D02*
X189342425Y-179685528D01*
X189342425Y-179685528D02*
X189199567Y-179756957D01*
X189842425Y-180614100D02*
X189699567Y-180685528D01*
X189699567Y-180685528D02*
X189342425Y-180685528D01*
X189342425Y-180685528D02*
X189199567Y-180614100D01*
X189199567Y-180614100D02*
X189128139Y-180471242D01*
X189128139Y-180471242D02*
X189128139Y-180328385D01*
X189128139Y-180328385D02*
X189199567Y-180185528D01*
X189199567Y-180185528D02*
X189342425Y-180114100D01*
X189342425Y-180114100D02*
X189699567Y-180114100D01*
X189699567Y-180114100D02*
X189842425Y-180042671D01*
X191199568Y-179685528D02*
X191199568Y-180685528D01*
X190556710Y-179685528D02*
X190556710Y-180471242D01*
X190556710Y-180471242D02*
X190628139Y-180614100D01*
X190628139Y-180614100D02*
X190770996Y-180685528D01*
X190770996Y-180685528D02*
X190985282Y-180685528D01*
X190985282Y-180685528D02*
X191128139Y-180614100D01*
X191128139Y-180614100D02*
X191199568Y-180542671D01*
X191699568Y-179685528D02*
X192270996Y-179685528D01*
X191913853Y-180685528D02*
X191913853Y-179399814D01*
X191913853Y-179399814D02*
X191985282Y-179256957D01*
X191985282Y-179256957D02*
X192128139Y-179185528D01*
X192128139Y-179185528D02*
X192270996Y-179185528D01*
X192770996Y-180685528D02*
X192770996Y-179685528D01*
X192770996Y-179828385D02*
X192842425Y-179756957D01*
X192842425Y-179756957D02*
X192985282Y-179685528D01*
X192985282Y-179685528D02*
X193199568Y-179685528D01*
X193199568Y-179685528D02*
X193342425Y-179756957D01*
X193342425Y-179756957D02*
X193413854Y-179899814D01*
X193413854Y-179899814D02*
X193413854Y-180685528D01*
X193413854Y-179899814D02*
X193485282Y-179756957D01*
X193485282Y-179756957D02*
X193628139Y-179685528D01*
X193628139Y-179685528D02*
X193842425Y-179685528D01*
X193842425Y-179685528D02*
X193985282Y-179756957D01*
X193985282Y-179756957D02*
X194056711Y-179899814D01*
X194056711Y-179899814D02*
X194056711Y-180685528D01*
X195413854Y-180685528D02*
X195413854Y-179899814D01*
X195413854Y-179899814D02*
X195342425Y-179756957D01*
X195342425Y-179756957D02*
X195199568Y-179685528D01*
X195199568Y-179685528D02*
X194913854Y-179685528D01*
X194913854Y-179685528D02*
X194770996Y-179756957D01*
X195413854Y-180614100D02*
X195270996Y-180685528D01*
X195270996Y-180685528D02*
X194913854Y-180685528D01*
X194913854Y-180685528D02*
X194770996Y-180614100D01*
X194770996Y-180614100D02*
X194699568Y-180471242D01*
X194699568Y-180471242D02*
X194699568Y-180328385D01*
X194699568Y-180328385D02*
X194770996Y-180185528D01*
X194770996Y-180185528D02*
X194913854Y-180114100D01*
X194913854Y-180114100D02*
X195270996Y-180114100D01*
X195270996Y-180114100D02*
X195413854Y-180042671D01*
X196128139Y-179685528D02*
X196128139Y-180685528D01*
X196128139Y-179828385D02*
X196199568Y-179756957D01*
X196199568Y-179756957D02*
X196342425Y-179685528D01*
X196342425Y-179685528D02*
X196556711Y-179685528D01*
X196556711Y-179685528D02*
X196699568Y-179756957D01*
X196699568Y-179756957D02*
X196770997Y-179899814D01*
X196770997Y-179899814D02*
X196770997Y-180685528D01*
X197485282Y-179685528D02*
X197485282Y-180685528D01*
X197485282Y-179828385D02*
X197556711Y-179756957D01*
X197556711Y-179756957D02*
X197699568Y-179685528D01*
X197699568Y-179685528D02*
X197913854Y-179685528D01*
X197913854Y-179685528D02*
X198056711Y-179756957D01*
X198056711Y-179756957D02*
X198128140Y-179899814D01*
X198128140Y-179899814D02*
X198128140Y-180685528D01*
D10*
D11*
D10*
D11*
D10*
D11*
D10*
D11*
D10*
D11*
X197002200Y-191507200D02*
X197002200Y-194507200D01*
D10*
D11*
X261002200Y-191507200D02*
X261002200Y-198007200D01*
D14*
%TO.C,C2*%
X217170000Y-76200000D03*
X219670000Y-76200000D03*
%TD*%
D15*
%TO.C,R1*%
X147320000Y-106680000D03*
D16*
X157480000Y-106680000D03*
%TD*%
D17*
%TO.C,RV1*%
X142280000Y-102870000D03*
X144780000Y-102870000D03*
X147280000Y-102870000D03*
D18*
X140380000Y-95870000D03*
X149180000Y-95870000D03*
%TD*%
D19*
%TO.C,REF2*%
X224790000Y-107950000D03*
%TD*%
D14*
%TO.C,C4*%
X210820000Y-109220000D03*
X213320000Y-109220000D03*
%TD*%
D20*
%TO.C,D5*%
X175260000Y-74612000D03*
D17*
X175260000Y-72072000D03*
%TD*%
D21*
%TO.C,D3*%
X182880000Y-84772000D03*
D22*
X185420000Y-84772000D03*
X187960000Y-84772000D03*
X190500000Y-84772000D03*
X193040000Y-84772000D03*
X193040000Y-69772000D03*
X190500000Y-69772000D03*
X187960000Y-69772000D03*
X185420000Y-69772000D03*
X182880000Y-69772000D03*
%TD*%
D23*
%TO.C,RV2*%
X147290000Y-100330000D03*
X144750000Y-97790000D03*
X142210000Y-100330000D03*
%TD*%
D24*
%TO.C,U1*%
X162560000Y-106680000D03*
D25*
X165100000Y-106680000D03*
X167640000Y-106680000D03*
X170180000Y-106680000D03*
X172720000Y-106680000D03*
X175260000Y-106680000D03*
X177800000Y-106680000D03*
X180340000Y-106680000D03*
X182880000Y-106680000D03*
X185420000Y-106680000D03*
X187960000Y-106680000D03*
X190500000Y-106680000D03*
X193040000Y-106680000D03*
X195580000Y-106680000D03*
X198120000Y-106680000D03*
X200660000Y-106680000D03*
X203200000Y-106680000D03*
X205740000Y-106680000D03*
X208280000Y-106680000D03*
X210820000Y-106680000D03*
X210820000Y-91122000D03*
X208280000Y-91122000D03*
X205740000Y-91122000D03*
X203200000Y-91122000D03*
X200660000Y-91122000D03*
X198120000Y-91122000D03*
X195580000Y-91122000D03*
X193040000Y-91122000D03*
X190500000Y-91122000D03*
X187960000Y-91122000D03*
X185420000Y-91122000D03*
X182880000Y-91122000D03*
X180340000Y-91122000D03*
X177800000Y-91122000D03*
X175260000Y-91122000D03*
X172720000Y-91122000D03*
X170180000Y-91122000D03*
X167640000Y-91122000D03*
X165100000Y-91122000D03*
X162560000Y-91122000D03*
%TD*%
D20*
%TO.C,D6*%
X175260000Y-82232000D03*
D17*
X175260000Y-79692000D03*
%TD*%
D26*
%TO.C,C5*%
X218440000Y-106680000D03*
D15*
X218440000Y-108680000D03*
%TD*%
D26*
%TO.C,C3*%
X218440000Y-69850000D03*
D15*
X218440000Y-71850000D03*
%TD*%
D21*
%TO.C,D4*%
X200660000Y-84772000D03*
D22*
X203200000Y-84772000D03*
X205740000Y-84772000D03*
X208280000Y-84772000D03*
X210820000Y-84772000D03*
X210820000Y-69772000D03*
X208280000Y-69772000D03*
X205740000Y-69772000D03*
X203200000Y-69772000D03*
X200660000Y-69772000D03*
%TD*%
D14*
%TO.C,C1*%
X157480000Y-102870000D03*
X157480000Y-100370000D03*
%TD*%
D21*
%TO.C,D1*%
X139700000Y-84772000D03*
D22*
X142240000Y-84772000D03*
X144780000Y-84772000D03*
X147320000Y-84772000D03*
X149860000Y-84772000D03*
X149860000Y-69772000D03*
X147320000Y-69772000D03*
X144780000Y-69772000D03*
X142240000Y-69772000D03*
X139700000Y-69772000D03*
%TD*%
D21*
%TO.C,D2*%
X157480000Y-84772000D03*
D22*
X160020000Y-84772000D03*
X162560000Y-84772000D03*
X165100000Y-84772000D03*
X167640000Y-84772000D03*
X167640000Y-69772000D03*
X165100000Y-69772000D03*
X162560000Y-69772000D03*
X160020000Y-69772000D03*
X157480000Y-69772000D03*
%TD*%
D19*
%TO.C,REF1*%
X125730000Y-107950000D03*
%TD*%
D26*
%TO.C,A1*%
X220980000Y-101600000D03*
D15*
X218440000Y-101600000D03*
X215900000Y-101600000D03*
X213360000Y-101600000D03*
X210820000Y-101600000D03*
X208280000Y-101600000D03*
X205740000Y-101600000D03*
X203200000Y-101600000D03*
X200660000Y-101600000D03*
X198120000Y-101600000D03*
X195580000Y-101600000D03*
X193040000Y-101600000D03*
X190500000Y-101600000D03*
X187960000Y-101600000D03*
X185420000Y-101600000D03*
X182880000Y-101600000D03*
X182880000Y-81280000D03*
X185420000Y-81280000D03*
X187960000Y-81280000D03*
X190500000Y-81280000D03*
X193040000Y-81280000D03*
X195580000Y-81280000D03*
X198120000Y-81280000D03*
X200660000Y-81280000D03*
X203200000Y-81280000D03*
X205740000Y-81280000D03*
X208280000Y-81280000D03*
X210820000Y-81280000D03*
%TD*%
M02*
