M48
; DRILL file {KiCad 8.0.0} date 2024-02-29T15:31:46+0100
; FORMAT={-:-/ absolute / inch / decimal}
; #@! TF.CreationDate,2024-02-29T15:31:46+01:00
; #@! TF.GenerationSoftware,Kicad,Pcbnew,8.0.0
; #@! TF.FileFunction,Plated,1,2,PTH
FMAT,2
INCH
; #@! TA.AperFunction,Plated,PTH,ComponentDrill
T1C0.0197
; #@! TA.AperFunction,Plated,PTH,ComponentDrill
T2C0.0259
; #@! TA.AperFunction,Plated,PTH,ComponentDrill
T3C0.0276
; #@! TA.AperFunction,Plated,PTH,ComponentDrill
T4C0.0315
; #@! TA.AperFunction,Plated,PTH,ComponentDrill
T5C0.0354
; #@! TA.AperFunction,Plated,PTH,ComponentDrill
T6C0.0472
; #@! TA.AperFunction,Plated,PTH,ComponentDrill
T7C0.1228
%
G90
G05
T1
X5.5Y-2.7469
X5.5Y-3.3375
X5.6Y-2.7469
X5.6Y-3.3375
X5.7Y-2.7469
X5.7Y-3.3375
X5.8Y-2.7469
X5.8Y-3.3375
X5.9Y-2.7469
X5.9Y-3.3375
X6.2Y-2.7469
X6.2Y-3.3375
X6.3Y-2.7469
X6.3Y-3.3375
X6.4Y-2.7469
X6.4Y-3.3375
X6.5Y-2.7469
X6.5Y-3.3375
X6.6Y-2.7469
X6.6Y-3.3375
X7.2Y-2.7469
X7.2Y-3.3375
X7.3Y-2.7469
X7.3Y-3.3375
X7.4Y-2.7469
X7.4Y-3.3375
X7.5Y-2.7469
X7.5Y-3.3375
X7.6Y-2.7469
X7.6Y-3.3375
X7.9Y-2.7469
X7.9Y-3.3375
X8.0Y-2.7469
X8.0Y-3.3375
X8.1Y-2.7469
X8.1Y-3.3375
X8.2Y-2.7469
X8.2Y-3.3375
X8.3Y-2.7469
X8.3Y-3.3375
T2
X6.4Y-3.5875
X6.4Y-4.2
X6.5Y-3.5875
X6.5Y-4.2
X6.6Y-3.5875
X6.6Y-4.2
X6.7Y-3.5875
X6.7Y-4.2
X6.8Y-3.5875
X6.8Y-4.2
X6.9Y-3.5875
X6.9Y-4.2
X7.0Y-3.5875
X7.0Y-4.2
X7.1Y-3.5875
X7.1Y-4.2
X7.2Y-3.5875
X7.2Y-4.2
X7.3Y-3.5875
X7.3Y-4.2
X7.4Y-3.5875
X7.4Y-4.2
X7.5Y-3.5875
X7.5Y-4.2
X7.6Y-3.5875
X7.6Y-4.2
X7.7Y-3.5875
X7.7Y-4.2
X7.8Y-3.5875
X7.8Y-4.2
X7.9Y-3.5875
X7.9Y-4.2
X8.0Y-3.5875
X8.0Y-4.2
X8.1Y-3.5875
X8.1Y-4.2
X8.2Y-3.5875
X8.2Y-4.2
X8.3Y-3.5875
X8.3Y-4.2
T3
X6.2Y-3.9516
X6.2Y-4.05
X8.3Y-4.3
X8.3984Y-4.3
X8.55Y-3.0
X8.6484Y-3.0
T4
X5.5988Y-3.95
X5.6988Y-3.85
X5.7988Y-3.95
X5.8Y-4.2
X6.2Y-4.2
X7.2Y-3.2
X7.2Y-4.0
X7.3Y-3.2
X7.3Y-4.0
X7.4Y-3.2
X7.4Y-4.0
X7.5Y-3.2
X7.5Y-4.0
X7.6Y-3.2
X7.6Y-4.0
X7.7Y-3.2
X7.7Y-4.0
X7.8Y-3.2
X7.8Y-4.0
X7.9Y-3.2
X7.9Y-4.0
X8.0Y-3.2
X8.0Y-4.0
X8.1Y-3.2
X8.1Y-4.0
X8.2Y-3.2
X8.2Y-4.0
X8.3Y-3.2
X8.3Y-4.0
X8.4Y-4.0
X8.5Y-4.0
X8.6Y-2.75
X8.6Y-2.8287
X8.6Y-4.0
X8.6Y-4.2
X8.6Y-4.2787
X8.7Y-4.0
T5
X6.9Y-2.8375
X6.9Y-2.9375
X6.9Y-3.1375
X6.9Y-3.2375
T6
X5.6016Y-4.05
X5.7Y-4.05
X5.7984Y-4.05
T7
X5.5268Y-3.7744
X5.8732Y-3.7744
M30
